STARTFONT 2.1
COMMENT
COMMENT Converted from OpenType font "UniVGA16.ttf?view=co" by "otf2bdf 3.0".
COMMENT
FONT -FreeType-VGA-Medium-R-Normal--89-640-100-100-P-378-ISO10646-1
SIZE 64 100 100
FONTBOUNDINGBOX 46 91 0 -12
STARTPROPERTIES 19
FOUNDRY "FreeType"
FAMILY_NAME "VGA"
WEIGHT_NAME "Medium"
SLANT "R"
SETWIDTH_NAME "Normal"
ADD_STYLE_NAME ""
PIXEL_SIZE 89
POINT_SIZE 640
RESOLUTION_X 100
RESOLUTION_Y 100
SPACING "P"
AVERAGE_WIDTH 378
CHARSET_REGISTRY "ISO10646"
CHARSET_ENCODING "1"
FONT_ASCENT 77
FONT_DESCENT 11
COPYRIGHT "-FreeType-VGA-Medium-R-Normal--89-640-100-100-P-378-ISO10646-1"
_OTF_FONTFILE "UniVGA16.ttf?view=co"
_OTF_PSNAME "VGA-Medium"
ENDPROPERTIES
CHARS 2927
STARTCHAR 0000
ENCODING 0
SWIDTH 506 0
DWIDTH 45 0
BBX 0 0 0 0
BITMAP
ENDCHAR
STARTCHAR 0001
ENCODING 1
SWIDTH 506 0
DWIDTH 45 0
BBX 45 56 0 11
BITMAP
03FFFFFFFE00
03FFFFFFFE00
03FFFFFFFE00
03FFFFFFFE00
03FFFFFFFE00
03FFFFFFFE00
FC00000001F8
FC00000001F8
FC00000001F8
FC00000001F8
FC00000001F8
FC1F800F81F8
FC1F800F81F8
FC1F800F81F8
FC1F800F81F8
FC1F800F81F8
FC1F800F81F8
FC00000001F8
FC00000001F8
FC00000001F8
FC00000001F8
FC00000001F8
FC00000001F8
FC00000001F8
FC00000001F8
FC00000001F8
FC00000001F8
FC00000001F8
FC1FFFFF81F8
FC1FFFFF81F8
FC1FFFFF81F8
FC1FFFFF81F8
FC1FFFFF81F8
FC1FFFFF81F8
FC007FF001F8
FC007FF001F8
FC007FF001F8
FC007FF001F8
FC007FF001F8
FC00000001F8
FC00000001F8
FC00000001F8
FC00000001F8
FC00000001F8
FC00000001F8
FC00000001F8
FC00000001F8
FC00000001F8
FC00000001F8
FC00000001F8
03FFFFFFFE00
03FFFFFFFE00
03FFFFFFFE00
03FFFFFFFE00
03FFFFFFFE00
03FFFFFFFE00
ENDCHAR
STARTCHAR 0002
ENCODING 2
SWIDTH 506 0
DWIDTH 45 0
BBX 44 56 0 11
BITMAP
03FFFFFFFE00
03FFFFFFFE00
03FFFFFFFE00
03FFFFFFFE00
03FFFFFFFE00
03FFFFFFFE00
FFFFFFFFFFF0
FFFFFFFFFFF0
FFFFFFFFFFF0
FFFFFFFFFFF0
FFFFFFFFFFF0
FFE07FF07FF0
FFE07FF07FF0
FFE07FF07FF0
FFE07FF07FF0
FFE07FF07FF0
FFE07FF07FF0
FFFFFFFFFFF0
FFFFFFFFFFF0
FFFFFFFFFFF0
FFFFFFFFFFF0
FFFFFFFFFFF0
FFFFFFFFFFF0
FFFFFFFFFFF0
FFFFFFFFFFF0
FFFFFFFFFFF0
FFFFFFFFFFF0
FFFFFFFFFFF0
FFE000007FF0
FFE000007FF0
FFE000007FF0
FFE000007FF0
FFE000007FF0
FFE000007FF0
FFFF801FFFF0
FFFF801FFFF0
FFFF801FFFF0
FFFF801FFFF0
FFFF801FFFF0
FFFFFFFFFFF0
FFFFFFFFFFF0
FFFFFFFFFFF0
FFFFFFFFFFF0
FFFFFFFFFFF0
FFFFFFFFFFF0
FFFFFFFFFFF0
FFFFFFFFFFF0
FFFFFFFFFFF0
FFFFFFFFFFF0
FFFFFFFFFFF0
03FFFFFFFE00
03FFFFFFFE00
03FFFFFFFE00
03FFFFFFFE00
03FFFFFFFE00
03FFFFFFFE00
ENDCHAR
STARTCHAR 0003
ENCODING 3
SWIDTH 506 0
DWIDTH 45 0
BBX 39 45 0 11
BITMAP
03FF83FF80
03FF83FF80
03FF83FF80
03FF83FF80
03FF83FF80
03FF83FF80
FFFFFFFFFE
FFFFFFFFFE
FFFFFFFFFE
FFFFFFFFFE
FFFFFFFFFE
FFFFFFFFFE
FFFFFFFFFE
FFFFFFFFFE
FFFFFFFFFE
FFFFFFFFFE
FFFFFFFFFE
FFFFFFFFFE
FFFFFFFFFE
FFFFFFFFFE
FFFFFFFFFE
FFFFFFFFFE
FFFFFFFFFE
FFFFFFFFFE
FFFFFFFFFE
FFFFFFFFFE
FFFFFFFFFE
FFFFFFFFFE
03FFFFFF80
03FFFFFF80
03FFFFFF80
03FFFFFF80
03FFFFFF80
03FFFFFF80
001FFFF000
001FFFF000
001FFFF000
001FFFF000
001FFFF000
00007C0000
00007C0000
00007C0000
00007C0000
00007C0000
00007C0000
ENDCHAR
STARTCHAR 0004
ENCODING 4
SWIDTH 506 0
DWIDTH 45 0
BBX 39 39 0 17
BITMAP
00007C0000
00007C0000
00007C0000
00007C0000
00007C0000
00007C0000
001FFFF000
001FFFF000
001FFFF000
001FFFF000
001FFFF000
03FFFFFF80
03FFFFFF80
03FFFFFF80
03FFFFFF80
03FFFFFF80
03FFFFFF80
FFFFFFFFFE
FFFFFFFFFE
FFFFFFFFFE
FFFFFFFFFE
FFFFFFFFFE
03FFFFFF80
03FFFFFF80
03FFFFFF80
03FFFFFF80
03FFFFFF80
03FFFFFF80
001FFFF000
001FFFF000
001FFFF000
001FFFF000
001FFFF000
00007C0000
00007C0000
00007C0000
00007C0000
00007C0000
00007C0000
ENDCHAR
STARTCHAR 0005
ENCODING 5
SWIDTH 506 0
DWIDTH 45 0
BBX 45 50 0 11
BITMAP
00007FF00000
00007FF00000
00007FF00000
00007FF00000
00007FF00000
001FFFFFC000
001FFFFFC000
001FFFFFC000
001FFFFFC000
001FFFFFC000
001FFFFFC000
001FFFFFC000
001FFFFFC000
001FFFFFC000
001FFFFFC000
001FFFFFC000
FFFF800FFFF8
FFFF800FFFF8
FFFF800FFFF8
FFFF800FFFF8
FFFF800FFFF8
FFFF800FFFF8
FFFF800FFFF8
FFFF800FFFF8
FFFF800FFFF8
FFFF800FFFF8
FFFF800FFFF8
FFFF800FFFF8
FFFF800FFFF8
FFFF800FFFF8
FFFF800FFFF8
FFFF800FFFF8
FFFF800FFFF8
00007FF00000
00007FF00000
00007FF00000
00007FF00000
00007FF00000
00007FF00000
00007FF00000
00007FF00000
00007FF00000
00007FF00000
00007FF00000
001FFFFFC000
001FFFFFC000
001FFFFFC000
001FFFFFC000
001FFFFFC000
001FFFFFC000
ENDCHAR
STARTCHAR 0006
ENCODING 6
SWIDTH 506 0
DWIDTH 45 0
BBX 45 50 0 11
BITMAP
00007FF00000
00007FF00000
00007FF00000
00007FF00000
00007FF00000
001FFFFF8000
001FFFFF8000
001FFFFF8000
001FFFFF8000
001FFFFF8000
001FFFFF8000
03FFFFFFFE00
03FFFFFFFE00
03FFFFFFFE00
03FFFFFFFE00
03FFFFFFFE00
FFFFFFFFFE00
FFFFFFFFFFF8
FFFFFFFFFFF8
FFFFFFFFFFF8
FFFFFFFFFFF8
FFFFFFFFFFF8
FFFFFFFFFFF8
FFFFFFFFFFF8
FFFFFFFFFFF8
FFFFFFFFFFF8
FFFFFFFFFFF8
FFFFFFFFFFF8
03FFFFFFFE00
03FFFFFFFE00
03FFFFFFFE00
03FFFFFFFE00
03FFFFFFFE00
00007FF00000
00007FF00000
00007FF00000
00007FF00000
00007FF00000
00007FF00000
00007FF00000
00007FF00000
00007FF00000
00007FF00000
00007FF00000
001FFFFF8000
001FFFFF8000
001FFFFF8000
001FFFFF8000
001FFFFF8000
001FFFFF8000
ENDCHAR
STARTCHAR 0007
ENCODING 7
SWIDTH 506 0
DWIDTH 45 0
BBX 22 22 11 22
BITMAP
03FF80
03FF80
03FF80
03FF80
03FF80
FFFFFC
FFFFFC
FFFFFC
FFFFFC
FFFFFC
FFFFFC
FFFFFC
FFFFFC
FFFFFC
FFFFFC
FFFFFC
03FF80
03FF80
03FF80
03FF80
03FF80
03FF80
ENDCHAR
STARTCHAR 000A
ENCODING 10
SWIDTH 506 0
DWIDTH 45 0
BBX 45 89 0 -11
BITMAP
FFFFFFFFFFF8
FFFFFFFFFFF8
FFFFFFFFFFF8
FFFFFFFFFFF8
FFFFFFFFFFF8
FFFFFFFFFFF8
FFFFFFFFFFF8
FFFFFFFFFFF8
FFFFFFFFFFF8
FFFFFFFFFFF8
FFFFFFFFFFF8
FFFFFFFFFFF8
FFFFFFFFFFF8
FFFFFFFFFFF8
FFFFFFFFFFF8
FFFFFFFFFFF8
FFFFFFFFFFF8
FFFFFFFFFFF8
FFFFFFFFFFF8
FFFFFFFFFFF8
FFFFFFFFFFF8
FFFFFFFFFFF8
FFFFFFFFFFF8
FFFFFFFFFFF8
FFFFFFFFFFF8
FFFFFFFFFFF8
FFFFFFFFFFF8
FFFFFFFFFFF8
FFE000007FF8
FFE000007FF8
FFE000007FF8
FFE000007FF8
FFE000007FF8
FFE000007FF8
FC007FF001F8
FC007FF001F8
FC007FF001F8
FC007FF001F8
FC007FF001F8
FC1FFFFF81F8
FC1FFFFF81F8
FC1FFFFF81F8
FC1FFFFF81F8
FC1FFFFF81F8
FC1FFFFF81F8
FC1FFFFF81F8
FC1FFFFF81F8
FC1FFFFF81F8
FC1FFFFF81F8
FC1FFFFF81F8
FC007FF001F8
FC007FF001F8
FC007FF001F8
FC007FF001F8
FC007FF001F8
FC007FF001F8
FFE000007FF8
FFE000007FF8
FFE000007FF8
FFE000007FF8
FFE000007FF8
FFFFFFFFFFF8
FFFFFFFFFFF8
FFFFFFFFFFF8
FFFFFFFFFFF8
FFFFFFFFFFF8
FFFFFFFFFFF8
FFFFFFFFFFF8
FFFFFFFFFFF8
FFFFFFFFFFF8
FFFFFFFFFFF8
FFFFFFFFFFF8
FFFFFFFFFFF8
FFFFFFFFFFF8
FFFFFFFFFFF8
FFFFFFFFFFF8
FFFFFFFFFFF8
FFFFFFFFFFF8
FFFFFFFFFFF8
FFFFFFFFFFF8
FFFFFFFFFFF8
FFFFFFFFFFF8
FFFFFFFFFFF8
FFFFFFFFFFF8
FFFFFFFFFFF8
FFFFFFFFFFF8
FFFFFFFFFFF8
FFFFFFFFFFF8
FFFFFFFFFFF8
ENDCHAR
STARTCHAR 000B
ENCODING 11
SWIDTH 506 0
DWIDTH 45 0
BBX 39 56 0 11
BITMAP
00007FFFFE
00007FFFFE
00007FFFFE
00007FFFFE
00007FFFFE
00007FFFFE
000003FFFE
000003FFFE
000003FFFE
000003FFFE
000003FFFE
00007FFFFE
00007FF07E
00007FF07E
00007FF07E
00007FF07E
00007FF07E
001FFC007E
001FFC007E
001FFC007E
001FFC007E
001FFC007E
03FFFC007E
03FFFFF000
03FFFFF000
03FFFFF000
03FFFFF000
03FFFFF000
FFE003FF80
FFE003FF80
FFE003FF80
FFE003FF80
FFE003FF80
FFE003FF80
FFE003FF80
FFE003FF80
FFE003FF80
FFE003FF80
FFE003FF80
FFE003FF80
FFE003FF80
FFE003FF80
FFE003FF80
FFE003FF80
FFE003FF80
FFE003FF80
FFE003FF80
FFE003FF80
FFE003FF80
FFE003FF80
03FFFFF000
03FFFFF000
03FFFFF000
03FFFFF000
03FFFFF000
03FFFFF000
ENDCHAR
STARTCHAR 000C
ENCODING 12
SWIDTH 506 0
DWIDTH 45 0
BBX 33 56 6 11
BITMAP
07FFFFF000
07FFFFF000
07FFFFF000
07FFFFF000
07FFFFF000
07FFFFF000
FFE003FF80
FFE003FF80
FFE003FF80
FFE003FF80
FFE003FF80
FFE003FF80
FFE003FF80
FFE003FF80
FFE003FF80
FFE003FF80
FFE003FF80
FFE003FF80
FFE003FF80
FFE003FF80
FFE003FF80
FFE003FF80
FFE003FF80
FFE003FF80
FFE003FF80
FFE003FF80
FFE003FF80
FFE003FF80
07FFFFF000
07FFFFF000
07FFFFF000
07FFFFF000
07FFFFF000
07FFFFF000
001FFC0000
001FFC0000
001FFC0000
001FFC0000
001FFC0000
FFFFFFFF80
FFFFFFFF80
FFFFFFFF80
FFFFFFFF80
FFFFFFFF80
FFFFFFFF80
001FFC0000
001FFC0000
001FFC0000
001FFC0000
001FFC0000
001FFC0000
001FFC0000
001FFC0000
001FFC0000
001FFC0000
001FFC0000
ENDCHAR
STARTCHAR 000E
ENCODING 14
SWIDTH 506 0
DWIDTH 45 0
BBX 45 62 0 5
BITMAP
03FFFFFFFFF8
03FFFFFFFFF8
03FFFFFFFFF8
03FFFFFFFFF8
03FFFFFFFFF8
03FFFFFFFFF8
03FF80007FF8
03FF80007FF8
03FF80007FF8
03FF80007FF8
03FF80007FF8
03FFFFFFFFF8
03FFFFFFFFF8
03FFFFFFFFF8
03FFFFFFFFF8
03FFFFFFFFF8
03FFFFFFFFF8
03FF80007FF8
03FF80007FF8
03FF80007FF8
03FF80007FF8
03FF80007FF8
03FF80007FF8
03FF80007FF8
03FF80007FF8
03FF80007FF8
03FF80007FF8
03FF80007FF8
03FF80007FF8
03FF80007FF8
03FF80007FF8
03FF80007FF8
03FF80007FF8
03FF80007FF8
03FF80007FF8
03FF80007FF8
03FF80007FF8
03FF80007FF8
03FF80007FF8
03FF800FFFF8
03FF800FFFF8
03FF800FFFF8
03FF800FFFF8
03FF800FFFF8
03FF800FFFF8
FFFF800FFFF8
FFFF800FFFF8
FFFF800FFFF8
FFFF800FFFF8
FFFF800FFFF8
FFFF800FFFF8
FFFF800FFE00
FFFF800FFE00
FFFF800FFE00
FFFF800FFE00
FFFF800FFE00
FFE000000000
FFE000000000
FFE000000000
FFE000000000
FFE000000000
FFE000000000
ENDCHAR
STARTCHAR 000F
ENCODING 15
SWIDTH 506 0
DWIDTH 45 0
BBX 45 50 0 11
BITMAP
00007FF00000
00007FF00000
00007FF00000
00007FF00000
00007FF00000
00007FF00000
00007FF00000
00007FF00000
00007FF00000
00007FF00000
00007FF00000
FFE07FF03FF8
FFE07FF03FF8
FFE07FF03FF8
FFE07FF03FF8
FFE07FF03FF8
FFFFFFF03FF8
001FFFFFC000
001FFFFFC000
001FFFFFC000
001FFFFFC000
001FFFFFC000
FFFF800FFFF8
FFFF800FFFF8
FFFF800FFFF8
FFFF800FFFF8
FFFF800FFFF8
FFFF800FFFF8
001FFFFFC000
001FFFFFC000
001FFFFFC000
001FFFFFC000
001FFFFFC000
FFE07FF03FF8
FFE07FF03FF8
FFE07FF03FF8
FFE07FF03FF8
FFE07FF03FF8
FFE07FF03FF8
00007FF00000
00007FF00000
00007FF00000
00007FF00000
00007FF00000
00007FF00000
00007FF00000
00007FF00000
00007FF00000
00007FF00000
00007FF00000
ENDCHAR
STARTCHAR 0010
ENCODING 16
SWIDTH 506 0
DWIDTH 45 0
BBX 39 61 0 11
BITMAP
FC00000000
FC00000000
FC00000000
FC00000000
FC00000000
FFE0000000
FFE0000000
FFE0000000
FFE0000000
FFE0000000
FFE0000000
FFFF800000
FFFF800000
FFFF800000
FFFF800000
FFFF800000
FFFF800000
FFFFFC0000
FFFFFC0000
FFFFFC0000
FFFFFC0000
FFFFFC0000
FFFFFFF000
FFFFFFF000
FFFFFFF000
FFFFFFF000
FFFFFFF000
FFFFFFF000
FFFFFFFFFE
FFFFFFFFFE
FFFFFFFFFE
FFFFFFFFFE
FFFFFFFFFE
FFFFFFF000
FFFFFFF000
FFFFFFF000
FFFFFFF000
FFFFFFF000
FFFFFFF000
FFFFFC0000
FFFFFC0000
FFFFFC0000
FFFFFC0000
FFFFFC0000
FFFF800000
FFFF800000
FFFF800000
FFFF800000
FFFF800000
FFFF800000
FFE0000000
FFE0000000
FFE0000000
FFE0000000
FFE0000000
FC00000000
FC00000000
FC00000000
FC00000000
FC00000000
FC00000000
ENDCHAR
STARTCHAR 0011
ENCODING 17
SWIDTH 506 0
DWIDTH 45 0
BBX 39 61 0 11
BITMAP
000000007E
000000007E
000000007E
000000007E
000000007E
0000000FFE
0000000FFE
0000000FFE
0000000FFE
0000000FFE
0000000FFE
000003FFFE
000003FFFE
000003FFFE
000003FFFE
000003FFFE
00007FFFFE
00007FFFFE
00007FFFFE
00007FFFFE
00007FFFFE
00007FFFFE
001FFFFFFE
001FFFFFFE
001FFFFFFE
001FFFFFFE
001FFFFFFE
001FFFFFFE
FFFFFFFFFE
FFFFFFFFFE
FFFFFFFFFE
FFFFFFFFFE
FFFFFFFFFE
001FFFFFFE
001FFFFFFE
001FFFFFFE
001FFFFFFE
001FFFFFFE
001FFFFFFE
00007FFFFE
00007FFFFE
00007FFFFE
00007FFFFE
00007FFFFE
000003FFFE
000003FFFE
000003FFFE
000003FFFE
000003FFFE
000003FFFE
0000000FFE
0000000FFE
0000000FFE
0000000FFE
0000000FFE
000000007E
000000007E
000000007E
000000007E
000000007E
000000007E
ENDCHAR
STARTCHAR 0012
ENCODING 18
SWIDTH 506 0
DWIDTH 45 0
BBX 33 50 6 17
BITMAP
001FFC0000
001FFC0000
001FFC0000
001FFC0000
001FFC0000
001FFC0000
07FFFFE000
07FFFFE000
07FFFFE000
07FFFFE000
07FFFFE000
FFFFFFFF80
FFFFFFFF80
FFFFFFFF80
FFFFFFFF80
FFFFFFFF80
FFFFFFFF80
001FFC0000
001FFC0000
001FFC0000
001FFC0000
001FFC0000
001FFC0000
001FFC0000
001FFC0000
001FFC0000
001FFC0000
001FFC0000
001FFC0000
001FFC0000
001FFC0000
001FFC0000
001FFC0000
001FFC0000
FFFFFFFF80
FFFFFFFF80
FFFFFFFF80
FFFFFFFF80
FFFFFFFF80
07FFFFE000
07FFFFE000
07FFFFE000
07FFFFE000
07FFFFE000
07FFFFE000
001FFC0000
001FFC0000
001FFC0000
001FFC0000
001FFC0000
ENDCHAR
STARTCHAR 0013
ENCODING 19
SWIDTH 506 0
DWIDTH 45 0
BBX 33 56 6 11
BITMAP
FFE003FF80
FFE003FF80
FFE003FF80
FFE003FF80
FFE003FF80
FFE003FF80
FFE003FF80
FFE003FF80
FFE003FF80
FFE003FF80
FFE003FF80
FFE003FF80
FFE003FF80
FFE003FF80
FFE003FF80
FFE003FF80
FFE003FF80
FFE003FF80
FFE003FF80
FFE003FF80
FFE003FF80
FFE003FF80
FFE003FF80
FFE003FF80
FFE003FF80
FFE003FF80
FFE003FF80
FFE003FF80
FFE003FF80
FFE003FF80
FFE003FF80
FFE003FF80
FFE003FF80
FFE003FF80
FFE003FF80
FFE003FF80
FFE003FF80
FFE003FF80
FFE003FF80
0000000000
0000000000
0000000000
0000000000
0000000000
0000000000
FFE003FF80
FFE003FF80
FFE003FF80
FFE003FF80
FFE003FF80
FFE003FF80
FFE003FF80
FFE003FF80
FFE003FF80
FFE003FF80
FFE003FF80
ENDCHAR
STARTCHAR 0014
ENCODING 20
SWIDTH 506 0
DWIDTH 45 0
BBX 44 56 0 11
BITMAP
03FFFFFFFFF0
03FFFFFFFFF0
03FFFFFFFFF0
03FFFFFFFFF0
03FFFFFFFFF0
03FFFFFFFFF0
FFE07FF07FF0
FFE07FF07FF0
FFE07FF07FF0
FFE07FF07FF0
FFE07FF07FF0
FFE07FF07FF0
FFE07FF07FF0
FFE07FF07FF0
FFE07FF07FF0
FFE07FF07FF0
FFE07FF07FF0
FFE07FF07FF0
FFE07FF07FF0
FFE07FF07FF0
FFE07FF07FF0
FFE07FF07FF0
03FFFFF07FF0
03FFFFF07FF0
03FFFFF07FF0
03FFFFF07FF0
03FFFFF07FF0
03FFFFF07FF0
00007FF07FF0
00007FF07FF0
00007FF07FF0
00007FF07FF0
00007FF07FF0
00007FF07FF0
00007FF07FF0
00007FF07FF0
00007FF07FF0
00007FF07FF0
00007FF07FF0
00007FF07FF0
00007FF07FF0
00007FF07FF0
00007FF07FF0
00007FF07FF0
00007FF07FF0
00007FF07FF0
00007FF07FF0
00007FF07FF0
00007FF07FF0
00007FF07FF0
00007FF07FF0
00007FF07FF0
00007FF07FF0
00007FF07FF0
00007FF07FF0
00007FF07FF0
ENDCHAR
STARTCHAR 0015
ENCODING 21
SWIDTH 506 0
DWIDTH 45 0
BBX 39 68 0 5
BITMAP
03FFFFFF80
03FFFFFF80
03FFFFFF80
03FFFFFF80
03FFFFFF80
03FFFFFF80
FFE0000FFE
FFE0000FFE
FFE0000FFE
FFE0000FFE
FFE0000FFE
FFE0000FFE
03FF800000
03FF800000
03FF800000
03FF800000
03FF800000
001FFFF000
001FFFF000
001FFFF000
001FFFF000
001FFFF000
001FFFF000
03FF83FF80
03FF83FF80
03FF83FF80
03FF83FF80
03FF83FF80
03FF83FF80
FFE0000FFE
FFE0000FFE
FFE0000FFE
FFE0000FFE
FFE0000FFE
FFE0000FFE
FFE0000FFE
FFE0000FFE
FFE0000FFE
FFE0000FFE
03FF83FF80
03FF83FF80
03FF83FF80
03FF83FF80
03FF83FF80
03FF83FF80
001FFFF000
001FFFF000
001FFFF000
001FFFF000
001FFFF000
001FFFF000
000003FF80
000003FF80
000003FF80
000003FF80
000003FF80
FFE0000FFE
FFE0000FFE
FFE0000FFE
FFE0000FFE
FFE0000FFE
FFE0000FFE
03FFFFFF80
03FFFFFF80
03FFFFFF80
03FFFFFF80
03FFFFFF80
03FFFFFF80
ENDCHAR
STARTCHAR 0016
ENCODING 22
SWIDTH 506 0
DWIDTH 45 0
BBX 39 22 0 11
BITMAP
FFFFFFFFFE
FFFFFFFFFE
FFFFFFFFFE
FFFFFFFFFE
FFFFFFFFFE
FFFFFFFFFE
FFFFFFFFFE
FFFFFFFFFE
FFFFFFFFFE
FFFFFFFFFE
FFFFFFFFFE
FFFFFFFFFE
FFFFFFFFFE
FFFFFFFFFE
FFFFFFFFFE
FFFFFFFFFE
FFFFFFFFFE
FFFFFFFFFE
FFFFFFFFFE
FFFFFFFFFE
FFFFFFFFFE
FFFFFFFFFE
ENDCHAR
STARTCHAR 0017
ENCODING 23
SWIDTH 506 0
DWIDTH 45 0
BBX 33 56 6 11
BITMAP
001FFC0000
001FFC0000
001FFC0000
001FFC0000
001FFC0000
001FFC0000
07FFFFE000
07FFFFE000
07FFFFE000
07FFFFE000
07FFFFE000
FFFFFFFF80
FFFFFFFF80
FFFFFFFF80
FFFFFFFF80
FFFFFFFF80
FFFFFFFF80
001FFC0000
001FFC0000
001FFC0000
001FFC0000
001FFC0000
001FFC0000
001FFC0000
001FFC0000
001FFC0000
001FFC0000
001FFC0000
001FFC0000
001FFC0000
001FFC0000
001FFC0000
001FFC0000
FFFFFFFF80
FFFFFFFF80
FFFFFFFF80
FFFFFFFF80
FFFFFFFF80
FFFFFFFF80
07FFFFE000
07FFFFE000
07FFFFE000
07FFFFE000
07FFFFE000
07FFFFE000
001FFC0000
001FFC0000
001FFC0000
001FFC0000
001FFC0000
FFFFFFFF80
FFFFFFFF80
FFFFFFFF80
FFFFFFFF80
FFFFFFFF80
FFFFFFFF80
ENDCHAR
STARTCHAR 0018
ENCODING 24
SWIDTH 506 0
DWIDTH 45 0
BBX 33 56 6 11
BITMAP
001FFC0000
001FFC0000
001FFC0000
001FFC0000
001FFC0000
001FFC0000
07FFFFE000
07FFFFE000
07FFFFE000
07FFFFE000
07FFFFE000
FFFFFFFF80
FFFFFFFF80
FFFFFFFF80
FFFFFFFF80
FFFFFFFF80
FFFFFFFF80
001FFC0000
001FFC0000
001FFC0000
001FFC0000
001FFC0000
001FFC0000
001FFC0000
001FFC0000
001FFC0000
001FFC0000
001FFC0000
001FFC0000
001FFC0000
001FFC0000
001FFC0000
001FFC0000
001FFC0000
001FFC0000
001FFC0000
001FFC0000
001FFC0000
001FFC0000
001FFC0000
001FFC0000
001FFC0000
001FFC0000
001FFC0000
001FFC0000
001FFC0000
001FFC0000
001FFC0000
001FFC0000
001FFC0000
001FFC0000
001FFC0000
001FFC0000
001FFC0000
001FFC0000
001FFC0000
ENDCHAR
STARTCHAR 0019
ENCODING 25
SWIDTH 506 0
DWIDTH 45 0
BBX 33 56 6 11
BITMAP
001FFC0000
001FFC0000
001FFC0000
001FFC0000
001FFC0000
001FFC0000
001FFC0000
001FFC0000
001FFC0000
001FFC0000
001FFC0000
001FFC0000
001FFC0000
001FFC0000
001FFC0000
001FFC0000
001FFC0000
001FFC0000
001FFC0000
001FFC0000
001FFC0000
001FFC0000
001FFC0000
001FFC0000
001FFC0000
001FFC0000
001FFC0000
001FFC0000
001FFC0000
001FFC0000
001FFC0000
001FFC0000
001FFC0000
001FFC0000
001FFC0000
001FFC0000
001FFC0000
001FFC0000
001FFC0000
FFFFFFFF80
FFFFFFFF80
FFFFFFFF80
FFFFFFFF80
FFFFFFFF80
FFFFFFFF80
07FFFFE000
07FFFFE000
07FFFFE000
07FFFFE000
07FFFFE000
001FFC0000
001FFC0000
001FFC0000
001FFC0000
001FFC0000
001FFC0000
ENDCHAR
STARTCHAR 001A
ENCODING 26
SWIDTH 506 0
DWIDTH 45 0
BBX 39 28 0 22
BITMAP
00007FF000
00007FF000
00007FF000
00007FF000
00007FF000
00007FF000
000003FF80
000003FF80
000003FF80
000003FF80
000003FF80
FFFFFFFFFE
FFFFFFFFFE
FFFFFFFFFE
FFFFFFFFFE
FFFFFFFFFE
FFFFFFFFFE
000003FF80
000003FF80
000003FF80
000003FF80
000003FF80
00007FF000
00007FF000
00007FF000
00007FF000
00007FF000
00007FF000
ENDCHAR
STARTCHAR 001B
ENCODING 27
SWIDTH 506 0
DWIDTH 45 0
BBX 39 28 0 22
BITMAP
001FFC0000
001FFC0000
001FFC0000
001FFC0000
001FFC0000
001FFC0000
03FF800000
03FF800000
03FF800000
03FF800000
03FF800000
FFFFFFFFFE
FFFFFFFFFE
FFFFFFFFFE
FFFFFFFFFE
FFFFFFFFFE
FFFFFFFFFE
03FF800000
03FF800000
03FF800000
03FF800000
03FF800000
001FFC0000
001FFC0000
001FFC0000
001FFC0000
001FFC0000
001FFC0000
ENDCHAR
STARTCHAR 001C
ENCODING 28
SWIDTH 506 0
DWIDTH 45 0
BBX 39 23 0 22
BITMAP
FFE0000000
FFE0000000
FFE0000000
FFE0000000
FFE0000000
FFE0000000
FFE0000000
FFE0000000
FFE0000000
FFE0000000
FFE0000000
FFE0000000
FFE0000000
FFE0000000
FFE0000000
FFE0000000
FFE0000000
FFFFFFFFFE
FFFFFFFFFE
FFFFFFFFFE
FFFFFFFFFE
FFFFFFFFFE
FFFFFFFFFE
ENDCHAR
STARTCHAR 001D
ENCODING 29
SWIDTH 506 0
DWIDTH 45 0
BBX 39 28 0 22
BITMAP
001F83F000
001F83F000
001F83F000
001F83F000
001F83F000
001F83F000
03FF83FF80
03FF83FF80
03FF83FF80
03FF83FF80
03FF83FF80
FFFFFFFFFE
FFFFFFFFFE
FFFFFFFFFE
FFFFFFFFFE
FFFFFFFFFE
FFFFFFFFFE
03FF83FF80
03FF83FF80
03FF83FF80
03FF83FF80
03FF83FF80
001F83F000
001F83F000
001F83F000
001F83F000
001F83F000
001F83F000
ENDCHAR
STARTCHAR 001E
ENCODING 30
SWIDTH 506 0
DWIDTH 45 0
BBX 39 39 0 17
BITMAP
00007C0000
00007C0000
00007C0000
00007C0000
00007C0000
00007C0000
001FFFF000
001FFFF000
001FFFF000
001FFFF000
001FFFF000
001FFFF000
001FFFF000
001FFFF000
001FFFF000
001FFFF000
001FFFF000
03FFFFFF80
03FFFFFF80
03FFFFFF80
03FFFFFF80
03FFFFFF80
03FFFFFF80
03FFFFFF80
03FFFFFF80
03FFFFFF80
03FFFFFF80
03FFFFFF80
FFFFFFFFFE
FFFFFFFFFE
FFFFFFFFFE
FFFFFFFFFE
FFFFFFFFFE
FFFFFFFFFE
FFFFFFFFFE
FFFFFFFFFE
FFFFFFFFFE
FFFFFFFFFE
FFFFFFFFFE
ENDCHAR
STARTCHAR 001F
ENCODING 31
SWIDTH 506 0
DWIDTH 45 0
BBX 39 39 0 17
BITMAP
FFFFFFFFFE
FFFFFFFFFE
FFFFFFFFFE
FFFFFFFFFE
FFFFFFFFFE
FFFFFFFFFE
FFFFFFFFFE
FFFFFFFFFE
FFFFFFFFFE
FFFFFFFFFE
FFFFFFFFFE
03FFFFFF80
03FFFFFF80
03FFFFFF80
03FFFFFF80
03FFFFFF80
03FFFFFF80
03FFFFFF80
03FFFFFF80
03FFFFFF80
03FFFFFF80
03FFFFFF80
001FFFF000
001FFFF000
001FFFF000
001FFFF000
001FFFF000
001FFFF000
001FFFF000
001FFFF000
001FFFF000
001FFFF000
001FFFF000
00007C0000
00007C0000
00007C0000
00007C0000
00007C0000
00007C0000
ENDCHAR
STARTCHAR 0020
ENCODING 32
SWIDTH 506 0
DWIDTH 45 0
BBX 0 0 0 0
BITMAP
ENDCHAR
STARTCHAR 0021
ENCODING 33
SWIDTH 506 0
DWIDTH 45 0
BBX 22 56 11 11
BITMAP
03FF80
03FF80
03FF80
03FF80
03FF80
03FF80
FFFFFC
FFFFFC
FFFFFC
FFFFFC
FFFFFC
FFFFFC
FFFFFC
FFFFFC
FFFFFC
FFFFFC
FFFFFC
FFFFFC
FFFFFC
FFFFFC
FFFFFC
FFFFFC
FFFFFC
03FF80
03FF80
03FF80
03FF80
03FF80
03FF80
03FF80
03FF80
03FF80
03FF80
03FF80
03FF80
03FF80
03FF80
03FF80
03FF80
000000
000000
000000
000000
000000
000000
03FF80
03FF80
03FF80
03FF80
03FF80
03FF80
03FF80
03FF80
03FF80
03FF80
03FF80
ENDCHAR
STARTCHAR 0022
ENCODING 34
SWIDTH 506 0
DWIDTH 45 0
BBX 33 22 6 51
BITMAP
FFE007FF80
FFE007FF80
FFE007FF80
FFE007FF80
FFE007FF80
FFE007FF80
FFE007FF80
FFE007FF80
FFE007FF80
FFE007FF80
FFE007FF80
FFE007FF80
FFE007FF80
FFE007FF80
FFE007FF80
FFE007FF80
FFE007FF80
07E007E000
07E007E000
07E007E000
07E007E000
07E007E000
ENDCHAR
STARTCHAR 0023
ENCODING 35
SWIDTH 506 0
DWIDTH 45 0
BBX 39 50 0 11
BITMAP
03FF81FFC0
03FF81FFC0
03FF81FFC0
03FF81FFC0
03FF81FFC0
03FF81FFC0
03FF81FFC0
03FF81FFC0
03FF81FFC0
03FF81FFC0
03FF81FFC0
FFFFFFFFFE
FFFFFFFFFE
FFFFFFFFFE
FFFFFFFFFE
FFFFFFFFFE
FFFFFFFFFE
03FF81FFC0
03FF81FFC0
03FF81FFC0
03FF81FFC0
03FF81FFC0
03FF81FFC0
03FF81FFC0
03FF81FFC0
03FF81FFC0
03FF81FFC0
03FF81FFC0
03FF81FFC0
03FF81FFC0
03FF81FFC0
03FF81FFC0
03FF81FFC0
FFFFFFFFFE
FFFFFFFFFE
FFFFFFFFFE
FFFFFFFFFE
FFFFFFFFFE
FFFFFFFFFE
03FF81FFC0
03FF81FFC0
03FF81FFC0
03FF81FFC0
03FF81FFC0
03FF81FFC0
03FF81FFC0
03FF81FFC0
03FF81FFC0
03FF81FFC0
03FF81FFC0
ENDCHAR
STARTCHAR 0024
ENCODING 36
SWIDTH 506 0
DWIDTH 45 0
BBX 39 78 0 0
BITMAP
00007FF000
00007FF000
00007FF000
00007FF000
00007FF000
00007FF000
00007FF000
00007FF000
00007FF000
00007FF000
00007FF000
03FFFFFF80
03FFFFFF80
03FFFFFF80
03FFFFFF80
03FFFFFF80
03FFFFFF80
FFE0000FFE
FFE0000FFE
FFE0000FFE
FFE0000FFE
FFE0000FFE
FFE000007E
FFE000007E
FFE000007E
FFE000007E
FFE000007E
FFE000007E
FFE0000000
FFE0000000
FFE0000000
FFE0000000
FFE0000000
03FFFFFF80
03FFFFFF80
03FFFFFF80
03FFFFFF80
03FFFFFF80
03FFFFFF80
0000000FFE
0000000FFE
0000000FFE
0000000FFE
0000000FFE
0000000FFE
0000000FFE
0000000FFE
0000000FFE
0000000FFE
0000000FFE
FC00000FFE
FC00000FFE
FC00000FFE
FC00000FFE
FC00000FFE
FC00000FFE
FFE0000FFE
FFE0000FFE
FFE0000FFE
FFE0000FFE
FFE0000FFE
03FFFFFF80
03FFFFFF80
03FFFFFF80
03FFFFFF80
03FFFFFF80
03FFFFFF80
00007FF000
00007FF000
00007FF000
00007FF000
00007FF000
00007FF000
00007FF000
00007FF000
00007FF000
00007FF000
00007FF000
ENDCHAR
STARTCHAR 0025
ENCODING 37
SWIDTH 506 0
DWIDTH 45 0
BBX 39 44 0 11
BITMAP
FFE000007E
FFE000007E
FFE000007E
FFE000007E
FFE000007E
FFE0000FFE
FFE0000FFE
FFE0000FFE
FFE0000FFE
FFE0000FFE
FFE0000FFE
000003FF80
000003FF80
000003FF80
000003FF80
000003FF80
00007FF000
00007FF000
00007FF000
00007FF000
00007FF000
00007FF000
001FFC0000
001FFC0000
001FFC0000
001FFC0000
001FFC0000
03FF800000
03FF800000
03FF800000
03FF800000
03FF800000
03FF800000
FFE0000FFE
FFE0000FFE
FFE0000FFE
FFE0000FFE
FFE0000FFE
FC00000FFE
FC00000FFE
FC00000FFE
FC00000FFE
FC00000FFE
FC00000FFE
ENDCHAR
STARTCHAR 0026
ENCODING 38
SWIDTH 506 0
DWIDTH 45 0
BBX 38 56 0 11
BITMAP
001FFFF000
001FFFF000
001FFFF000
001FFFF000
001FFFF000
001FFFF000
03FF81FF80
03FF81FF80
03FF81FF80
03FF81FF80
03FF81FF80
03FF81FF80
03FF81FF80
03FF81FF80
03FF81FF80
03FF81FF80
03FF81FF80
001FFFF000
001FFFF000
001FFFF000
001FFFF000
001FFFF000
03FFFE1FFC
03FFFE1FFC
03FFFE1FFC
03FFFE1FFC
03FFFE1FFC
03FFFE1FFC
FFE07FFF80
FFE07FFF80
FFE07FFF80
FFE07FFF80
FFE07FFF80
FFE07FFF80
FFE001FF80
FFE001FF80
FFE001FF80
FFE001FF80
FFE001FF80
FFE001FF80
FFE001FF80
FFE001FF80
FFE001FF80
FFE001FF80
FFE001FF80
FFE001FF80
FFE001FF80
FFE001FF80
FFE001FF80
FFE001FF80
03FFFE1FFC
03FFFE1FFC
03FFFE1FFC
03FFFE1FFC
03FFFE1FFC
03FFFE1FFC
ENDCHAR
STARTCHAR 0027
ENCODING 39
SWIDTH 506 0
DWIDTH 45 0
BBX 11 22 11 51
BITMAP
FFE0
FFE0
FFE0
FFE0
FFE0
FFE0
FFE0
FFE0
FFE0
FFE0
FFE0
FFE0
FFE0
FFE0
FFE0
FFE0
FFE0
FC00
FC00
FC00
FC00
FC00
ENDCHAR
STARTCHAR 0028
ENCODING 40
SWIDTH 506 0
DWIDTH 45 0
BBX 22 56 11 11
BITMAP
001FFC
001FFC
001FFC
001FFC
001FFC
001FFC
03FF80
03FF80
03FF80
03FF80
03FF80
03FF80
FFE000
FFE000
FFE000
FFE000
FFE000
FFE000
FFE000
FFE000
FFE000
FFE000
FFE000
FFE000
FFE000
FFE000
FFE000
FFE000
FFE000
FFE000
FFE000
FFE000
FFE000
FFE000
FFE000
FFE000
FFE000
FFE000
FFE000
FFE000
FFE000
FFE000
FFE000
FFE000
FFE000
03FF80
03FF80
03FF80
03FF80
03FF80
001FFC
001FFC
001FFC
001FFC
001FFC
001FFC
ENDCHAR
STARTCHAR 0029
ENCODING 41
SWIDTH 506 0
DWIDTH 45 0
BBX 22 56 11 11
BITMAP
FFE000
FFE000
FFE000
FFE000
FFE000
FFE000
03FF80
03FF80
03FF80
03FF80
03FF80
03FF80
001FFC
001FFC
001FFC
001FFC
001FFC
001FFC
001FFC
001FFC
001FFC
001FFC
001FFC
001FFC
001FFC
001FFC
001FFC
001FFC
001FFC
001FFC
001FFC
001FFC
001FFC
001FFC
001FFC
001FFC
001FFC
001FFC
001FFC
001FFC
001FFC
001FFC
001FFC
001FFC
001FFC
03FF80
03FF80
03FF80
03FF80
03FF80
FFE000
FFE000
FFE000
FFE000
FFE000
FFE000
ENDCHAR
STARTCHAR 002A
ENCODING 42
SWIDTH 506 0
DWIDTH 45 0
BBX 45 28 0 22
BITMAP
03FF800FFE00
03FF800FFE00
03FF800FFE00
03FF800FFE00
03FF800FFE00
03FFFFFFFE00
001FFFFF8000
001FFFFF8000
001FFFFF8000
001FFFFF8000
001FFFFF8000
FFFFFFFFFFF8
FFFFFFFFFFF8
FFFFFFFFFFF8
FFFFFFFFFFF8
FFFFFFFFFFF8
FFFFFFFFFFF8
001FFFFF8000
001FFFFF8000
001FFFFF8000
001FFFFF8000
001FFFFF8000
03FF800FFE00
03FF800FFE00
03FF800FFE00
03FF800FFE00
03FF800FFE00
03FF800FFE00
ENDCHAR
STARTCHAR 002B
ENCODING 43
SWIDTH 506 0
DWIDTH 45 0
BBX 33 28 6 22
BITMAP
001FFC0000
001FFC0000
001FFC0000
001FFC0000
001FFC0000
001FFC0000
001FFC0000
001FFC0000
001FFC0000
001FFC0000
001FFC0000
FFFFFFFF80
FFFFFFFF80
FFFFFFFF80
FFFFFFFF80
FFFFFFFF80
FFFFFFFF80
001FFC0000
001FFC0000
001FFC0000
001FFC0000
001FFC0000
001FFC0000
001FFC0000
001FFC0000
001FFC0000
001FFC0000
001FFC0000
ENDCHAR
STARTCHAR 002C
ENCODING 44
SWIDTH 506 0
DWIDTH 45 0
BBX 17 23 11 5
BITMAP
03FF80
03FF80
03FF80
03FF80
03FF80
03FF80
03FF80
03FF80
03FF80
03FF80
03FF80
03FF80
03FF80
03FF80
03FF80
03FF80
03FF80
FFE000
FFE000
FFE000
FFE000
FFE000
FFE000
ENDCHAR
STARTCHAR 002D
ENCODING 45
SWIDTH 506 0
DWIDTH 45 0
BBX 39 6 0 33
BITMAP
FFFFFFFFFE
FFFFFFFFFE
FFFFFFFFFE
FFFFFFFFFE
FFFFFFFFFE
FFFFFFFFFE
ENDCHAR
STARTCHAR 002E
ENCODING 46
SWIDTH 506 0
DWIDTH 45 0
BBX 11 11 17 11
BITMAP
FFE0
FFE0
FFE0
FFE0
FFE0
FFE0
FFE0
FFE0
FFE0
FFE0
FFE0
ENDCHAR
STARTCHAR 002F
ENCODING 47
SWIDTH 506 0
DWIDTH 45 0
BBX 39 44 0 11
BITMAP
000000007E
000000007E
000000007E
000000007E
000000007E
0000000FFE
0000000FFE
0000000FFE
0000000FFE
0000000FFE
0000000FFE
000003FF80
000003FF80
000003FF80
000003FF80
000003FF80
00007FF000
00007FF000
00007FF000
00007FF000
00007FF000
00007FF000
001FFC0000
001FFC0000
001FFC0000
001FFC0000
001FFC0000
03FF800000
03FF800000
03FF800000
03FF800000
03FF800000
03FF800000
FFE0000000
FFE0000000
FFE0000000
FFE0000000
FFE0000000
FC00000000
FC00000000
FC00000000
FC00000000
FC00000000
FC00000000
ENDCHAR
STARTCHAR 0030
ENCODING 48
SWIDTH 506 0
DWIDTH 45 0
BBX 39 56 0 11
BITMAP
001FFFF000
001FFFF000
001FFFF000
001FFFF000
001FFFF000
001FFFF000
03FF83FF80
03FF83FF80
03FF83FF80
03FF83FF80
03FF83FF80
03FF83FF80
FFE0000FFE
FFE0000FFE
FFE0000FFE
FFE0000FFE
FFE0000FFE
FFE0000FFE
FFE0000FFE
FFE0000FFE
FFE0000FFE
FFE0000FFE
FFE0000FFE
FFE07C0FFE
FFE07C0FFE
FFE07C0FFE
FFE07C0FFE
FFE07C0FFE
FFE07C0FFE
FFE07C0FFE
FFE07C0FFE
FFE07C0FFE
FFE07C0FFE
FFE07C0FFE
FFE0000FFE
FFE0000FFE
FFE0000FFE
FFE0000FFE
FFE0000FFE
FFE0000FFE
FFE0000FFE
FFE0000FFE
FFE0000FFE
FFE0000FFE
FFE0000FFE
03FF83FF80
03FF83FF80
03FF83FF80
03FF83FF80
03FF83FF80
001FFFF000
001FFFF000
001FFFF000
001FFFF000
001FFFF000
001FFFF000
ENDCHAR
STARTCHAR 0031
ENCODING 49
SWIDTH 506 0
DWIDTH 45 0
BBX 33 56 6 11
BITMAP
001FFC0000
001FFC0000
001FFC0000
001FFC0000
001FFC0000
001FFC0000
07FFFC0000
07FFFC0000
07FFFC0000
07FFFC0000
07FFFC0000
FFFFFC0000
FFFFFC0000
FFFFFC0000
FFFFFC0000
FFFFFC0000
FFFFFC0000
001FFC0000
001FFC0000
001FFC0000
001FFC0000
001FFC0000
001FFC0000
001FFC0000
001FFC0000
001FFC0000
001FFC0000
001FFC0000
001FFC0000
001FFC0000
001FFC0000
001FFC0000
001FFC0000
001FFC0000
001FFC0000
001FFC0000
001FFC0000
001FFC0000
001FFC0000
001FFC0000
001FFC0000
001FFC0000
001FFC0000
001FFC0000
001FFC0000
001FFC0000
001FFC0000
001FFC0000
001FFC0000
001FFC0000
FFFFFFFF80
FFFFFFFF80
FFFFFFFF80
FFFFFFFF80
FFFFFFFF80
FFFFFFFF80
ENDCHAR
STARTCHAR 0032
ENCODING 50
SWIDTH 506 0
DWIDTH 45 0
BBX 39 56 0 11
BITMAP
03FFFFFF80
03FFFFFF80
03FFFFFF80
03FFFFFF80
03FFFFFF80
03FFFFFF80
FFE0000FFE
FFE0000FFE
FFE0000FFE
FFE0000FFE
FFE0000FFE
FFE0000FFE
0000000FFE
0000000FFE
0000000FFE
0000000FFE
0000000FFE
000003FF80
000003FF80
000003FF80
000003FF80
000003FF80
000003FF80
00007FF000
00007FF000
00007FF000
00007FF000
00007FF000
001FFC0000
001FFC0000
001FFC0000
001FFC0000
001FFC0000
001FFC0000
03FF800000
03FF800000
03FF800000
03FF800000
03FF800000
FFE0000000
FFE0000000
FFE0000000
FFE0000000
FFE0000000
FFE0000000
FFE0000FFE
FFE0000FFE
FFE0000FFE
FFE0000FFE
FFE0000FFE
FFFFFFFFFE
FFFFFFFFFE
FFFFFFFFFE
FFFFFFFFFE
FFFFFFFFFE
FFFFFFFFFE
ENDCHAR
STARTCHAR 0033
ENCODING 51
SWIDTH 506 0
DWIDTH 45 0
BBX 39 56 0 11
BITMAP
07FFFFFF80
07FFFFFF80
07FFFFFF80
07FFFFFF80
07FFFFFF80
07FFFFFF80
FFE0000FFE
FFE0000FFE
FFE0000FFE
FFE0000FFE
FFE0000FFE
FFE0000FFE
0000000FFE
0000000FFE
0000000FFE
0000000FFE
0000000FFE
0000000FFE
0000000FFE
0000000FFE
0000000FFE
0000000FFE
001FFFFF80
001FFFFF80
001FFFFF80
001FFFFF80
001FFFFF80
001FFFFF80
0000000FFE
0000000FFE
0000000FFE
0000000FFE
0000000FFE
0000000FFE
0000000FFE
0000000FFE
0000000FFE
0000000FFE
0000000FFE
0000000FFE
0000000FFE
0000000FFE
0000000FFE
0000000FFE
0000000FFE
FFE0000FFE
FFE0000FFE
FFE0000FFE
FFE0000FFE
FFE0000FFE
07FFFFFF80
07FFFFFF80
07FFFFFF80
07FFFFFF80
07FFFFFF80
07FFFFFF80
ENDCHAR
STARTCHAR 0034
ENCODING 52
SWIDTH 506 0
DWIDTH 45 0
BBX 39 56 0 11
BITMAP
000003FF80
000003FF80
000003FF80
000003FF80
000003FF80
000003FF80
00007FFF80
00007FFF80
00007FFF80
00007FFF80
00007FFF80
00007FFF80
001FFFFF80
001FFFFF80
001FFFFF80
001FFFFF80
001FFFFF80
03FF83FF80
03FF83FF80
03FF83FF80
03FF83FF80
03FF83FF80
03FF83FF80
FFE003FF80
FFE003FF80
FFE003FF80
FFE003FF80
FFE003FF80
FFFFFFFFFE
FFFFFFFFFE
FFFFFFFFFE
FFFFFFFFFE
FFFFFFFFFE
FFFFFFFFFE
000003FF80
000003FF80
000003FF80
000003FF80
000003FF80
000003FF80
000003FF80
000003FF80
000003FF80
000003FF80
000003FF80
000003FF80
000003FF80
000003FF80
000003FF80
000003FF80
00007FFFFE
00007FFFFE
00007FFFFE
00007FFFFE
00007FFFFE
00007FFFFE
ENDCHAR
STARTCHAR 0035
ENCODING 53
SWIDTH 506 0
DWIDTH 45 0
BBX 39 56 0 11
BITMAP
FFFFFFFFFE
FFFFFFFFFE
FFFFFFFFFE
FFFFFFFFFE
FFFFFFFFFE
FFFFFFFFFE
FFE0000000
FFE0000000
FFE0000000
FFE0000000
FFE0000000
FFE0000000
FFE0000000
FFE0000000
FFE0000000
FFE0000000
FFE0000000
FFE0000000
FFE0000000
FFE0000000
FFE0000000
FFE0000000
FFFFFFFF80
FFFFFFFF80
FFFFFFFF80
FFFFFFFF80
FFFFFFFF80
FFFFFFFF80
0000000FFE
0000000FFE
0000000FFE
0000000FFE
0000000FFE
0000000FFE
0000000FFE
0000000FFE
0000000FFE
0000000FFE
0000000FFE
0000000FFE
0000000FFE
0000000FFE
0000000FFE
0000000FFE
0000000FFE
FFE0000FFE
FFE0000FFE
FFE0000FFE
FFE0000FFE
FFE0000FFE
07FFFFFF80
07FFFFFF80
07FFFFFF80
07FFFFFF80
07FFFFFF80
07FFFFFF80
ENDCHAR
STARTCHAR 0036
ENCODING 54
SWIDTH 506 0
DWIDTH 45 0
BBX 39 56 0 11
BITMAP
001FFFF000
001FFFF000
001FFFF000
001FFFF000
001FFFF000
001FFFF000
03FF800000
03FF800000
03FF800000
03FF800000
03FF800000
FFE0000000
FFE0000000
FFE0000000
FFE0000000
FFE0000000
FFE0000000
FFE0000000
FFE0000000
FFE0000000
FFE0000000
FFE0000000
FFFFFFFFC0
FFFFFFFFC0
FFFFFFFFC0
FFFFFFFFC0
FFFFFFFFC0
FFFFFFFFC0
FFE0000FFE
FFE0000FFE
FFE0000FFE
FFE0000FFE
FFE0000FFE
FFE0000FFE
FFE0000FFE
FFE0000FFE
FFE0000FFE
FFE0000FFE
FFE0000FFE
FFE0000FFE
FFE0000FFE
FFE0000FFE
FFE0000FFE
FFE0000FFE
FFE0000FFE
FFE0000FFE
FFE0000FFE
FFE0000FFE
FFE0000FFE
FFE0000FFE
03FFFFFFC0
03FFFFFFC0
03FFFFFFC0
03FFFFFFC0
03FFFFFFC0
03FFFFFFC0
ENDCHAR
STARTCHAR 0037
ENCODING 55
SWIDTH 506 0
DWIDTH 45 0
BBX 39 56 0 11
BITMAP
FFFFFFFFFE
FFFFFFFFFE
FFFFFFFFFE
FFFFFFFFFE
FFFFFFFFFE
FFFFFFFFFE
FFE0000FFE
FFE0000FFE
FFE0000FFE
FFE0000FFE
FFE0000FFE
0000000FFE
0000000FFE
0000000FFE
0000000FFE
0000000FFE
0000000FFE
0000000FFE
0000000FFE
0000000FFE
0000000FFE
0000000FFE
0000000FFE
000003FF80
000003FF80
000003FF80
000003FF80
000003FF80
00007FFF80
00007FF000
00007FF000
00007FF000
00007FF000
00007FF000
001FFC0000
001FFC0000
001FFC0000
001FFC0000
001FFC0000
001FFC0000
001FFC0000
001FFC0000
001FFC0000
001FFC0000
001FFC0000
001FFC0000
001FFC0000
001FFC0000
001FFC0000
001FFC0000
001FFC0000
001FFC0000
001FFC0000
001FFC0000
001FFC0000
001FFC0000
ENDCHAR
STARTCHAR 0038
ENCODING 56
SWIDTH 506 0
DWIDTH 45 0
BBX 39 56 0 11
BITMAP
07FFFFFF80
07FFFFFF80
07FFFFFF80
07FFFFFF80
07FFFFFF80
07FFFFFF80
FFE0000FFE
FFE0000FFE
FFE0000FFE
FFE0000FFE
FFE0000FFE
FFE0000FFE
FFE0000FFE
FFE0000FFE
FFE0000FFE
FFE0000FFE
FFE0000FFE
FFE0000FFE
FFE0000FFE
FFE0000FFE
FFE0000FFE
FFE0000FFE
07FFFFFF80
07FFFFFF80
07FFFFFF80
07FFFFFF80
07FFFFFF80
07FFFFFF80
FFE0000FFE
FFE0000FFE
FFE0000FFE
FFE0000FFE
FFE0000FFE
FFE0000FFE
FFE0000FFE
FFE0000FFE
FFE0000FFE
FFE0000FFE
FFE0000FFE
FFE0000FFE
FFE0000FFE
FFE0000FFE
FFE0000FFE
FFE0000FFE
FFE0000FFE
FFE0000FFE
FFE0000FFE
FFE0000FFE
FFE0000FFE
FFE0000FFE
07FFFFFF80
07FFFFFF80
07FFFFFF80
07FFFFFF80
07FFFFFF80
07FFFFFF80
ENDCHAR
STARTCHAR 0039
ENCODING 57
SWIDTH 506 0
DWIDTH 45 0
BBX 39 56 0 11
BITMAP
03FFFFFF80
03FFFFFF80
03FFFFFF80
03FFFFFF80
03FFFFFF80
03FFFFFF80
FFE0000FFE
FFE0000FFE
FFE0000FFE
FFE0000FFE
FFE0000FFE
FFE0000FFE
FFE0000FFE
FFE0000FFE
FFE0000FFE
FFE0000FFE
FFE0000FFE
FFE0000FFE
FFE0000FFE
FFE0000FFE
FFE0000FFE
FFE0000FFE
03FFFFFFFE
03FFFFFFFE
03FFFFFFFE
03FFFFFFFE
03FFFFFFFE
03FFFFFFFE
0000000FFE
0000000FFE
0000000FFE
0000000FFE
0000000FFE
0000000FFE
0000000FFE
0000000FFE
0000000FFE
0000000FFE
0000000FFE
0000000FFE
0000000FFE
0000000FFE
0000000FFE
0000000FFE
0000000FFE
000003FF80
000003FF80
000003FF80
000003FF80
000003FF80
03FFFFF000
03FFFFF000
03FFFFF000
03FFFFF000
03FFFFF000
03FFFFF000
ENDCHAR
STARTCHAR 003A
ENCODING 58
SWIDTH 506 0
DWIDTH 45 0
BBX 11 39 17 17
BITMAP
FFE0
FFE0
FFE0
FFE0
FFE0
FFE0
FFE0
FFE0
FFE0
FFE0
FFE0
0000
0000
0000
0000
0000
0000
0000
0000
0000
0000
0000
0000
0000
0000
0000
0000
0000
FFE0
FFE0
FFE0
FFE0
FFE0
FFE0
FFE0
FFE0
FFE0
FFE0
FFE0
ENDCHAR
STARTCHAR 003B
ENCODING 59
SWIDTH 506 0
DWIDTH 45 0
BBX 17 44 11 11
BITMAP
03FF80
03FF80
03FF80
03FF80
03FF80
03FF80
03FF80
03FF80
03FF80
03FF80
03FF80
000000
000000
000000
000000
000000
000000
000000
000000
000000
000000
000000
000000
000000
000000
000000
000000
03FF80
03FF80
03FF80
03FF80
03FF80
03FF80
03FF80
03FF80
03FF80
03FF80
03FF80
FFE000
FFE000
FFE000
FFE000
FFE000
FFE000
ENDCHAR
STARTCHAR 003C
ENCODING 60
SWIDTH 506 0
DWIDTH 45 0
BBX 33 50 6 11
BITMAP
000003FF80
000003FF80
000003FF80
000003FF80
000003FF80
000003FF80
00007FF000
00007FF000
00007FF000
00007FF000
00007FF000
001FFC0000
001FFC0000
001FFC0000
001FFC0000
001FFC0000
001FFC0000
03FF800000
03FF800000
03FF800000
03FF800000
03FF800000
FFE0000000
FFE0000000
FFE0000000
FFE0000000
FFE0000000
FFE0000000
03FF800000
03FF800000
03FF800000
03FF800000
03FF800000
001FFC0000
001FFC0000
001FFC0000
001FFC0000
001FFC0000
001FFC0000
00007FF000
00007FF000
00007FF000
00007FF000
00007FF000
000003FF80
000003FF80
000003FF80
000003FF80
000003FF80
000003FF80
ENDCHAR
STARTCHAR 003D
ENCODING 61
SWIDTH 506 0
DWIDTH 45 0
BBX 33 22 6 28
BITMAP
FFFFFFFF80
FFFFFFFF80
FFFFFFFF80
FFFFFFFF80
FFFFFFFF80
FFFFFFFF80
0000000000
0000000000
0000000000
0000000000
0000000000
0000000000
0000000000
0000000000
0000000000
0000000000
FFFFFFFF80
FFFFFFFF80
FFFFFFFF80
FFFFFFFF80
FFFFFFFF80
FFFFFFFF80
ENDCHAR
STARTCHAR 003E
ENCODING 62
SWIDTH 506 0
DWIDTH 45 0
BBX 33 50 6 11
BITMAP
FFE0000000
FFE0000000
FFE0000000
FFE0000000
FFE0000000
FFE0000000
03FF800000
03FF800000
03FF800000
03FF800000
03FF800000
001FFC0000
001FFC0000
001FFC0000
001FFC0000
001FFC0000
001FFC0000
00007FF000
00007FF000
00007FF000
00007FF000
00007FF000
000003FF80
000003FF80
000003FF80
000003FF80
000003FF80
000003FF80
00007FF000
00007FF000
00007FF000
00007FF000
00007FF000
001FFC0000
001FFC0000
001FFC0000
001FFC0000
001FFC0000
001FFC0000
03FF800000
03FF800000
03FF800000
03FF800000
03FF800000
FFE0000000
FFE0000000
FFE0000000
FFE0000000
FFE0000000
FFE0000000
ENDCHAR
STARTCHAR 003F
ENCODING 63
SWIDTH 506 0
DWIDTH 45 0
BBX 39 56 0 11
BITMAP
07FFFFFF80
07FFFFFF80
07FFFFFF80
07FFFFFF80
07FFFFFF80
07FFFFFF80
FFE0000FFE
FFE0000FFE
FFE0000FFE
FFE0000FFE
FFE0000FFE
FFE0000FFE
FFE0000FFE
FFE0000FFE
FFE0000FFE
FFE0000FFE
FFE0000FFE
000003FF80
000003FF80
000003FF80
000003FF80
000003FF80
000003FF80
00007FF000
00007FF000
00007FF000
00007FF000
00007FF000
00007FF000
00007FF000
00007FF000
00007FF000
00007FF000
00007FF000
00007FF000
00007FF000
00007FF000
00007FF000
00007FF000
00007FF000
0000000000
0000000000
0000000000
0000000000
0000000000
00007FF000
00007FF000
00007FF000
00007FF000
00007FF000
00007FF000
00007FF000
00007FF000
00007FF000
00007FF000
00007FF000
ENDCHAR
STARTCHAR 0040
ENCODING 64
SWIDTH 506 0
DWIDTH 45 0
BBX 39 50 0 11
BITMAP
07FFFFFF80
07FFFFFF80
07FFFFFF80
07FFFFFF80
07FFFFFF80
07FFFFFF80
FFE0000FFE
FFE0000FFE
FFE0000FFE
FFE0000FFE
FFE0000FFE
FFE0000FFE
FFE0000FFE
FFE0000FFE
FFE0000FFE
FFE0000FFE
FFE0000FFE
FFE0FFFFFE
FFE0FFFFFE
FFE0FFFFFE
FFE0FFFFFE
FFE0FFFFFE
FFE0FFFFFE
FFE0FFFFFE
FFE0FFFFFE
FFE0FFFFFE
FFE0FFFFFE
FFE0FFFFFE
FFE0FFFFFE
FFE0FFFFFE
FFE0FFFFFE
FFE0FFFFFE
FFE0FFFFFE
FFE0FFFFFE
FFE0FFFF80
FFE0FFFF80
FFE0FFFF80
FFE0FFFF80
FFE0FFFF80
FFE0000000
FFE0000000
FFE0000000
FFE0000000
FFE0000000
07FFFFFF80
07FFFFFF80
07FFFFFF80
07FFFFFF80
07FFFFFF80
07FFFFFF80
ENDCHAR
STARTCHAR 0041
ENCODING 65
SWIDTH 506 0
DWIDTH 45 0
BBX 39 56 0 11
BITMAP
00007C0000
00007C0000
00007C0000
00007C0000
00007C0000
00007C0000
001FFFF000
001FFFF000
001FFFF000
001FFFF000
001FFFF000
03FF83FF80
03FF83FF80
03FF83FF80
03FF83FF80
03FF83FF80
03FF83FF80
FFE0000FFE
FFE0000FFE
FFE0000FFE
FFE0000FFE
FFE0000FFE
FFE0000FFE
FFE0000FFE
FFE0000FFE
FFE0000FFE
FFE0000FFE
FFE0000FFE
FFFFFFFFFE
FFFFFFFFFE
FFFFFFFFFE
FFFFFFFFFE
FFFFFFFFFE
FFFFFFFFFE
FFE0000FFE
FFE0000FFE
FFE0000FFE
FFE0000FFE
FFE0000FFE
FFE0000FFE
FFE0000FFE
FFE0000FFE
FFE0000FFE
FFE0000FFE
FFE0000FFE
FFE0000FFE
FFE0000FFE
FFE0000FFE
FFE0000FFE
FFE0000FFE
FFE0000FFE
FFE0000FFE
FFE0000FFE
FFE0000FFE
FFE0000FFE
FFE0000FFE
ENDCHAR
STARTCHAR 0042
ENCODING 66
SWIDTH 506 0
DWIDTH 45 0
BBX 38 56 0 11
BITMAP
FFFFFFFF80
FFFFFFFF80
FFFFFFFF80
FFFFFFFF80
FFFFFFFF80
FFFFFFFF80
07FF001FFC
07FF001FFC
07FF001FFC
07FF001FFC
07FF001FFC
07FF001FFC
07FF001FFC
07FF001FFC
07FF001FFC
07FF001FFC
07FF001FFC
07FF001FFC
07FF001FFC
07FF001FFC
07FF001FFC
07FF001FFC
07FFFFFF80
07FFFFFF80
07FFFFFF80
07FFFFFF80
07FFFFFF80
07FFFFFF80
07FF001FFC
07FF001FFC
07FF001FFC
07FF001FFC
07FF001FFC
07FF001FFC
07FF001FFC
07FF001FFC
07FF001FFC
07FF001FFC
07FF001FFC
07FF001FFC
07FF001FFC
07FF001FFC
07FF001FFC
07FF001FFC
07FF001FFC
07FF001FFC
07FF001FFC
07FF001FFC
07FF001FFC
07FF001FFC
FFFFFFFF80
FFFFFFFF80
FFFFFFFF80
FFFFFFFF80
FFFFFFFF80
FFFFFFFF80
ENDCHAR
STARTCHAR 0043
ENCODING 67
SWIDTH 506 0
DWIDTH 45 0
BBX 39 56 0 11
BITMAP
001FFFFF80
001FFFFF80
001FFFFF80
001FFFFF80
001FFFFF80
001FFFFF80
03FF800FFE
03FF800FFE
03FF800FFE
03FF800FFE
03FF800FFE
03FF800FFE
FFE000007E
FFE000007E
FFE000007E
FFE000007E
FFE000007E
FFE0000000
FFE0000000
FFE0000000
FFE0000000
FFE0000000
FFE0000000
FFE0000000
FFE0000000
FFE0000000
FFE0000000
FFE0000000
FFE0000000
FFE0000000
FFE0000000
FFE0000000
FFE0000000
FFE0000000
FFE0000000
FFE0000000
FFE0000000
FFE0000000
FFE0000000
FFE000007E
FFE000007E
FFE000007E
FFE000007E
FFE000007E
FFE000007E
03FF800FFE
03FF800FFE
03FF800FFE
03FF800FFE
03FF800FFE
001FFFFF80
001FFFFF80
001FFFFF80
001FFFFF80
001FFFFF80
001FFFFF80
ENDCHAR
STARTCHAR 0044
ENCODING 68
SWIDTH 506 0
DWIDTH 45 0
BBX 39 56 0 11
BITMAP
FFFFFFF000
FFFFFFF000
FFFFFFF000
FFFFFFF000
FFFFFFF000
FFFFFFF000
03FF83FF80
03FF83FF80
03FF83FF80
03FF83FF80
03FF83FF80
03FF83FF80
03FF800FFE
03FF800FFE
03FF800FFE
03FF800FFE
03FF800FFE
03FF800FFE
03FF800FFE
03FF800FFE
03FF800FFE
03FF800FFE
03FF800FFE
03FF800FFE
03FF800FFE
03FF800FFE
03FF800FFE
03FF800FFE
03FF800FFE
03FF800FFE
03FF800FFE
03FF800FFE
03FF800FFE
03FF800FFE
03FF800FFE
03FF800FFE
03FF800FFE
03FF800FFE
03FF800FFE
03FF800FFE
03FF800FFE
03FF800FFE
03FF800FFE
03FF800FFE
03FF800FFE
03FF83FF80
03FF83FF80
03FF83FF80
03FF83FF80
03FF83FF80
FFFFFFF000
FFFFFFF000
FFFFFFF000
FFFFFFF000
FFFFFFF000
FFFFFFF000
ENDCHAR
STARTCHAR 0045
ENCODING 69
SWIDTH 506 0
DWIDTH 45 0
BBX 39 56 1 11
BITMAP
FFFFFFFFFE
FFFFFFFFFE
FFFFFFFFFE
FFFFFFFFFE
FFFFFFFFFE
FFFFFFFFFE
07FF001FFE
07FF001FFE
07FF001FFE
07FF001FFE
07FF001FFE
07FF00007E
07FF00007E
07FF00007E
07FF00007E
07FF00007E
07FF00007E
07FF07E000
07FF07E000
07FF07E000
07FF07E000
07FF07E000
07FFFFE000
07FFFFE000
07FFFFE000
07FFFFE000
07FFFFE000
07FFFFE000
07FF07E000
07FF07E000
07FF07E000
07FF07E000
07FF07E000
07FF07E000
07FF000000
07FF000000
07FF000000
07FF000000
07FF000000
07FF00007E
07FF00007E
07FF00007E
07FF00007E
07FF00007E
07FF00007E
07FF001FFE
07FF001FFE
07FF001FFE
07FF001FFE
07FF001FFE
FFFFFFFFFE
FFFFFFFFFE
FFFFFFFFFE
FFFFFFFFFE
FFFFFFFFFE
FFFFFFFFFE
ENDCHAR
STARTCHAR 0046
ENCODING 70
SWIDTH 506 0
DWIDTH 45 0
BBX 39 56 0 11
BITMAP
FFFFFFFFFE
FFFFFFFFFE
FFFFFFFFFE
FFFFFFFFFE
FFFFFFFFFE
FFFFFFFFFE
03FF800FFE
03FF800FFE
03FF800FFE
03FF800FFE
03FF800FFE
03FF80007E
03FF80007E
03FF80007E
03FF80007E
03FF80007E
03FF80007E
03FF83F000
03FF83F000
03FF83F000
03FF83F000
03FF83F000
03FFFFF000
03FFFFF000
03FFFFF000
03FFFFF000
03FFFFF000
03FFFFF000
03FF83F000
03FF83F000
03FF83F000
03FF83F000
03FF83F000
03FF83F000
03FF800000
03FF800000
03FF800000
03FF800000
03FF800000
03FF800000
03FF800000
03FF800000
03FF800000
03FF800000
03FF800000
03FF800000
03FF800000
03FF800000
03FF800000
03FF800000
FFFFFC0000
FFFFFC0000
FFFFFC0000
FFFFFC0000
FFFFFC0000
FFFFFC0000
ENDCHAR
STARTCHAR 0047
ENCODING 71
SWIDTH 506 0
DWIDTH 45 0
BBX 39 56 0 11
BITMAP
001FFFFF80
001FFFFF80
001FFFFF80
001FFFFF80
001FFFFF80
001FFFFF80
03FF800FFE
03FF800FFE
03FF800FFE
03FF800FFE
03FF800FFE
03FF800FFE
FFE000007E
FFE000007E
FFE000007E
FFE000007E
FFE000007E
FFE0000000
FFE0000000
FFE0000000
FFE0000000
FFE0000000
FFE0000000
FFE0000000
FFE0000000
FFE0000000
FFE0000000
FFE0000000
FFE07FFFFE
FFE07FFFFE
FFE07FFFFE
FFE07FFFFE
FFE07FFFFE
FFE07FFFFE
FFE0000FFE
FFE0000FFE
FFE0000FFE
FFE0000FFE
FFE0000FFE
FFE0000FFE
FFE0000FFE
FFE0000FFE
FFE0000FFE
FFE0000FFE
FFE0000FFE
03FF800FFE
03FF800FFE
03FF800FFE
03FF800FFE
03FF800FFE
001FFFF07E
001FFFF07E
001FFFF07E
001FFFF07E
001FFFF07E
001FFFF07E
ENDCHAR
STARTCHAR 0048
ENCODING 72
SWIDTH 506 0
DWIDTH 45 0
BBX 39 56 0 11
BITMAP
FFE0000FFE
FFE0000FFE
FFE0000FFE
FFE0000FFE
FFE0000FFE
FFE0000FFE
FFE0000FFE
FFE0000FFE
FFE0000FFE
FFE0000FFE
FFE0000FFE
FFE0000FFE
FFE0000FFE
FFE0000FFE
FFE0000FFE
FFE0000FFE
FFE0000FFE
FFE0000FFE
FFE0000FFE
FFE0000FFE
FFE0000FFE
FFE0000FFE
FFFFFFFFFE
FFFFFFFFFE
FFFFFFFFFE
FFFFFFFFFE
FFFFFFFFFE
FFFFFFFFFE
FFE0000FFE
FFE0000FFE
FFE0000FFE
FFE0000FFE
FFE0000FFE
FFE0000FFE
FFE0000FFE
FFE0000FFE
FFE0000FFE
FFE0000FFE
FFE0000FFE
FFE0000FFE
FFE0000FFE
FFE0000FFE
FFE0000FFE
FFE0000FFE
FFE0000FFE
FFE0000FFE
FFE0000FFE
FFE0000FFE
FFE0000FFE
FFE0000FFE
FFE0000FFE
FFE0000FFE
FFE0000FFE
FFE0000FFE
FFE0000FFE
FFE0000FFE
ENDCHAR
STARTCHAR 0049
ENCODING 73
SWIDTH 506 0
DWIDTH 45 0
BBX 22 56 11 11
BITMAP
FFFFFC
FFFFFC
FFFFFC
FFFFFC
FFFFFC
FFFFFC
03FF80
03FF80
03FF80
03FF80
03FF80
03FF80
03FF80
03FF80
03FF80
03FF80
03FF80
03FF80
03FF80
03FF80
03FF80
03FF80
03FF80
03FF80
03FF80
03FF80
03FF80
03FF80
03FF80
03FF80
03FF80
03FF80
03FF80
03FF80
03FF80
03FF80
03FF80
03FF80
03FF80
03FF80
03FF80
03FF80
03FF80
03FF80
03FF80
03FF80
03FF80
03FF80
03FF80
03FF80
FFFFFC
FFFFFC
FFFFFC
FFFFFC
FFFFFC
FFFFFC
ENDCHAR
STARTCHAR 004A
ENCODING 74
SWIDTH 506 0
DWIDTH 45 0
BBX 39 56 0 11
BITMAP
00007FFFFE
00007FFFFE
00007FFFFE
00007FFFFE
00007FFFFE
00007FFFFE
000003FF80
000003FF80
000003FF80
000003FF80
000003FF80
000003FF80
000003FF80
000003FF80
000003FF80
000003FF80
000003FF80
000003FF80
000003FF80
000003FF80
000003FF80
000003FF80
000003FF80
000003FF80
000003FF80
000003FF80
000003FF80
000003FF80
000003FF80
000003FF80
000003FF80
000003FF80
000003FF80
000003FF80
FFE003FF80
FFE003FF80
FFE003FF80
FFE003FF80
FFE003FF80
FFE003FF80
FFE003FF80
FFE003FF80
FFE003FF80
FFE003FF80
FFE003FF80
FFE003FF80
FFE003FF80
FFE003FF80
FFE003FF80
FFE003FF80
03FFFFF000
03FFFFF000
03FFFFF000
03FFFFF000
03FFFFF000
03FFFFF000
ENDCHAR
STARTCHAR 004B
ENCODING 75
SWIDTH 506 0
DWIDTH 45 0
BBX 38 56 1 11
BITMAP
FFFF001FFC
FFFF001FFC
FFFF001FFC
FFFF001FFC
FFFF001FFC
FFFF001FFC
07FF001FFC
07FF001FFC
07FF001FFC
07FF001FFC
07FF001FFC
07FF001FFC
07FF001FFC
07FF001FFC
07FF001FFC
07FF001FFC
07FF001FFC
07FF03FF80
07FF03FF80
07FF03FF80
07FF03FF80
07FF03FF80
07FF03FF80
07FFFFE000
07FFFFE000
07FFFFE000
07FFFFE000
07FFFFE000
07FFFFE000
07FFFFE000
07FFFFE000
07FFFFE000
07FFFFE000
07FFFFE000
07FF03FF80
07FF03FF80
07FF03FF80
07FF03FF80
07FF03FF80
07FF001FFC
07FF001FFC
07FF001FFC
07FF001FFC
07FF001FFC
07FF001FFC
07FF001FFC
07FF001FFC
07FF001FFC
07FF001FFC
07FF001FFC
FFFF001FFC
FFFF001FFC
FFFF001FFC
FFFF001FFC
FFFF001FFC
FFFF001FFC
ENDCHAR
STARTCHAR 004C
ENCODING 76
SWIDTH 506 0
DWIDTH 45 0
BBX 39 56 0 11
BITMAP
FFFFFC0000
FFFFFC0000
FFFFFC0000
FFFFFC0000
FFFFFC0000
FFFFFC0000
03FF800000
03FF800000
03FF800000
03FF800000
03FF800000
03FF800000
03FF800000
03FF800000
03FF800000
03FF800000
03FF800000
03FF800000
03FF800000
03FF800000
03FF800000
03FF800000
03FF800000
03FF800000
03FF800000
03FF800000
03FF800000
03FF800000
03FF800000
03FF800000
03FF800000
03FF800000
03FF800000
03FF800000
03FF800000
03FF800000
03FF800000
03FF800000
03FF800000
03FF80007E
03FF80007E
03FF80007E
03FF80007E
03FF80007E
03FF80007E
03FF801FFE
03FF801FFE
03FF801FFE
03FF801FFE
03FF801FFE
FFFFFFFFFE
FFFFFFFFFE
FFFFFFFFFE
FFFFFFFFFE
FFFFFFFFFE
FFFFFFFFFE
ENDCHAR
STARTCHAR 004D
ENCODING 77
SWIDTH 506 0
DWIDTH 45 0
BBX 39 56 0 11
BITMAP
FFE0000FFE
FFE0000FFE
FFE0000FFE
FFE0000FFE
FFE0000FFE
FFE0000FFE
FFFF83FFFE
FFFF83FFFE
FFFF83FFFE
FFFF83FFFE
FFFF83FFFE
FFFFFFFFFE
FFFFFFFFFE
FFFFFFFFFE
FFFFFFFFFE
FFFFFFFFFE
FFFFFFFFFE
FFFFFFFFFE
FFFFFFFFFE
FFFFFFFFFE
FFFFFFFFFE
FFFFFFFFFE
FFFFFFFFFE
FFE07C0FFE
FFE07C0FFE
FFE07C0FFE
FFE07C0FFE
FFE07C0FFE
FFE0000FFE
FFE0000FFE
FFE0000FFE
FFE0000FFE
FFE0000FFE
FFE0000FFE
FFE0000FFE
FFE0000FFE
FFE0000FFE
FFE0000FFE
FFE0000FFE
FFE0000FFE
FFE0000FFE
FFE0000FFE
FFE0000FFE
FFE0000FFE
FFE0000FFE
FFE0000FFE
FFE0000FFE
FFE0000FFE
FFE0000FFE
FFE0000FFE
FFE0000FFE
FFE0000FFE
FFE0000FFE
FFE0000FFE
FFE0000FFE
FFE0000FFE
ENDCHAR
STARTCHAR 004E
ENCODING 78
SWIDTH 506 0
DWIDTH 45 0
BBX 39 56 0 11
BITMAP
FFE0000FFE
FFE0000FFE
FFE0000FFE
FFE0000FFE
FFE0000FFE
FFE0000FFE
FFFF800FFE
FFFF800FFE
FFFF800FFE
FFFF800FFE
FFFF800FFE
FFFFFC0FFE
FFFFFC0FFE
FFFFFC0FFE
FFFFFC0FFE
FFFFFC0FFE
FFFFFC0FFE
FFFFFFFFFE
FFFFFFFFFE
FFFFFFFFFE
FFFFFFFFFE
FFFFFFFFFE
FFFFFFFFFE
FFE07FFFFE
FFE07FFFFE
FFE07FFFFE
FFE07FFFFE
FFE07FFFFE
FFE003FFFE
FFE003FFFE
FFE003FFFE
FFE003FFFE
FFE003FFFE
FFE003FFFE
FFE0000FFE
FFE0000FFE
FFE0000FFE
FFE0000FFE
FFE0000FFE
FFE0000FFE
FFE0000FFE
FFE0000FFE
FFE0000FFE
FFE0000FFE
FFE0000FFE
FFE0000FFE
FFE0000FFE
FFE0000FFE
FFE0000FFE
FFE0000FFE
FFE0000FFE
FFE0000FFE
FFE0000FFE
FFE0000FFE
FFE0000FFE
FFE0000FFE
ENDCHAR
STARTCHAR 004F
ENCODING 79
SWIDTH 506 0
DWIDTH 45 0
BBX 39 56 0 11
BITMAP
07FFFFFF80
07FFFFFF80
07FFFFFF80
07FFFFFF80
07FFFFFF80
07FFFFFF80
FFE0000FFE
FFE0000FFE
FFE0000FFE
FFE0000FFE
FFE0000FFE
FFE0000FFE
FFE0000FFE
FFE0000FFE
FFE0000FFE
FFE0000FFE
FFE0000FFE
FFE0000FFE
FFE0000FFE
FFE0000FFE
FFE0000FFE
FFE0000FFE
FFE0000FFE
FFE0000FFE
FFE0000FFE
FFE0000FFE
FFE0000FFE
FFE0000FFE
FFE0000FFE
FFE0000FFE
FFE0000FFE
FFE0000FFE
FFE0000FFE
FFE0000FFE
FFE0000FFE
FFE0000FFE
FFE0000FFE
FFE0000FFE
FFE0000FFE
FFE0000FFE
FFE0000FFE
FFE0000FFE
FFE0000FFE
FFE0000FFE
FFE0000FFE
FFE0000FFE
FFE0000FFE
FFE0000FFE
FFE0000FFE
FFE0000FFE
07FFFFFF80
07FFFFFF80
07FFFFFF80
07FFFFFF80
07FFFFFF80
07FFFFFF80
ENDCHAR
STARTCHAR 0050
ENCODING 80
SWIDTH 506 0
DWIDTH 45 0
BBX 39 56 0 11
BITMAP
FFFFFFFF80
FFFFFFFF80
FFFFFFFF80
FFFFFFFF80
FFFFFFFF80
FFFFFFFF80
03FF800FFE
03FF800FFE
03FF800FFE
03FF800FFE
03FF800FFE
03FF800FFE
03FF800FFE
03FF800FFE
03FF800FFE
03FF800FFE
03FF800FFE
03FF800FFE
03FF800FFE
03FF800FFE
03FF800FFE
03FF800FFE
03FFFFFF80
03FFFFFF80
03FFFFFF80
03FFFFFF80
03FFFFFF80
03FFFFFF80
03FF800000
03FF800000
03FF800000
03FF800000
03FF800000
03FF800000
03FF800000
03FF800000
03FF800000
03FF800000
03FF800000
03FF800000
03FF800000
03FF800000
03FF800000
03FF800000
03FF800000
03FF800000
03FF800000
03FF800000
03FF800000
03FF800000
FFFFFC0000
FFFFFC0000
FFFFFC0000
FFFFFC0000
FFFFFC0000
FFFFFC0000
ENDCHAR
STARTCHAR 0051
ENCODING 81
SWIDTH 506 0
DWIDTH 45 0
BBX 39 67 0 0
BITMAP
07FFFFFF80
07FFFFFF80
07FFFFFF80
07FFFFFF80
07FFFFFF80
07FFFFFF80
FFE0000FFE
FFE0000FFE
FFE0000FFE
FFE0000FFE
FFE0000FFE
FFE0000FFE
FFE0000FFE
FFE0000FFE
FFE0000FFE
FFE0000FFE
FFE0000FFE
FFE0000FFE
FFE0000FFE
FFE0000FFE
FFE0000FFE
FFE0000FFE
FFE0000FFE
FFE0000FFE
FFE0000FFE
FFE0000FFE
FFE0000FFE
FFE0000FFE
FFE0000FFE
FFE0000FFE
FFE0000FFE
FFE0000FFE
FFE0000FFE
FFE0000FFE
FFE0000FFE
FFE0000FFE
FFE0000FFE
FFE0000FFE
FFE0000FFE
FFE0FC0FFE
FFE0FC0FFE
FFE0FC0FFE
FFE0FC0FFE
FFE0FC0FFE
FFE0FC0FFE
FFE0FFFFFE
FFE0FFFFFE
FFE0FFFFFE
FFE0FFFFFE
FFE0FFFFFE
07FFFFFF80
07FFFFFF80
07FFFFFF80
07FFFFFF80
07FFFFFF80
07FFFFFF80
000003FF80
000003FF80
000003FF80
000003FF80
000003FF80
000003FFFE
000003FFFE
000003FFFE
000003FFFE
000003FFFE
000003FFFE
ENDCHAR
STARTCHAR 0052
ENCODING 82
SWIDTH 506 0
DWIDTH 45 0
BBX 39 56 0 11
BITMAP
FFFFFFFF80
FFFFFFFF80
FFFFFFFF80
FFFFFFFF80
FFFFFFFF80
FFFFFFFF80
03FF800FFE
03FF800FFE
03FF800FFE
03FF800FFE
03FF800FFE
03FF800FFE
03FF800FFE
03FF800FFE
03FF800FFE
03FF800FFE
03FF800FFE
03FF800FFE
03FF800FFE
03FF800FFE
03FF800FFE
03FF800FFE
03FFFFFF80
03FFFFFF80
03FFFFFF80
03FFFFFF80
03FFFFFF80
03FFFFFF80
03FF83FF80
03FF83FF80
03FF83FF80
03FF83FF80
03FF83FF80
03FF83FF80
03FF800FFE
03FF800FFE
03FF800FFE
03FF800FFE
03FF800FFE
03FF800FFE
03FF800FFE
03FF800FFE
03FF800FFE
03FF800FFE
03FF800FFE
03FF800FFE
03FF800FFE
03FF800FFE
03FF800FFE
03FF800FFE
FFFF800FFE
FFFF800FFE
FFFF800FFE
FFFF800FFE
FFFF800FFE
FFFF800FFE
ENDCHAR
STARTCHAR 0053
ENCODING 83
SWIDTH 506 0
DWIDTH 45 0
BBX 39 56 0 11
BITMAP
03FFFFFF80
03FFFFFF80
03FFFFFF80
03FFFFFF80
03FFFFFF80
03FFFFFF80
FFE0000FFE
FFE0000FFE
FFE0000FFE
FFE0000FFE
FFE0000FFE
FFE0000FFE
FFE0000FFE
FFE0000FFE
FFE0000FFE
FFE0000FFE
FFE0000FFE
03FF800000
03FF800000
03FF800000
03FF800000
03FF800000
001FFFF000
001FFFF000
001FFFF000
001FFFF000
001FFFF000
001FFFF000
000003FF80
000003FF80
000003FF80
000003FF80
000003FF80
0000000FFE
0000000FFE
0000000FFE
0000000FFE
0000000FFE
0000000FFE
FFE0000FFE
FFE0000FFE
FFE0000FFE
FFE0000FFE
FFE0000FFE
FFE0000FFE
FFE0000FFE
FFE0000FFE
FFE0000FFE
FFE0000FFE
FFE0000FFE
03FFFFFF80
03FFFFFF80
03FFFFFF80
03FFFFFF80
03FFFFFF80
03FFFFFF80
ENDCHAR
STARTCHAR 0054
ENCODING 84
SWIDTH 506 0
DWIDTH 45 0
BBX 34 56 6 11
BITMAP
FFFFFFFFC0
FFFFFFFFC0
FFFFFFFFC0
FFFFFFFFC0
FFFFFFFFC0
FFFFFFFFC0
FFFFFFFFC0
FFFFFFFFC0
FFFFFFFFC0
FFFFFFFFC0
FFFFFFFFC0
FC1FFC0FC0
FC1FFC0FC0
FC1FFC0FC0
FC1FFC0FC0
FC1FFC0FC0
FC1FFC0FC0
001FFC0000
001FFC0000
001FFC0000
001FFC0000
001FFC0000
001FFC0000
001FFC0000
001FFC0000
001FFC0000
001FFC0000
001FFC0000
001FFC0000
001FFC0000
001FFC0000
001FFC0000
001FFC0000
001FFC0000
001FFC0000
001FFC0000
001FFC0000
001FFC0000
001FFC0000
001FFC0000
001FFC0000
001FFC0000
001FFC0000
001FFC0000
001FFC0000
001FFC0000
001FFC0000
001FFC0000
001FFC0000
001FFC0000
03FFFFF000
03FFFFF000
03FFFFF000
03FFFFF000
03FFFFF000
03FFFFF000
ENDCHAR
STARTCHAR 0055
ENCODING 85
SWIDTH 506 0
DWIDTH 45 0
BBX 39 56 0 11
BITMAP
FFE0000FFE
FFE0000FFE
FFE0000FFE
FFE0000FFE
FFE0000FFE
FFE0000FFE
FFE0000FFE
FFE0000FFE
FFE0000FFE
FFE0000FFE
FFE0000FFE
FFE0000FFE
FFE0000FFE
FFE0000FFE
FFE0000FFE
FFE0000FFE
FFE0000FFE
FFE0000FFE
FFE0000FFE
FFE0000FFE
FFE0000FFE
FFE0000FFE
FFE0000FFE
FFE0000FFE
FFE0000FFE
FFE0000FFE
FFE0000FFE
FFE0000FFE
FFE0000FFE
FFE0000FFE
FFE0000FFE
FFE0000FFE
FFE0000FFE
FFE0000FFE
FFE0000FFE
FFE0000FFE
FFE0000FFE
FFE0000FFE
FFE0000FFE
FFE0000FFE
FFE0000FFE
FFE0000FFE
FFE0000FFE
FFE0000FFE
FFE0000FFE
FFE0000FFE
FFE0000FFE
FFE0000FFE
FFE0000FFE
FFE0000FFE
07FFFFFF80
07FFFFFF80
07FFFFFF80
07FFFFFF80
07FFFFFF80
07FFFFFF80
ENDCHAR
STARTCHAR 0056
ENCODING 86
SWIDTH 506 0
DWIDTH 45 0
BBX 39 56 0 11
BITMAP
FFE0000FFE
FFE0000FFE
FFE0000FFE
FFE0000FFE
FFE0000FFE
FFE0000FFE
FFE0000FFE
FFE0000FFE
FFE0000FFE
FFE0000FFE
FFE0000FFE
FFE0000FFE
FFE0000FFE
FFE0000FFE
FFE0000FFE
FFE0000FFE
FFE0000FFE
FFE0000FFE
FFE0000FFE
FFE0000FFE
FFE0000FFE
FFE0000FFE
FFE0000FFE
FFE0000FFE
FFE0000FFE
FFE0000FFE
FFE0000FFE
FFE0000FFE
FFE0000FFE
FFE0000FFE
FFE0000FFE
FFE0000FFE
FFE0000FFE
FFE0000FFE
FFE0000FFE
FFE0000FFE
FFE0000FFE
FFE0000FFE
FFE0000FFE
03FF83FF80
03FF83FF80
03FF83FF80
03FF83FF80
03FF83FF80
03FF83FF80
001FFFF000
001FFFF000
001FFFF000
001FFFF000
001FFFF000
00007C0000
00007C0000
00007C0000
00007C0000
00007C0000
00007C0000
ENDCHAR
STARTCHAR 0057
ENCODING 87
SWIDTH 506 0
DWIDTH 45 0
BBX 39 56 0 11
BITMAP
FFE0000FFE
FFE0000FFE
FFE0000FFE
FFE0000FFE
FFE0000FFE
FFE0000FFE
FFE0000FFE
FFE0000FFE
FFE0000FFE
FFE0000FFE
FFE0000FFE
FFE0000FFE
FFE0000FFE
FFE0000FFE
FFE0000FFE
FFE0000FFE
FFE0000FFE
FFE0000FFE
FFE0000FFE
FFE0000FFE
FFE0000FFE
FFE0000FFE
FFE0000FFE
FFE07C0FFE
FFE07C0FFE
FFE07C0FFE
FFE07C0FFE
FFE07C0FFE
FFE07C0FFE
FFE07C0FFE
FFE07C0FFE
FFE07C0FFE
FFE07C0FFE
FFE07C0FFE
FFE07C0FFE
FFE07C0FFE
FFE07C0FFE
FFE07C0FFE
FFE07C0FFE
FFFFFFFFFE
FFFFFFFFFE
FFFFFFFFFE
FFFFFFFFFE
FFFFFFFFFE
FFFFFFFFFE
FFFF83FFFE
FFFF83FFFE
FFFF83FFFE
FFFF83FFFE
FFFF83FFFE
03FF83FF80
03FF83FF80
03FF83FF80
03FF83FF80
03FF83FF80
03FF83FF80
ENDCHAR
STARTCHAR 0058
ENCODING 88
SWIDTH 506 0
DWIDTH 45 0
BBX 39 56 0 11
BITMAP
FFE0000FFE
FFE0000FFE
FFE0000FFE
FFE0000FFE
FFE0000FFE
FFE0000FFE
FFE0000FFE
FFE0000FFE
FFE0000FFE
FFE0000FFE
FFE0000FFE
03E0000F80
03FF83FF80
03FF83FF80
03FF83FF80
03FF83FF80
03FF83FF80
03FFFFFF80
03FFFFFF80
03FFFFFF80
03FFFFFF80
03FFFFFF80
001FFFFF80
001FFFF000
001FFFF000
001FFFF000
001FFFF000
001FFFF000
001FFFF000
001FFFF000
001FFFF000
001FFFF000
001FFFF000
03FFFFF000
03FFFFFF80
03FFFFFF80
03FFFFFF80
03FFFFFF80
03FFFFFF80
03FF83FF80
03FF83FF80
03FF83FF80
03FF83FF80
03FF83FF80
03FF83FF80
FFE0000FFE
FFE0000FFE
FFE0000FFE
FFE0000FFE
FFE0000FFE
FFE0000FFE
FFE0000FFE
FFE0000FFE
FFE0000FFE
FFE0000FFE
FFE0000FFE
ENDCHAR
STARTCHAR 0059
ENCODING 89
SWIDTH 506 0
DWIDTH 45 0
BBX 33 56 6 11
BITMAP
FFE003FF80
FFE003FF80
FFE003FF80
FFE003FF80
FFE003FF80
FFE003FF80
FFE003FF80
FFE003FF80
FFE003FF80
FFE003FF80
FFE003FF80
FFE003FF80
FFE003FF80
FFE003FF80
FFE003FF80
FFE003FF80
FFE003FF80
FFE003FF80
FFE003FF80
FFE003FF80
FFE003FF80
FFE003FF80
03FFFFF000
03FFFFF000
03FFFFF000
03FFFFF000
03FFFFF000
03FFFFF000
001FFC0000
001FFC0000
001FFC0000
001FFC0000
001FFC0000
001FFC0000
001FFC0000
001FFC0000
001FFC0000
001FFC0000
001FFC0000
001FFC0000
001FFC0000
001FFC0000
001FFC0000
001FFC0000
001FFC0000
001FFC0000
001FFC0000
001FFC0000
001FFC0000
001FFC0000
03FFFFF000
03FFFFF000
03FFFFF000
03FFFFF000
03FFFFF000
03FFFFF000
ENDCHAR
STARTCHAR 005A
ENCODING 90
SWIDTH 506 0
DWIDTH 45 0
BBX 39 56 0 11
BITMAP
FFFFFFFFFE
FFFFFFFFFE
FFFFFFFFFE
FFFFFFFFFE
FFFFFFFFFE
FFFFFFFFFE
FFE0000FFE
FFE0000FFE
FFE0000FFE
FFE0000FFE
FFE0000FFE
FC00000FFE
FC00000FFE
FC00000FFE
FC00000FFE
FC00000FFE
FC00000FFE
000003FF80
000003FF80
000003FF80
000003FF80
000003FF80
000003FF80
00007FF000
00007FF000
00007FF000
00007FF000
00007FF000
001FFC0000
001FFC0000
001FFC0000
001FFC0000
001FFC0000
001FFC0000
03FF800000
03FF800000
03FF800000
03FF800000
03FF800000
FFE000007E
FFE000007E
FFE000007E
FFE000007E
FFE000007E
FFE000007E
FFE0000FFE
FFE0000FFE
FFE0000FFE
FFE0000FFE
FFE0000FFE
FFFFFFFFFE
FFFFFFFFFE
FFFFFFFFFE
FFFFFFFFFE
FFFFFFFFFE
FFFFFFFFFE
ENDCHAR
STARTCHAR 005B
ENCODING 91
SWIDTH 506 0
DWIDTH 45 0
BBX 23 56 11 11
BITMAP
FFFFFE
FFFFFE
FFFFFE
FFFFFE
FFFFFE
FFFFFE
FFE000
FFE000
FFE000
FFE000
FFE000
FFE000
FFE000
FFE000
FFE000
FFE000
FFE000
FFE000
FFE000
FFE000
FFE000
FFE000
FFE000
FFE000
FFE000
FFE000
FFE000
FFE000
FFE000
FFE000
FFE000
FFE000
FFE000
FFE000
FFE000
FFE000
FFE000
FFE000
FFE000
FFE000
FFE000
FFE000
FFE000
FFE000
FFE000
FFE000
FFE000
FFE000
FFE000
FFE000
FFFFFE
FFFFFE
FFFFFE
FFFFFE
FFFFFE
FFFFFE
ENDCHAR
STARTCHAR 005C
ENCODING 92
SWIDTH 506 0
DWIDTH 45 0
BBX 39 50 0 11
BITMAP
FC00000000
FC00000000
FC00000000
FC00000000
FC00000000
FFE0000000
FFE0000000
FFE0000000
FFE0000000
FFE0000000
FFE0000000
FFFF800000
FFFF800000
FFFF800000
FFFF800000
FFFF800000
FFFF800000
03FFFC0000
03FFFC0000
03FFFC0000
03FFFC0000
03FFFC0000
001FFFF000
001FFFF000
001FFFF000
001FFFF000
001FFFF000
001FFFF000
00007FFFC0
00007FFFC0
00007FFFC0
00007FFFC0
00007FFFC0
000003FFFE
000003FFFE
000003FFFE
000003FFFE
000003FFFE
000003FFFE
0000000FFE
0000000FFE
0000000FFE
0000000FFE
0000000FFE
0000000FFE
000000003E
000000003E
000000003E
000000003E
000000003E
ENDCHAR
STARTCHAR 005D
ENCODING 93
SWIDTH 506 0
DWIDTH 45 0
BBX 22 56 11 11
BITMAP
FFFFFC
FFFFFC
FFFFFC
FFFFFC
FFFFFC
FFFFFC
001FFC
001FFC
001FFC
001FFC
001FFC
001FFC
001FFC
001FFC
001FFC
001FFC
001FFC
001FFC
001FFC
001FFC
001FFC
001FFC
001FFC
001FFC
001FFC
001FFC
001FFC
001FFC
001FFC
001FFC
001FFC
001FFC
001FFC
001FFC
001FFC
001FFC
001FFC
001FFC
001FFC
001FFC
001FFC
001FFC
001FFC
001FFC
001FFC
001FFC
001FFC
001FFC
001FFC
001FFC
FFFFFC
FFFFFC
FFFFFC
FFFFFC
FFFFFC
FFFFFC
ENDCHAR
STARTCHAR 005E
ENCODING 94
SWIDTH 506 0
DWIDTH 45 0
BBX 39 22 0 56
BITMAP
00007C0000
00007C0000
00007C0000
00007C0000
00007C0000
001FFFF000
001FFFF000
001FFFF000
001FFFF000
001FFFF000
001FFFF000
03FF83FF80
03FF83FF80
03FF83FF80
03FF83FF80
03FF83FF80
FFE0000FFE
FFE0000FFE
FFE0000FFE
FFE0000FFE
FFE0000FFE
FFE0000FFE
ENDCHAR
STARTCHAR 005F
ENCODING 95
SWIDTH 506 0
DWIDTH 45 0
BBX 45 6 0 0
BITMAP
FFFFFFFFFFF8
FFFFFFFFFFF8
FFFFFFFFFFF8
FFFFFFFFFFF8
FFFFFFFFFFF8
FFFFFFFFFFF8
ENDCHAR
STARTCHAR 0060
ENCODING 96
SWIDTH 506 0
DWIDTH 45 0
BBX 17 17 11 61
BITMAP
FFE000
FFE000
FFE000
FFE000
FFE000
FFE000
FFE000
FFE000
FFE000
FFE000
FFE000
03FF80
03FF80
03FF80
03FF80
03FF80
03FF80
ENDCHAR
STARTCHAR 0061
ENCODING 97
SWIDTH 506 0
DWIDTH 45 0
BBX 39 39 0 11
BITMAP
07FFFFE000
07FFFFE000
07FFFFE000
07FFFFE000
07FFFFE000
07FFFFE000
000003FF80
000003FF80
000003FF80
000003FF80
000003FF80
07FFFFFF80
07FFFFFF80
07FFFFFF80
07FFFFFF80
07FFFFFF80
07FFFFFF80
FFE003FF80
FFE003FF80
FFE003FF80
FFE003FF80
FFE003FF80
FFE003FF80
FFE003FF80
FFE003FF80
FFE003FF80
FFE003FF80
FFE003FF80
FFE003FF80
FFE003FF80
FFE003FF80
FFE003FF80
FFE003FF80
07FFFC0FFE
07FFFC0FFE
07FFFC0FFE
07FFFC0FFE
07FFFC0FFE
07FFFC0FFE
ENDCHAR
STARTCHAR 0062
ENCODING 98
SWIDTH 506 0
DWIDTH 45 0
BBX 38 56 1 11
BITMAP
FFFF000000
FFFF000000
FFFF000000
FFFF000000
FFFF000000
FFFF000000
07FF000000
07FF000000
07FF000000
07FF000000
07FF000000
07FF000000
07FF000000
07FF000000
07FF000000
07FF000000
07FF000000
07FFFFE000
07FFFFE000
07FFFFE000
07FFFFE000
07FFFFE000
07FFFFE000
07FF03FF80
07FF03FF80
07FF03FF80
07FF03FF80
07FF03FF80
07FF001FFC
07FF001FFC
07FF001FFC
07FF001FFC
07FF001FFC
07FF001FFC
07FF001FFC
07FF001FFC
07FF001FFC
07FF001FFC
07FF001FFC
07FF001FFC
07FF001FFC
07FF001FFC
07FF001FFC
07FF001FFC
07FF001FFC
07FF001FFC
07FF001FFC
07FF001FFC
07FF001FFC
07FF001FFC
07FFFFFF80
07FFFFFF80
07FFFFFF80
07FFFFFF80
07FFFFFF80
07FFFFFF80
ENDCHAR
STARTCHAR 0063
ENCODING 99
SWIDTH 506 0
DWIDTH 45 0
BBX 39 39 0 11
BITMAP
07FFFFFF80
07FFFFFF80
07FFFFFF80
07FFFFFF80
07FFFFFF80
FFFFFFFFFE
FFE0000FFE
FFE0000FFE
FFE0000FFE
FFE0000FFE
FFE0000FFE
FFE0000000
FFE0000000
FFE0000000
FFE0000000
FFE0000000
FFE0000000
FFE0000000
FFE0000000
FFE0000000
FFE0000000
FFE0000000
FFE0000000
FFE0000000
FFE0000000
FFE0000000
FFE0000000
FFE0000000
FFE0000FFE
FFE0000FFE
FFE0000FFE
FFE0000FFE
FFE0000FFE
07FFFFFF80
07FFFFFF80
07FFFFFF80
07FFFFFF80
07FFFFFF80
07FFFFFF80
ENDCHAR
STARTCHAR 0064
ENCODING 100
SWIDTH 506 0
DWIDTH 45 0
BBX 39 56 0 11
BITMAP
00007FFF80
00007FFF80
00007FFF80
00007FFF80
00007FFF80
00007FFF80
000001FF80
000001FF80
000001FF80
000001FF80
000001FF80
000001FF80
000001FF80
000001FF80
000001FF80
000001FF80
000001FF80
001FFFFF80
001FFFFF80
001FFFFF80
001FFFFF80
001FFFFF80
001FFFFF80
03FF81FF80
03FF81FF80
03FF81FF80
03FF81FF80
03FF81FF80
FFE001FF80
FFE001FF80
FFE001FF80
FFE001FF80
FFE001FF80
FFE001FF80
FFE001FF80
FFE001FF80
FFE001FF80
FFE001FF80
FFE001FF80
FFE001FF80
FFE001FF80
FFE001FF80
FFE001FF80
FFE001FF80
FFE001FF80
FFE001FF80
FFE001FF80
FFE001FF80
FFE001FF80
FFE001FF80
03FFFE0FFE
03FFFE0FFE
03FFFE0FFE
03FFFE0FFE
03FFFE0FFE
03FFFE0FFE
ENDCHAR
STARTCHAR 0065
ENCODING 101
SWIDTH 506 0
DWIDTH 45 0
BBX 39 39 0 11
BITMAP
07FFFFFF80
07FFFFFF80
07FFFFFF80
07FFFFFF80
07FFFFFF80
FFFFFFFFFE
FFE0000FFE
FFE0000FFE
FFE0000FFE
FFE0000FFE
FFE0000FFE
FFFFFFFFFE
FFFFFFFFFE
FFFFFFFFFE
FFFFFFFFFE
FFFFFFFFFE
FFFFFFFFFE
FFE0000000
FFE0000000
FFE0000000
FFE0000000
FFE0000000
FFE0000000
FFE0000000
FFE0000000
FFE0000000
FFE0000000
FFE0000000
FFE0000FFE
FFE0000FFE
FFE0000FFE
FFE0000FFE
FFE0000FFE
07FFFFFF80
07FFFFFF80
07FFFFFF80
07FFFFFF80
07FFFFFF80
07FFFFFF80
ENDCHAR
STARTCHAR 0066
ENCODING 102
SWIDTH 506 0
DWIDTH 45 0
BBX 34 56 0 11
BITMAP
001FFFF000
001FFFF000
001FFFF000
001FFFF000
001FFFF000
001FFFF000
03FF83FFC0
03FF83FFC0
03FF83FFC0
03FF83FFC0
03FF83FFC0
03FF800FC0
03FF800FC0
03FF800FC0
03FF800FC0
03FF800FC0
03FF800FC0
03FF800000
03FF800000
03FF800000
03FF800000
03FF800000
FFFFFC0000
FFFFFC0000
FFFFFC0000
FFFFFC0000
FFFFFC0000
FFFFFC0000
03FF800000
03FF800000
03FF800000
03FF800000
03FF800000
03FF800000
03FF800000
03FF800000
03FF800000
03FF800000
03FF800000
03FF800000
03FF800000
03FF800000
03FF800000
03FF800000
03FF800000
03FF800000
03FF800000
03FF800000
03FF800000
03FF800000
FFFFFC0000
FFFFFC0000
FFFFFC0000
FFFFFC0000
FFFFFC0000
FFFFFC0000
ENDCHAR
STARTCHAR 0067
ENCODING 103
SWIDTH 506 0
DWIDTH 45 0
BBX 39 56 0 -6
BITMAP
07FFFC0FFE
07FFFC0FFE
07FFFC0FFE
07FFFC0FFE
07FFFC0FFE
07FFFC0FFE
FFE003FF80
FFE003FF80
FFE003FF80
FFE003FF80
FFE003FF80
FFE003FF80
FFE003FF80
FFE003FF80
FFE003FF80
FFE003FF80
FFE003FF80
FFE003FF80
FFE003FF80
FFE003FF80
FFE003FF80
FFE003FF80
FFE003FF80
FFE003FF80
FFE003FF80
FFE003FF80
FFE003FF80
FFE003FF80
FFE003FF80
FFE003FF80
FFE003FF80
FFE003FF80
FFE003FF80
07FFFFFF80
07FFFFFF80
07FFFFFF80
07FFFFFF80
07FFFFFF80
07FFFFFF80
000003FF80
000003FF80
000003FF80
000003FF80
000003FF80
000003FF80
FFE003FF80
FFE003FF80
FFE003FF80
FFE003FF80
FFE003FF80
07FFFFE000
07FFFFE000
07FFFFE000
07FFFFE000
07FFFFE000
07FFFFE000
ENDCHAR
STARTCHAR 0068
ENCODING 104
SWIDTH 506 0
DWIDTH 45 0
BBX 38 56 1 11
BITMAP
FFFF000000
FFFF000000
FFFF000000
FFFF000000
FFFF000000
FFFF000000
07FF000000
07FF000000
07FF000000
07FF000000
07FF000000
07FF000000
07FF000000
07FF000000
07FF000000
07FF000000
07FF000000
07FF03FF80
07FF03FF80
07FF03FF80
07FF03FF80
07FF03FF80
07FFFFFFFC
07FFFC1FFC
07FFFC1FFC
07FFFC1FFC
07FFFC1FFC
07FFFC1FFC
07FF001FFC
07FF001FFC
07FF001FFC
07FF001FFC
07FF001FFC
07FF001FFC
07FF001FFC
07FF001FFC
07FF001FFC
07FF001FFC
07FF001FFC
07FF001FFC
07FF001FFC
07FF001FFC
07FF001FFC
07FF001FFC
07FF001FFC
07FF001FFC
07FF001FFC
07FF001FFC
07FF001FFC
07FF001FFC
FFFF001FFC
FFFF001FFC
FFFF001FFC
FFFF001FFC
FFFF001FFC
FFFF001FFC
ENDCHAR
STARTCHAR 0069
ENCODING 105
SWIDTH 506 0
DWIDTH 45 0
BBX 22 56 11 11
BITMAP
03FF80
03FF80
03FF80
03FF80
03FF80
03FF80
03FF80
03FF80
03FF80
03FF80
03FF80
000000
000000
000000
000000
000000
000000
FFFF80
FFFF80
FFFF80
FFFF80
FFFF80
FFFF80
03FF80
03FF80
03FF80
03FF80
03FF80
03FF80
03FF80
03FF80
03FF80
03FF80
03FF80
03FF80
03FF80
03FF80
03FF80
03FF80
03FF80
03FF80
03FF80
03FF80
03FF80
03FF80
03FF80
03FF80
03FF80
03FF80
03FF80
FFFFFC
FFFFFC
FFFFFC
FFFFFC
FFFFFC
FFFFFC
ENDCHAR
STARTCHAR 006A
ENCODING 106
SWIDTH 506 0
DWIDTH 45 0
BBX 33 73 6 -6
BITMAP
000003FF80
000003FF80
000003FF80
000003FF80
000003FF80
000003FF80
000003FF80
000003FF80
000003FF80
000003FF80
000003FF80
0000000000
0000000000
0000000000
0000000000
0000000000
0000000000
00007FFF80
00007FFF80
00007FFF80
00007FFF80
00007FFF80
00007FFF80
000003FF80
000003FF80
000003FF80
000003FF80
000003FF80
000003FF80
000003FF80
000003FF80
000003FF80
000003FF80
000003FF80
000003FF80
000003FF80
000003FF80
000003FF80
000003FF80
000003FF80
000003FF80
000003FF80
000003FF80
000003FF80
000003FF80
000003FF80
000003FF80
000003FF80
000003FF80
000003FF80
000003FF80
000003FF80
000003FF80
000003FF80
000003FF80
000003FF80
FFE003FF80
FFE003FF80
FFE003FF80
FFE003FF80
FFE003FF80
FFE003FF80
FFE003FF80
FFE003FF80
FFE003FF80
FFE003FF80
FFE003FF80
03FFFFF000
03FFFFF000
03FFFFF000
03FFFFF000
03FFFFF000
03FFFFF000
ENDCHAR
STARTCHAR 006B
ENCODING 107
SWIDTH 506 0
DWIDTH 45 0
BBX 38 56 1 11
BITMAP
FFFF000000
FFFF000000
FFFF000000
FFFF000000
FFFF000000
FFFF000000
07FF000000
07FF000000
07FF000000
07FF000000
07FF000000
07FF000000
07FF000000
07FF000000
07FF000000
07FF000000
07FF000000
07FF001FFC
07FF001FFC
07FF001FFC
07FF001FFC
07FF001FFC
07FF001FFC
07FF03FF80
07FF03FF80
07FF03FF80
07FF03FF80
07FF03FF80
07FFFFE000
07FFFFE000
07FFFFE000
07FFFFE000
07FFFFE000
07FFFFE000
07FFFFE000
07FFFFE000
07FFFFE000
07FFFFE000
07FFFFE000
07FF03FF80
07FF03FF80
07FF03FF80
07FF03FF80
07FF03FF80
07FF03FF80
07FF001FFC
07FF001FFC
07FF001FFC
07FF001FFC
07FF001FFC
FFFF001FFC
FFFF001FFC
FFFF001FFC
FFFF001FFC
FFFF001FFC
FFFF001FFC
ENDCHAR
STARTCHAR 006C
ENCODING 108
SWIDTH 506 0
DWIDTH 45 0
BBX 22 56 11 11
BITMAP
FFFF80
FFFF80
FFFF80
FFFF80
FFFF80
FFFF80
03FF80
03FF80
03FF80
03FF80
03FF80
03FF80
03FF80
03FF80
03FF80
03FF80
03FF80
03FF80
03FF80
03FF80
03FF80
03FF80
03FF80
03FF80
03FF80
03FF80
03FF80
03FF80
03FF80
03FF80
03FF80
03FF80
03FF80
03FF80
03FF80
03FF80
03FF80
03FF80
03FF80
03FF80
03FF80
03FF80
03FF80
03FF80
03FF80
03FF80
03FF80
03FF80
03FF80
03FF80
FFFFFC
FFFFFC
FFFFFC
FFFFFC
FFFFFC
FFFFFC
ENDCHAR
STARTCHAR 006D
ENCODING 109
SWIDTH 506 0
DWIDTH 45 0
BBX 39 39 0 11
BITMAP
FFFF83FF80
FFFF83FF80
FFFF83FF80
FFFF83FF80
FFFF83FF80
FFFF83FF80
FFFFFFFFFE
FFFFFFFFFE
FFFFFFFFFE
FFFFFFFFFE
FFFFFFFFFE
FFE07C0FFE
FFE07C0FFE
FFE07C0FFE
FFE07C0FFE
FFE07C0FFE
FFE07C0FFE
FFE07C0FFE
FFE07C0FFE
FFE07C0FFE
FFE07C0FFE
FFE07C0FFE
FFE07C0FFE
FFE07C0FFE
FFE07C0FFE
FFE07C0FFE
FFE07C0FFE
FFE07C0FFE
FFE07C0FFE
FFE07C0FFE
FFE07C0FFE
FFE07C0FFE
FFE07C0FFE
FFE07C0FFE
FFE0000FFE
FFE0000FFE
FFE0000FFE
FFE0000FFE
FFE0000FFE
ENDCHAR
STARTCHAR 006E
ENCODING 110
SWIDTH 506 0
DWIDTH 45 0
BBX 39 39 0 11
BITMAP
FFE07FFFC0
FFE07FFFC0
FFE07FFFC0
FFE07FFFC0
FFE07FFFC0
FFE07FFFC0
03FF800FFE
03FF800FFE
03FF800FFE
03FF800FFE
03FF800FFE
03FF800FFE
03FF800FFE
03FF800FFE
03FF800FFE
03FF800FFE
03FF800FFE
03FF800FFE
03FF800FFE
03FF800FFE
03FF800FFE
03FF800FFE
03FF800FFE
03FF800FFE
03FF800FFE
03FF800FFE
03FF800FFE
03FF800FFE
03FF800FFE
03FF800FFE
03FF800FFE
03FF800FFE
03FF800FFE
03FF800FFE
03FF800FFE
03FF800FFE
03FF800FFE
03FF800FFE
03FF800FFE
ENDCHAR
STARTCHAR 006F
ENCODING 111
SWIDTH 506 0
DWIDTH 45 0
BBX 39 39 0 11
BITMAP
07FFFFFF80
07FFFFFF80
07FFFFFF80
07FFFFFF80
07FFFFFF80
07FFFFFF80
FFE0000FFE
FFE0000FFE
FFE0000FFE
FFE0000FFE
FFE0000FFE
FFE0000FFE
FFE0000FFE
FFE0000FFE
FFE0000FFE
FFE0000FFE
FFE0000FFE
FFE0000FFE
FFE0000FFE
FFE0000FFE
FFE0000FFE
FFE0000FFE
FFE0000FFE
FFE0000FFE
FFE0000FFE
FFE0000FFE
FFE0000FFE
FFE0000FFE
FFE0000FFE
FFE0000FFE
FFE0000FFE
FFE0000FFE
FFE0000FFE
07FFFFFF80
07FFFFFF80
07FFFFFF80
07FFFFFF80
07FFFFFF80
07FFFFFF80
ENDCHAR
STARTCHAR 0070
ENCODING 112
SWIDTH 506 0
DWIDTH 45 0
BBX 39 56 0 -6
BITMAP
FFE07FFFC0
FFE07FFFC0
FFE07FFFC0
FFE07FFFC0
FFE07FFFC0
FFE07FFFC0
03FF800FFE
03FF800FFE
03FF800FFE
03FF800FFE
03FF800FFE
03FF800FFE
03FF800FFE
03FF800FFE
03FF800FFE
03FF800FFE
03FF800FFE
03FF800FFE
03FF800FFE
03FF800FFE
03FF800FFE
03FF800FFE
03FF800FFE
03FF800FFE
03FF800FFE
03FF800FFE
03FF800FFE
03FF800FFE
03FF800FFE
03FF800FFE
03FF800FFE
03FF800FFE
03FF800FFE
03FFFFFFC0
03FFFFFFC0
03FFFFFFC0
03FFFFFFC0
03FFFFFFC0
03FFFFFFC0
03FF800000
03FF800000
03FF800000
03FF800000
03FF800000
03FF800000
03FF800000
03FF800000
03FF800000
03FF800000
03FF800000
FFFFFC0000
FFFFFC0000
FFFFFC0000
FFFFFC0000
FFFFFC0000
FFFFFC0000
ENDCHAR
STARTCHAR 0071
ENCODING 113
SWIDTH 506 0
DWIDTH 45 0
BBX 39 56 0 -6
BITMAP
07FFFC0FFE
07FFFC0FFE
07FFFC0FFE
07FFFC0FFE
07FFFC0FFE
07FFFC0FFE
FFE003FF80
FFE003FF80
FFE003FF80
FFE003FF80
FFE003FF80
FFE003FF80
FFE003FF80
FFE003FF80
FFE003FF80
FFE003FF80
FFE003FF80
FFE003FF80
FFE003FF80
FFE003FF80
FFE003FF80
FFE003FF80
FFE003FF80
FFE003FF80
FFE003FF80
FFE003FF80
FFE003FF80
FFE003FF80
FFE003FF80
FFE003FF80
FFE003FF80
FFE003FF80
FFE003FF80
07FFFFFF80
07FFFFFF80
07FFFFFF80
07FFFFFF80
07FFFFFF80
07FFFFFF80
000003FF80
000003FF80
000003FF80
000003FF80
000003FF80
000003FF80
000003FF80
000003FF80
000003FF80
000003FF80
000003FF80
00007FFFFE
00007FFFFE
00007FFFFE
00007FFFFE
00007FFFFE
00007FFFFE
ENDCHAR
STARTCHAR 0072
ENCODING 114
SWIDTH 506 0
DWIDTH 45 0
BBX 39 39 0 11
BITMAP
FFE07FFFC0
FFE07FFFC0
FFE07FFFC0
FFE07FFFC0
FFE07FFFC0
FFE07FFFC0
03FFFC0FFE
03FFFC0FFE
03FFFC0FFE
03FFFC0FFE
03FFFC0FFE
03FFFC0FFE
03FF800FFE
03FF800FFE
03FF800FFE
03FF800FFE
03FF800FFE
03FF800000
03FF800000
03FF800000
03FF800000
03FF800000
03FF800000
03FF800000
03FF800000
03FF800000
03FF800000
03FF800000
03FF800000
03FF800000
03FF800000
03FF800000
03FF800000
FFFFFC0000
FFFFFC0000
FFFFFC0000
FFFFFC0000
FFFFFC0000
FFFFFC0000
ENDCHAR
STARTCHAR 0073
ENCODING 115
SWIDTH 506 0
DWIDTH 45 0
BBX 39 39 0 11
BITMAP
03FFFFFF80
03FFFFFF80
03FFFFFF80
03FFFFFF80
03FFFFFF80
FFFFFFFFFE
FFE0000FFE
FFE0000FFE
FFE0000FFE
FFE0000FFE
FFE0000FFE
03FF800000
03FF800000
03FF800000
03FF800000
03FF800000
03FF800000
001FFFF000
001FFFF000
001FFFF000
001FFFF000
001FFFF000
000003FF80
000003FF80
000003FF80
000003FF80
000003FF80
000003FF80
FFE0000FFE
FFE0000FFE
FFE0000FFE
FFE0000FFE
FFE0000FFE
03FFFFFF80
03FFFFFF80
03FFFFFF80
03FFFFFF80
03FFFFFF80
03FFFFFF80
ENDCHAR
STARTCHAR 0074
ENCODING 116
SWIDTH 506 0
DWIDTH 45 0
BBX 39 56 0 11
BITMAP
0000FC0000
0000FC0000
0000FC0000
0000FC0000
0000FC0000
0000FC0000
001FFC0000
001FFC0000
001FFC0000
001FFC0000
001FFC0000
001FFC0000
001FFC0000
001FFC0000
001FFC0000
001FFC0000
001FFC0000
FFFFFFFF80
FFFFFFFF80
FFFFFFFF80
FFFFFFFF80
FFFFFFFF80
FFFFFFFF80
001FFC0000
001FFC0000
001FFC0000
001FFC0000
001FFC0000
001FFC0000
001FFC0000
001FFC0000
001FFC0000
001FFC0000
001FFC0000
001FFC0000
001FFC0000
001FFC0000
001FFC0000
001FFC0000
001FFC0000
001FFC0000
001FFC0000
001FFC0000
001FFC0000
001FFC0000
001FFC0FFE
001FFC0FFE
001FFC0FFE
001FFC0FFE
001FFC0FFE
0000FFFF80
0000FFFF80
0000FFFF80
0000FFFF80
0000FFFF80
0000FFFF80
ENDCHAR
STARTCHAR 0075
ENCODING 117
SWIDTH 506 0
DWIDTH 45 0
BBX 39 39 0 11
BITMAP
FFE003FF80
FFE003FF80
FFE003FF80
FFE003FF80
FFE003FF80
FFE003FF80
FFE003FF80
FFE003FF80
FFE003FF80
FFE003FF80
FFE003FF80
FFE003FF80
FFE003FF80
FFE003FF80
FFE003FF80
FFE003FF80
FFE003FF80
FFE003FF80
FFE003FF80
FFE003FF80
FFE003FF80
FFE003FF80
FFE003FF80
FFE003FF80
FFE003FF80
FFE003FF80
FFE003FF80
FFE003FF80
FFE003FF80
FFE003FF80
FFE003FF80
FFE003FF80
FFE003FF80
07FFFC0FFE
07FFFC0FFE
07FFFC0FFE
07FFFC0FFE
07FFFC0FFE
07FFFC0FFE
ENDCHAR
STARTCHAR 0076
ENCODING 118
SWIDTH 506 0
DWIDTH 45 0
BBX 33 39 6 11
BITMAP
FFE003FF80
FFE003FF80
FFE003FF80
FFE003FF80
FFE003FF80
FFE003FF80
FFE003FF80
FFE003FF80
FFE003FF80
FFE003FF80
FFE003FF80
FFE003FF80
FFE003FF80
FFE003FF80
FFE003FF80
FFE003FF80
FFE003FF80
FFE003FF80
FFE003FF80
FFE003FF80
FFE003FF80
FFE003FF80
FFE003FF80
FFE003FF80
FFE003FF80
FFE003FF80
FFE003FF80
FFE003FF80
03FFFFF000
03FFFFF000
03FFFFF000
03FFFFF000
03FFFFF000
001FFFF000
001FFC0000
001FFC0000
001FFC0000
001FFC0000
001FFC0000
ENDCHAR
STARTCHAR 0077
ENCODING 119
SWIDTH 506 0
DWIDTH 45 0
BBX 39 39 0 11
BITMAP
FFE0000FFE
FFE0000FFE
FFE0000FFE
FFE0000FFE
FFE0000FFE
FFE0000FFE
FFE0000FFE
FFE0000FFE
FFE0000FFE
FFE0000FFE
FFE0000FFE
FFE07C0FFE
FFE07C0FFE
FFE07C0FFE
FFE07C0FFE
FFE07C0FFE
FFE07C0FFE
FFE07C0FFE
FFE07C0FFE
FFE07C0FFE
FFE07C0FFE
FFE07C0FFE
FFE07C0FFE
FFE07C0FFE
FFE07C0FFE
FFE07C0FFE
FFE07C0FFE
FFE07C0FFE
FFFFFFFFFE
FFFFFFFFFE
FFFFFFFFFE
FFFFFFFFFE
FFFFFFFFFE
03FF83FF80
03FF83FF80
03FF83FF80
03FF83FF80
03FF83FF80
03FF83FF80
ENDCHAR
STARTCHAR 0078
ENCODING 120
SWIDTH 506 0
DWIDTH 45 0
BBX 39 39 0 11
BITMAP
FFE0000FFE
FFE0000FFE
FFE0000FFE
FFE0000FFE
FFE0000FFE
FFE0000FFE
03FF83FF80
03FF83FF80
03FF83FF80
03FF83FF80
03FF83FF80
001FFFF000
001FFFF000
001FFFF000
001FFFF000
001FFFF000
001FFFF000
001FFFF000
001FFFF000
001FFFF000
001FFFF000
001FFFF000
001FFFF000
001FFFF000
001FFFF000
001FFFF000
001FFFF000
001FFFF000
03FF83FF80
03FF83FF80
03FF83FF80
03FF83FF80
03FF83FF80
FFE0000FFE
FFE0000FFE
FFE0000FFE
FFE0000FFE
FFE0000FFE
FFE0000FFE
ENDCHAR
STARTCHAR 0079
ENCODING 121
SWIDTH 506 0
DWIDTH 45 0
BBX 39 56 0 -6
BITMAP
FFE0000FFE
FFE0000FFE
FFE0000FFE
FFE0000FFE
FFE0000FFE
FFE0000FFE
FFE0000FFE
FFE0000FFE
FFE0000FFE
FFE0000FFE
FFE0000FFE
FFE0000FFE
FFE0000FFE
FFE0000FFE
FFE0000FFE
FFE0000FFE
FFE0000FFE
FFE0000FFE
FFE0000FFE
FFE0000FFE
FFE0000FFE
FFE0000FFE
FFE0000FFE
FFE0000FFE
FFE0000FFE
FFE0000FFE
FFE0000FFE
FFE0000FFE
FFE0000FFE
FFE0000FFE
FFE0000FFE
FFE0000FFE
FFE0000FFE
03FFFFFFFE
03FFFFFFFE
03FFFFFFFE
03FFFFFFFE
03FFFFFFFE
03FFFFFFFE
0000000FFE
0000000FFE
0000000FFE
0000000FFE
0000000FFE
000003FF80
000003FF80
000003FF80
000003FF80
000003FF80
000003FF80
FFFFFFF000
FFFFFFF000
FFFFFFF000
FFFFFFF000
FFFFFFF000
FFFFFFF000
ENDCHAR
STARTCHAR 007A
ENCODING 122
SWIDTH 506 0
DWIDTH 45 0
BBX 39 39 0 11
BITMAP
FFFFFFFFFE
FFFFFFFFFE
FFFFFFFFFE
FFFFFFFFFE
FFFFFFFFFE
FFFFFFFFFE
FFE003FF80
FFE003FF80
FFE003FF80
FFE003FF80
FFE003FF80
00007FF000
00007FF000
00007FF000
00007FF000
00007FF000
00007FF000
001FFC0000
001FFC0000
001FFC0000
001FFC0000
001FFC0000
03FF800000
03FF800000
03FF800000
03FF800000
03FF800000
03FF800000
FFE0000FFE
FFE0000FFE
FFE0000FFE
FFE0000FFE
FFE0000FFE
FFFFFFFFFE
FFFFFFFFFE
FFFFFFFFFE
FFFFFFFFFE
FFFFFFFFFE
FFFFFFFFFE
ENDCHAR
STARTCHAR 007B
ENCODING 123
SWIDTH 506 0
DWIDTH 45 0
BBX 34 56 6 11
BITMAP
00007FFFC0
00007FFFC0
00007FFFC0
00007FFFC0
00007FFFC0
00007FFFC0
001FFC0000
001FFC0000
001FFC0000
001FFC0000
001FFC0000
001FFC0000
001FFC0000
001FFC0000
001FFC0000
001FFC0000
001FFC0000
001FFC0000
001FFC0000
001FFC0000
001FFC0000
001FFC0000
FFFF800000
FFFF800000
FFFF800000
FFFF800000
FFFF800000
FFFF800000
001FFC0000
001FFC0000
001FFC0000
001FFC0000
001FFC0000
001FFC0000
001FFC0000
001FFC0000
001FFC0000
001FFC0000
001FFC0000
001FFC0000
001FFC0000
001FFC0000
001FFC0000
001FFC0000
001FFC0000
001FFC0000
001FFC0000
001FFC0000
001FFC0000
001FFC0000
00007FFFC0
00007FFFC0
00007FFFC0
00007FFFC0
00007FFFC0
00007FFFC0
ENDCHAR
STARTCHAR 007C
ENCODING 124
SWIDTH 506 0
DWIDTH 45 0
BBX 11 56 17 11
BITMAP
FFE0
FFE0
FFE0
FFE0
FFE0
FFE0
FFE0
FFE0
FFE0
FFE0
FFE0
FFE0
FFE0
FFE0
FFE0
FFE0
FFE0
FFE0
FFE0
FFE0
FFE0
FFE0
0000
0000
0000
0000
0000
0000
FFE0
FFE0
FFE0
FFE0
FFE0
FFE0
FFE0
FFE0
FFE0
FFE0
FFE0
FFE0
FFE0
FFE0
FFE0
FFE0
FFE0
FFE0
FFE0
FFE0
FFE0
FFE0
FFE0
FFE0
FFE0
FFE0
FFE0
FFE0
ENDCHAR
STARTCHAR 007D
ENCODING 125
SWIDTH 506 0
DWIDTH 45 0
BBX 34 56 6 11
BITMAP
FFFF800000
FFFF800000
FFFF800000
FFFF800000
FFFF800000
FFFF800000
001FFC0000
001FFC0000
001FFC0000
001FFC0000
001FFC0000
001FFC0000
001FFC0000
001FFC0000
001FFC0000
001FFC0000
001FFC0000
001FFC0000
001FFC0000
001FFC0000
001FFC0000
001FFC0000
00007FFFC0
00007FFFC0
00007FFFC0
00007FFFC0
00007FFFC0
00007FFFC0
001FFC0000
001FFC0000
001FFC0000
001FFC0000
001FFC0000
001FFC0000
001FFC0000
001FFC0000
001FFC0000
001FFC0000
001FFC0000
001FFC0000
001FFC0000
001FFC0000
001FFC0000
001FFC0000
001FFC0000
001FFC0000
001FFC0000
001FFC0000
001FFC0000
001FFC0000
FFFF800000
FFFF800000
FFFF800000
FFFF800000
FFFF800000
FFFF800000
ENDCHAR
STARTCHAR 007E
ENCODING 126
SWIDTH 506 0
DWIDTH 45 0
BBX 39 11 0 56
BITMAP
07FFFC0FFE
07FFFC0FFE
07FFFC0FFE
07FFFC0FFE
07FFFC0FFE
FFE07FFFC0
FFE07FFFC0
FFE07FFFC0
FFE07FFFC0
FFE07FFFC0
FFE07FFFC0
ENDCHAR
STARTCHAR 007F
ENCODING 127
SWIDTH 506 0
DWIDTH 45 0
BBX 39 39 0 17
BITMAP
00007C0000
00007C0000
00007C0000
00007C0000
00007C0000
00007C0000
001FFFF000
001FFFF000
001FFFF000
001FFFF000
001FFFF000
03FF83FF80
03FF83FF80
03FF83FF80
03FF83FF80
03FF83FF80
03FF83FF80
FFE0000FFE
FFE0000FFE
FFE0000FFE
FFE0000FFE
FFE0000FFE
FFE0000FFE
FFE0000FFE
FFE0000FFE
FFE0000FFE
FFE0000FFE
FFE0000FFE
FFE0000FFE
FFE0000FFE
FFE0000FFE
FFE0000FFE
FFE0000FFE
FFFFFFFFFE
FFFFFFFFFE
FFFFFFFFFE
FFFFFFFFFE
FFFFFFFFFE
FFFFFFFFFE
ENDCHAR
STARTCHAR 00A0
ENCODING 160
SWIDTH 506 0
DWIDTH 45 0
BBX 0 0 0 0
BITMAP
ENDCHAR
STARTCHAR 00A1
ENCODING 161
SWIDTH 506 0
DWIDTH 45 0
BBX 22 56 11 11
BITMAP
03FF80
03FF80
03FF80
03FF80
03FF80
03FF80
03FF80
03FF80
03FF80
03FF80
03FF80
000000
000000
000000
000000
000000
000000
03FF80
03FF80
03FF80
03FF80
03FF80
03FF80
03FF80
03FF80
03FF80
03FF80
03FF80
03FF80
03FF80
03FF80
03FF80
03FF80
03FF80
FFFFFC
FFFFFC
FFFFFC
FFFFFC
FFFFFC
FFFFFC
FFFFFC
FFFFFC
FFFFFC
FFFFFC
FFFFFC
FFFFFC
FFFFFC
FFFFFC
FFFFFC
FFFFFC
FFFFFC
03FF80
03FF80
03FF80
03FF80
03FF80
ENDCHAR
STARTCHAR 00A2
ENCODING 162
SWIDTH 506 0
DWIDTH 45 0
BBX 33 61 6 11
BITMAP
001FFC0000
001FFC0000
001FFC0000
001FFC0000
001FFC0000
001FFC0000
001FFC0000
001FFC0000
001FFC0000
001FFC0000
001FFC0000
03FFFFF000
03FFFFF000
03FFFFF000
03FFFFF000
03FFFFF000
FFE003FF80
FFE003FF80
FFE003FF80
FFE003FF80
FFE003FF80
FFE003FF80
FFE0000000
FFE0000000
FFE0000000
FFE0000000
FFE0000000
FFE0000000
FFE0000000
FFE0000000
FFE0000000
FFE0000000
FFE0000000
FFE0000000
FFE0000000
FFE0000000
FFE0000000
FFE0000000
FFE0000000
FFE003FF80
FFE003FF80
FFE003FF80
FFE003FF80
FFE003FF80
03FFFFF000
03FFFFF000
03FFFFF000
03FFFFF000
03FFFFF000
03FFFFF000
001FFC0000
001FFC0000
001FFC0000
001FFC0000
001FFC0000
001FFC0000
001FFC0000
001FFC0000
001FFC0000
001FFC0000
001FFC0000
ENDCHAR
STARTCHAR 00A3
ENCODING 163
SWIDTH 506 0
DWIDTH 45 0
BBX 39 61 0 11
BITMAP
001FFFF000
001FFFF000
001FFFF000
001FFFF000
001FFFF000
03FF83FFC0
03FF83FFC0
03FF83FFC0
03FF83FFC0
03FF83FFC0
03FF800FC0
03FF800FC0
03FF800FC0
03FF800FC0
03FF800FC0
03FF800FC0
03FF800000
03FF800000
03FF800000
03FF800000
03FF800000
03FF800000
FFFFFC0000
FFFFFC0000
FFFFFC0000
FFFFFC0000
FFFFFC0000
FFFFFC0000
03FF800000
03FF800000
03FF800000
03FF800000
03FF800000
03FF800000
03FF800000
03FF800000
03FF800000
03FF800000
03FF800000
03FF800000
03FF800000
03FF800000
03FF800000
03FF800000
03FF800000
03FF800000
03FF800000
03FF800000
03FF800000
03FF800000
FFFF800FFE
FFFF800FFE
FFFF800FFE
FFFF800FFE
FFFF800FFE
FFFFFFFFC0
FFFFFFFFC0
FFFFFFFFC0
FFFFFFFFC0
FFFFFFFFC0
FFFFFFFFC0
ENDCHAR
STARTCHAR 00A4
ENCODING 164
SWIDTH 506 0
DWIDTH 45 0
BBX 33 40 6 16
BITMAP
FFE003FF80
FFE003FF80
FFE003FF80
FFE003FF80
FFE003FF80
FFE003FF80
03FFFFF000
03FFFFF000
03FFFFF000
03FFFFF000
03FFFFF000
FFFFFFFF80
FFE003FF80
FFE003FF80
FFE003FF80
FFE003FF80
FFE003FF80
FFE003FF80
FFE003FF80
FFE003FF80
FFE003FF80
FFE003FF80
FFE003FF80
FFE003FF80
FFE003FF80
FFE003FF80
FFE003FF80
FFE003FF80
03FFFFF000
03FFFFF000
03FFFFF000
03FFFFF000
03FFFFF000
03FFFFF000
FFE003FF80
FFE003FF80
FFE003FF80
FFE003FF80
FFE003FF80
FFE003FF80
ENDCHAR
STARTCHAR 00A5
ENCODING 165
SWIDTH 506 0
DWIDTH 45 0
BBX 33 56 6 11
BITMAP
FFE003FF80
FFE003FF80
FFE003FF80
FFE003FF80
FFE003FF80
FFE003FF80
FFE003FF80
FFE003FF80
FFE003FF80
FFE003FF80
FFE003FF80
03E003F000
03FFFFF000
03FFFFF000
03FFFFF000
03FFFFF000
03FFFFF000
001FFC0000
001FFC0000
001FFC0000
001FFC0000
001FFC0000
FFFFFFFF80
FFFFFFFF80
FFFFFFFF80
FFFFFFFF80
FFFFFFFF80
FFFFFFFF80
001FFC0000
001FFC0000
001FFC0000
001FFC0000
001FFC0000
001FFC0000
FFFFFFFF80
FFFFFFFF80
FFFFFFFF80
FFFFFFFF80
FFFFFFFF80
FFFFFFFF80
001FFC0000
001FFC0000
001FFC0000
001FFC0000
001FFC0000
001FFC0000
001FFC0000
001FFC0000
001FFC0000
001FFC0000
001FFC0000
001FFC0000
001FFC0000
001FFC0000
001FFC0000
001FFC0000
ENDCHAR
STARTCHAR 00A6
ENCODING 166
SWIDTH 506 0
DWIDTH 45 0
BBX 11 56 17 11
BITMAP
FFE0
FFE0
FFE0
FFE0
FFE0
FFE0
FFE0
FFE0
FFE0
FFE0
FFE0
FFE0
FFE0
FFE0
FFE0
FFE0
FFE0
FFE0
FFE0
FFE0
FFE0
FFE0
0000
0000
0000
0000
0000
0000
FFE0
FFE0
FFE0
FFE0
FFE0
FFE0
FFE0
FFE0
FFE0
FFE0
FFE0
FFE0
FFE0
FFE0
FFE0
FFE0
FFE0
FFE0
FFE0
FFE0
FFE0
FFE0
FFE0
FFE0
FFE0
FFE0
FFE0
FFE0
ENDCHAR
STARTCHAR 00A7
ENCODING 167
SWIDTH 506 0
DWIDTH 45 0
BBX 39 67 0 5
BITMAP
03FFFFFF80
03FFFFFF80
03FFFFFF80
03FFFFFF80
03FFFFFF80
FFE0000FFE
FFE0000FFE
FFE0000FFE
FFE0000FFE
FFE0000FFE
FFE0000FFE
03FF800000
03FF800000
03FF800000
03FF800000
03FF800000
001FFFF000
001FFFF000
001FFFF000
001FFFF000
001FFFF000
001FFFF000
03FF83FF80
03FF83FF80
03FF83FF80
03FF83FF80
03FF83FF80
03FF83FF80
FFE0000FFE
FFE0000FFE
FFE0000FFE
FFE0000FFE
FFE0000FFE
FFE0000FFE
FFE0000FFE
FFE0000FFE
FFE0000FFE
FFE0000FFE
FFE0000FFE
03FF83FF80
03FF83FF80
03FF83FF80
03FF83FF80
03FF83FF80
001FFFF000
001FFFF000
001FFFF000
001FFFF000
001FFFF000
001FFFF000
000003FF80
000003FF80
000003FF80
000003FF80
000003FF80
FFE0000FFE
FFE0000FFE
FFE0000FFE
FFE0000FFE
FFE0000FFE
FFE0000FFE
03FFFFFF80
03FFFFFF80
03FFFFFF80
03FFFFFF80
03FFFFFF80
03FFFFFF80
ENDCHAR
STARTCHAR 00A8
ENCODING 168
SWIDTH 506 0
DWIDTH 45 0
BBX 28 11 6 56
BITMAP
FFE07FF0
FFE07FF0
FFE07FF0
FFE07FF0
FFE07FF0
FFE07FF0
FFE07FF0
FFE07FF0
FFE07FF0
FFE07FF0
FFE07FF0
ENDCHAR
STARTCHAR 00A9
ENCODING 169
SWIDTH 506 0
DWIDTH 45 0
BBX 45 56 0 11
BITMAP
001FFFFFC000
001FFFFFC000
001FFFFFC000
001FFFFFC000
001FFFFFC000
001FFFFFC000
03E000003E00
03E000003E00
03E000003E00
03E000003E00
03E000003E00
FC007FF001F8
FC007FF001F8
FC007FF001F8
FC007FF001F8
FC007FF001F8
FC007FF001F8
FC1F800FC1F8
FC1F800FC1F8
FC1F800FC1F8
FC1F800FC1F8
FC1F800FC1F8
FC1F800FC1F8
FC1F800001F8
FC1F800001F8
FC1F800001F8
FC1F800001F8
FC1F800001F8
FC1F800001F8
FC1F800001F8
FC1F800001F8
FC1F800001F8
FC1F800001F8
FC1F800001F8
FC1F800FC1F8
FC1F800FC1F8
FC1F800FC1F8
FC1F800FC1F8
FC1F800FC1F8
FC007FF001F8
FC007FF001F8
FC007FF001F8
FC007FF001F8
FC007FF001F8
FC007FF001F8
03E000003E00
03E000003E00
03E000003E00
03E000003E00
03E000003E00
001FFFFFC000
001FFFFFC000
001FFFFFC000
001FFFFFC000
001FFFFFC000
001FFFFFC000
ENDCHAR
STARTCHAR 00AA
ENCODING 170
SWIDTH 506 0
DWIDTH 45 0
BBX 33 33 6 39
BITMAP
07FFFFF000
07FFFFF000
07FFFFF000
07FFFFF000
07FFFFF000
FFFFFFF000
FFE07FF000
FFE07FF000
FFE07FF000
FFE07FF000
FFE07FF000
FFE07FF000
FFE07FF000
FFE07FF000
FFE07FF000
FFE07FF000
07FFFFFF80
07FFFFFF80
07FFFFFF80
07FFFFFF80
07FFFFFF80
07FFFFFF80
0000000000
0000000000
0000000000
0000000000
0000000000
FFFFFFFF80
FFFFFFFF80
FFFFFFFF80
FFFFFFFF80
FFFFFFFF80
FFFFFFFF80
ENDCHAR
STARTCHAR 00AB
ENCODING 171
SWIDTH 506 0
DWIDTH 45 0
BBX 39 28 0 22
BITMAP
001FFC0FFE
001FFC0FFE
001FFC0FFE
001FFC0FFE
001FFC0FFE
03FFFFFFFE
03FF83FF80
03FF83FF80
03FF83FF80
03FF83FF80
03FF83FF80
FFE07FF000
FFE07FF000
FFE07FF000
FFE07FF000
FFE07FF000
FFE07FF000
03FF83FF80
03FF83FF80
03FF83FF80
03FF83FF80
03FF83FF80
001FFC0FFE
001FFC0FFE
001FFC0FFE
001FFC0FFE
001FFC0FFE
001FFC0FFE
ENDCHAR
STARTCHAR 00AC
ENCODING 172
SWIDTH 506 0
DWIDTH 45 0
BBX 39 28 0 17
BITMAP
FFFFFFFFFE
FFFFFFFFFE
FFFFFFFFFE
FFFFFFFFFE
FFFFFFFFFE
FFFFFFFFFE
0000000FFE
0000000FFE
0000000FFE
0000000FFE
0000000FFE
0000000FFE
0000000FFE
0000000FFE
0000000FFE
0000000FFE
0000000FFE
0000000FFE
0000000FFE
0000000FFE
0000000FFE
0000000FFE
0000000FFE
0000000FFE
0000000FFE
0000000FFE
0000000FFE
0000000FFE
ENDCHAR
STARTCHAR 00AD
ENCODING 173
SWIDTH 506 0
DWIDTH 45 0
BBX 22 6 11 33
BITMAP
FFFFFC
FFFFFC
FFFFFC
FFFFFC
FFFFFC
FFFFFC
ENDCHAR
STARTCHAR 00AE
ENCODING 174
SWIDTH 506 0
DWIDTH 45 0
BBX 39 39 0 28
BITMAP
001FFFF000
001FFFF000
001FFFF000
001FFFF000
001FFFF000
03E0000FC0
03E0000FC0
03E0000FC0
03E0000FC0
03E0000FC0
03E0000FC0
FC1FFFF03E
FC1FFFF03E
FC1FFFF03E
FC1FFFF03E
FC1FFFF03E
FC1FFFF03E
FC1FFC003E
FC1FFC003E
FC1FFC003E
FC1FFC003E
FC1FFC003E
FC1F83F03E
FC1F83F03E
FC1F83F03E
FC1F83F03E
FC1F83F03E
FC1F83F03E
03E0000FC0
03E0000FC0
03E0000FC0
03E0000FC0
03E0000FC0
001FFFF000
001FFFF000
001FFFF000
001FFFF000
001FFFF000
001FFFF000
ENDCHAR
STARTCHAR 00AF
ENCODING 175
SWIDTH 506 0
DWIDTH 45 0
BBX 28 6 6 56
BITMAP
FFFFFFF0
FFFFFFF0
FFFFFFF0
FFFFFFF0
FFFFFFF0
FFFFFFF0
ENDCHAR
STARTCHAR 00B0
ENCODING 176
SWIDTH 506 0
DWIDTH 45 0
BBX 28 22 6 50
BITMAP
07FFFC00
07FFFC00
07FFFC00
07FFFC00
07FFFC00
FFE07FF0
FFE07FF0
FFE07FF0
FFE07FF0
FFE07FF0
FFE07FF0
FFE07FF0
FFE07FF0
FFE07FF0
FFE07FF0
FFE07FF0
07FFFC00
07FFFC00
07FFFC00
07FFFC00
07FFFC00
07FFFC00
ENDCHAR
STARTCHAR 00B1
ENCODING 177
SWIDTH 506 0
DWIDTH 45 0
BBX 33 39 6 17
BITMAP
001FFC0000
001FFC0000
001FFC0000
001FFC0000
001FFC0000
001FFC0000
001FFC0000
001FFC0000
001FFC0000
001FFC0000
001FFC0000
FFFFFFFF80
FFFFFFFF80
FFFFFFFF80
FFFFFFFF80
FFFFFFFF80
FFFFFFFF80
001FFC0000
001FFC0000
001FFC0000
001FFC0000
001FFC0000
001FFC0000
001FFC0000
001FFC0000
001FFC0000
001FFC0000
001FFC0000
0000000000
0000000000
0000000000
0000000000
0000000000
FFFFFFFF80
FFFFFFFF80
FFFFFFFF80
FFFFFFFF80
FFFFFFFF80
FFFFFFFF80
ENDCHAR
STARTCHAR 00B2
ENCODING 178
SWIDTH 506 0
DWIDTH 45 0
BBX 28 33 0 39
BITMAP
03FFFC00
03FFFC00
03FFFC00
03FFFC00
03FFFC00
FFFFFFF0
FFE07FF0
FFE07FF0
FFE07FF0
FFE07FF0
FFE07FF0
001FFC00
001FFC00
001FFC00
001FFC00
001FFC00
03FFFC00
03FF8000
03FF8000
03FF8000
03FF8000
03FF8000
FFE003F0
FFE003F0
FFE003F0
FFE003F0
FFE003F0
FFFFFFF0
FFFFFFF0
FFFFFFF0
FFFFFFF0
FFFFFFF0
FFFFFFF0
ENDCHAR
STARTCHAR 00B3
ENCODING 179
SWIDTH 506 0
DWIDTH 45 0
BBX 28 33 0 39
BITMAP
07FFFC00
07FFFC00
07FFFC00
07FFFC00
07FFFC00
FFFFFFF0
FFE07FF0
FFE07FF0
FFE07FF0
FFE07FF0
FFE07FF0
001FFC00
001FFC00
001FFC00
001FFC00
001FFC00
001FFFF0
00007FF0
00007FF0
00007FF0
00007FF0
00007FF0
FFE07FF0
FFE07FF0
FFE07FF0
FFE07FF0
FFE07FF0
07FFFC00
07FFFC00
07FFFC00
07FFFC00
07FFFC00
07FFFC00
ENDCHAR
STARTCHAR 00B4
ENCODING 180
SWIDTH 506 0
DWIDTH 45 0
BBX 17 11 17 56
BITMAP
03FF80
03FF80
03FF80
03FF80
03FF80
FFE000
FFE000
FFE000
FFE000
FFE000
FFE000
ENDCHAR
STARTCHAR 00B5
ENCODING 181
SWIDTH 506 0
DWIDTH 45 0
BBX 39 56 0 -6
BITMAP
FFE003FF80
FFE003FF80
FFE003FF80
FFE003FF80
FFE003FF80
FFE003FF80
FFE003FF80
FFE003FF80
FFE003FF80
FFE003FF80
FFE003FF80
FFE003FF80
FFE003FF80
FFE003FF80
FFE003FF80
FFE003FF80
FFE003FF80
FFE003FF80
FFE003FF80
FFE003FF80
FFE003FF80
FFE003FF80
FFE003FF80
FFE003FF80
FFE003FF80
FFE003FF80
FFE003FF80
FFE003FF80
FFE003FF80
FFE003FF80
FFE003FF80
FFE003FF80
FFE003FF80
FFFFFC0FFE
FFFFFC0FFE
FFFFFC0FFE
FFFFFC0FFE
FFFFFC0FFE
FFFFFC0FFE
FFE0000000
FFE0000000
FFE0000000
FFE0000000
FFE0000000
FFE0000000
FFE0000000
FFE0000000
FFE0000000
FFE0000000
FFE0000000
FFE0000000
FFE0000000
FFE0000000
FFE0000000
FFE0000000
FFE0000000
ENDCHAR
STARTCHAR 00B6
ENCODING 182
SWIDTH 506 0
DWIDTH 45 0
BBX 44 56 0 11
BITMAP
03FFFFFFFFF0
03FFFFFFFFF0
03FFFFFFFFF0
03FFFFFFFFF0
03FFFFFFFFF0
03FFFFFFFFF0
FFE07FF07FF0
FFE07FF07FF0
FFE07FF07FF0
FFE07FF07FF0
FFE07FF07FF0
FFE07FF07FF0
FFE07FF07FF0
FFE07FF07FF0
FFE07FF07FF0
FFE07FF07FF0
FFE07FF07FF0
FFE07FF07FF0
FFE07FF07FF0
FFE07FF07FF0
FFE07FF07FF0
FFE07FF07FF0
03FFFFF07FF0
03FFFFF07FF0
03FFFFF07FF0
03FFFFF07FF0
03FFFFF07FF0
03FFFFF07FF0
00007FF07FF0
00007FF07FF0
00007FF07FF0
00007FF07FF0
00007FF07FF0
00007FF07FF0
00007FF07FF0
00007FF07FF0
00007FF07FF0
00007FF07FF0
00007FF07FF0
00007FF07FF0
00007FF07FF0
00007FF07FF0
00007FF07FF0
00007FF07FF0
00007FF07FF0
00007FF07FF0
00007FF07FF0
00007FF07FF0
00007FF07FF0
00007FF07FF0
00007FF07FF0
00007FF07FF0
00007FF07FF0
00007FF07FF0
00007FF07FF0
00007FF07FF0
ENDCHAR
STARTCHAR 00B7
ENCODING 183
SWIDTH 506 0
DWIDTH 45 0
BBX 11 6 17 28
BITMAP
FFE0
FFE0
FFE0
FFE0
FFE0
FFE0
ENDCHAR
STARTCHAR 00B8
ENCODING 184
SWIDTH 506 0
DWIDTH 45 0
BBX 22 17 11 -6
BITMAP
03FF80
03FF80
03FF80
03FF80
03FF80
03FF80
001FFC
001FFC
001FFC
001FFC
001FFC
FFFF80
FFFF80
FFFF80
FFFF80
FFFF80
FFFF80
ENDCHAR
STARTCHAR 00B9
ENCODING 185
SWIDTH 506 0
DWIDTH 45 0
BBX 22 33 6 39
BITMAP
03FF80
03FF80
03FF80
03FF80
03FF80
FFFF80
FFFF80
FFFF80
FFFF80
FFFF80
FFFF80
03FF80
03FF80
03FF80
03FF80
03FF80
03FF80
03FF80
03FF80
03FF80
03FF80
03FF80
03FF80
03FF80
03FF80
03FF80
03FF80
FFFFFC
FFFFFC
FFFFFC
FFFFFC
FFFFFC
FFFFFC
ENDCHAR
STARTCHAR 00BA
ENCODING 186
SWIDTH 506 0
DWIDTH 45 0
BBX 28 33 6 39
BITMAP
07FFFC00
07FFFC00
07FFFC00
07FFFC00
07FFFC00
FFFFFFF0
FFE07FF0
FFE07FF0
FFE07FF0
FFE07FF0
FFE07FF0
FFE07FF0
FFE07FF0
FFE07FF0
FFE07FF0
FFE07FF0
07FFFC00
07FFFC00
07FFFC00
07FFFC00
07FFFC00
07FFFC00
00000000
00000000
00000000
00000000
00000000
FFFFFFF0
FFFFFFF0
FFFFFFF0
FFFFFFF0
FFFFFFF0
FFFFFFF0
ENDCHAR
STARTCHAR 00BB
ENCODING 187
SWIDTH 506 0
DWIDTH 45 0
BBX 39 28 0 22
BITMAP
FFE07FF000
FFE07FF000
FFE07FF000
FFE07FF000
FFE07FF000
FFFFFFFF80
03FF83FF80
03FF83FF80
03FF83FF80
03FF83FF80
03FF83FF80
001FFC0FFE
001FFC0FFE
001FFC0FFE
001FFC0FFE
001FFC0FFE
001FFC0FFE
03FF83FF80
03FF83FF80
03FF83FF80
03FF83FF80
03FF83FF80
FFE07FF000
FFE07FF000
FFE07FF000
FFE07FF000
FFE07FF000
FFE07FF000
ENDCHAR
STARTCHAR 00BC
ENCODING 188
SWIDTH 506 0
DWIDTH 45 0
BBX 39 73 0 0
BITMAP
FFE0000000
FFE0000000
FFE0000000
FFE0000000
FFE0000000
FFE0000000
FFE0000000
FFE0000000
FFE0000000
FFE0000000
FFE0000000
FFE0000000
FFE000007E
FFE000007E
FFE000007E
FFE000007E
FFE000007E
FFE0000FFE
FFE0000FFE
FFE0000FFE
FFE0000FFE
FFE0000FFE
FFE0000FFE
FFE003FF80
FFE003FF80
FFE003FF80
FFE003FF80
FFE003FF80
000003F000
00007FF000
00007FF000
00007FF000
00007FF000
00007FF000
001FFC0000
001FFC0000
001FFC0000
001FFC0000
001FFC0000
001FFC0000
03FF800FFE
03FF800FFE
03FF800FFE
03FF800FFE
03FF800FFE
FFE003FFFE
FFE003FFFE
FFE003FFFE
FFE003FFFE
FFE003FFFE
FFE003FFFE
FC007FFFFE
FC007FFFFE
FC007FFFFE
FC007FFFFE
FC007FFFFE
001FFFFFFE
001FFFFFFE
001FFFFFFE
001FFFFFFE
001FFFFFFE
001FFFFFFE
0000000FFE
0000000FFE
0000000FFE
0000000FFE
0000000FFE
0000000FFE
0000000FFE
0000000FFE
0000000FFE
0000000FFE
0000000FFE
ENDCHAR
STARTCHAR 00BD
ENCODING 189
SWIDTH 506 0
DWIDTH 45 0
BBX 39 73 0 0
BITMAP
FFE0000000
FFE0000000
FFE0000000
FFE0000000
FFE0000000
FFE0000000
FFE0000000
FFE0000000
FFE0000000
FFE0000000
FFE0000000
FFE0000000
FFE000007E
FFE000007E
FFE000007E
FFE000007E
FFE000007E
FFE0000FFE
FFE0000FFE
FFE0000FFE
FFE0000FFE
FFE0000FFE
FFE0000FFE
FFE003FF80
FFE003FF80
FFE003FF80
FFE003FF80
FFE003FF80
000003F000
00007FF000
00007FF000
00007FF000
00007FF000
00007FF000
001FFC0000
001FFC0000
001FFC0000
001FFC0000
001FFC0000
001FFC0000
03FF800000
03FF800000
03FF800000
03FF800000
03FF800000
FFE07FFF80
FFE07FFF80
FFE07FFF80
FFE07FFF80
FFE07FFF80
FFE07FFF80
FC00000FFE
FC00000FFE
FC00000FFE
FC00000FFE
FC00000FFE
000003FF80
000003FF80
000003FF80
000003FF80
000003FF80
000003FF80
00007FF000
00007FF000
00007FF000
00007FF000
00007FF000
001FFFFFFE
001FFFFFFE
001FFFFFFE
001FFFFFFE
001FFFFFFE
001FFFFFFE
ENDCHAR
STARTCHAR 00BE
ENCODING 190
SWIDTH 506 0
DWIDTH 45 0
BBX 39 72 0 0
BITMAP
FFFF800000
FFFF800000
FFFF800000
FFFF800000
FFFF800000
001FFC0000
001FFC0000
001FFC0000
001FFC0000
001FFC0000
001FFC0000
03FF80007E
03FF80007E
03FF80007E
03FF80007E
03FF80007E
001FFC0FFE
001FFC0FFE
001FFC0FFE
001FFC0FFE
001FFC0FFE
001FFC0FFE
FFFF83FF80
FFFF83FF80
FFFF83FF80
FFFF83FF80
FFFF83FF80
FFFF83FF80
00007FF000
00007FF000
00007FF000
00007FF000
00007FF000
001FFC0000
001FFC0000
001FFC0000
001FFC0000
001FFC0000
001FFC0000
03FF800FFE
03FF800FFE
03FF800FFE
03FF800FFE
03FF800FFE
FFE003FFFE
FFE003FFFE
FFE003FFFE
FFE003FFFE
FFE003FFFE
FFE003FFFE
FC007FFFFE
FC007FFFFE
FC007FFFFE
FC007FFFFE
FC007FFFFE
001FFFFFFE
001FFFFFFE
001FFFFFFE
001FFFFFFE
001FFFFFFE
001FFFFFFE
0000000FFE
0000000FFE
0000000FFE
0000000FFE
0000000FFE
0000000FFE
0000000FFE
0000000FFE
0000000FFE
0000000FFE
0000000FFE
ENDCHAR
STARTCHAR 00BF
ENCODING 191
SWIDTH 506 0
DWIDTH 45 0
BBX 39 56 0 11
BITMAP
001FFC0000
001FFC0000
001FFC0000
001FFC0000
001FFC0000
001FFC0000
001FFC0000
001FFC0000
001FFC0000
001FFC0000
001FFC0000
0000000000
0000000000
0000000000
0000000000
0000000000
0000000000
001FFC0000
001FFC0000
001FFC0000
001FFC0000
001FFC0000
001FFC0000
001FFC0000
001FFC0000
001FFC0000
001FFC0000
001FFC0000
03FF800000
03FF800000
03FF800000
03FF800000
03FF800000
FFE0000000
FFE0000000
FFE0000000
FFE0000000
FFE0000000
FFE0000000
FFE0000FFE
FFE0000FFE
FFE0000FFE
FFE0000FFE
FFE0000FFE
FFE0000FFE
FFE0000FFE
FFE0000FFE
FFE0000FFE
FFE0000FFE
FFE0000FFE
03FFFFFFC0
03FFFFFFC0
03FFFFFFC0
03FFFFFFC0
03FFFFFFC0
03FFFFFFC0
ENDCHAR
STARTCHAR 00C0
ENCODING 192
SWIDTH 506 0
DWIDTH 45 0
BBX 39 67 0 11
BITMAP
03FF800000
03FF800000
03FF800000
03FF800000
03FF800000
03FF800000
001FFC0000
001FFC0000
001FFC0000
001FFC0000
001FFC0000
001FFC0000
0000000000
0000000000
0000000000
0000000000
0000000000
00007C0000
00007C0000
00007C0000
00007C0000
00007C0000
00007C0000
001FFFF000
001FFFF000
001FFFF000
001FFFF000
001FFFF000
03FF83FF80
03FF83FF80
03FF83FF80
03FF83FF80
03FF83FF80
03FF83FF80
FFE0000FFE
FFE0000FFE
FFE0000FFE
FFE0000FFE
FFE0000FFE
FFE0000FFE
FFE0000FFE
FFE0000FFE
FFE0000FFE
FFE0000FFE
FFE0000FFE
FFFFFFFFFE
FFFFFFFFFE
FFFFFFFFFE
FFFFFFFFFE
FFFFFFFFFE
FFFFFFFFFE
FFE0000FFE
FFE0000FFE
FFE0000FFE
FFE0000FFE
FFE0000FFE
FFE0000FFE
FFE0000FFE
FFE0000FFE
FFE0000FFE
FFE0000FFE
FFE0000FFE
FFE0000FFE
FFE0000FFE
FFE0000FFE
FFE0000FFE
FFE0000FFE
ENDCHAR
STARTCHAR 00C1
ENCODING 193
SWIDTH 506 0
DWIDTH 45 0
BBX 39 67 0 11
BITMAP
000003FF80
000003FF80
000003FF80
000003FF80
000003FF80
000003FF80
00007FF000
00007FF000
00007FF000
00007FF000
00007FF000
00007FF000
0000000000
0000000000
0000000000
0000000000
0000000000
00007C0000
00007C0000
00007C0000
00007C0000
00007C0000
00007C0000
001FFFF000
001FFFF000
001FFFF000
001FFFF000
001FFFF000
03FF83FF80
03FF83FF80
03FF83FF80
03FF83FF80
03FF83FF80
03FF83FF80
FFE0000FFE
FFE0000FFE
FFE0000FFE
FFE0000FFE
FFE0000FFE
FFE0000FFE
FFE0000FFE
FFE0000FFE
FFE0000FFE
FFE0000FFE
FFE0000FFE
FFFFFFFFFE
FFFFFFFFFE
FFFFFFFFFE
FFFFFFFFFE
FFFFFFFFFE
FFFFFFFFFE
FFE0000FFE
FFE0000FFE
FFE0000FFE
FFE0000FFE
FFE0000FFE
FFE0000FFE
FFE0000FFE
FFE0000FFE
FFE0000FFE
FFE0000FFE
FFE0000FFE
FFE0000FFE
FFE0000FFE
FFE0000FFE
FFE0000FFE
FFE0000FFE
ENDCHAR
STARTCHAR 00C2
ENCODING 194
SWIDTH 506 0
DWIDTH 45 0
BBX 39 67 0 11
BITMAP
00007C0000
00007C0000
00007C0000
00007C0000
00007C0000
001FFC0000
001FFFF000
001FFFF000
001FFFF000
001FFFF000
001FFFF000
03FF83FF80
03FF83FF80
03FF83FF80
03FF83FF80
03FF83FF80
03FF83FF80
00007C0000
00007C0000
00007C0000
00007C0000
00007C0000
00007C0000
001FFFF000
001FFFF000
001FFFF000
001FFFF000
001FFFF000
03FF83FF80
03FF83FF80
03FF83FF80
03FF83FF80
03FF83FF80
03FF83FF80
FFE0000FFE
FFE0000FFE
FFE0000FFE
FFE0000FFE
FFE0000FFE
FFE0000FFE
FFE0000FFE
FFE0000FFE
FFE0000FFE
FFE0000FFE
FFE0000FFE
FFFFFFFFFE
FFFFFFFFFE
FFFFFFFFFE
FFFFFFFFFE
FFFFFFFFFE
FFFFFFFFFE
FFE0000FFE
FFE0000FFE
FFE0000FFE
FFE0000FFE
FFE0000FFE
FFE0000FFE
FFE0000FFE
FFE0000FFE
FFE0000FFE
FFE0000FFE
FFE0000FFE
FFE0000FFE
FFE0000FFE
FFE0000FFE
FFE0000FFE
FFE0000FFE
ENDCHAR
STARTCHAR 00C3
ENCODING 195
SWIDTH 506 0
DWIDTH 45 0
BBX 39 67 0 11
BITMAP
03FFFC0FFE
03FFFC0FFE
03FFFC0FFE
03FFFC0FFE
03FFFC0FFE
03FFFC0FFE
FFE07FFF80
FFE07FFF80
FFE07FFF80
FFE07FFF80
FFE07FFF80
FFE07FFF80
0000000000
0000000000
0000000000
0000000000
0000000000
00007C0000
00007C0000
00007C0000
00007C0000
00007C0000
00007C0000
001FFFF000
001FFFF000
001FFFF000
001FFFF000
001FFFF000
03FF83FF80
03FF83FF80
03FF83FF80
03FF83FF80
03FF83FF80
03FF83FF80
FFE0000FFE
FFE0000FFE
FFE0000FFE
FFE0000FFE
FFE0000FFE
FFE0000FFE
FFE0000FFE
FFE0000FFE
FFE0000FFE
FFE0000FFE
FFE0000FFE
FFFFFFFFFE
FFFFFFFFFE
FFFFFFFFFE
FFFFFFFFFE
FFFFFFFFFE
FFFFFFFFFE
FFE0000FFE
FFE0000FFE
FFE0000FFE
FFE0000FFE
FFE0000FFE
FFE0000FFE
FFE0000FFE
FFE0000FFE
FFE0000FFE
FFE0000FFE
FFE0000FFE
FFE0000FFE
FFE0000FFE
FFE0000FFE
FFE0000FFE
FFE0000FFE
ENDCHAR
STARTCHAR 00C4
ENCODING 196
SWIDTH 506 0
DWIDTH 45 0
BBX 39 67 0 11
BITMAP
03FF83FF80
03FF83FF80
03FF83FF80
03FF83FF80
03FF83FF80
03FF83FF80
03FF83FF80
03FF83FF80
03FF83FF80
03FF83FF80
03FF83FF80
0000000000
0000000000
0000000000
0000000000
0000000000
0000000000
00007C0000
00007C0000
00007C0000
00007C0000
00007C0000
00007C0000
001FFFF000
001FFFF000
001FFFF000
001FFFF000
001FFFF000
03FF83FF80
03FF83FF80
03FF83FF80
03FF83FF80
03FF83FF80
03FF83FF80
FFE0000FFE
FFE0000FFE
FFE0000FFE
FFE0000FFE
FFE0000FFE
FFE0000FFE
FFE0000FFE
FFE0000FFE
FFE0000FFE
FFE0000FFE
FFE0000FFE
FFFFFFFFFE
FFFFFFFFFE
FFFFFFFFFE
FFFFFFFFFE
FFFFFFFFFE
FFFFFFFFFE
FFE0000FFE
FFE0000FFE
FFE0000FFE
FFE0000FFE
FFE0000FFE
FFE0000FFE
FFE0000FFE
FFE0000FFE
FFE0000FFE
FFE0000FFE
FFE0000FFE
FFE0000FFE
FFE0000FFE
FFE0000FFE
FFE0000FFE
FFE0000FFE
ENDCHAR
STARTCHAR 00C5
ENCODING 197
SWIDTH 506 0
DWIDTH 45 0
BBX 39 67 0 11
BITMAP
001FFFF000
001FFFF000
001FFFF000
001FFFF000
001FFFF000
001FFFF000
03FF83FF80
03FF83FF80
03FF83FF80
03FF83FF80
03FF83FF80
001FFFF000
001FFFF000
001FFFF000
001FFFF000
001FFFF000
001FFFF000
00007C0000
00007C0000
00007C0000
00007C0000
00007C0000
00007C0000
001FFFF000
001FFFF000
001FFFF000
001FFFF000
001FFFF000
03FF83FF80
03FF83FF80
03FF83FF80
03FF83FF80
03FF83FF80
03FF83FF80
FFE0000FFE
FFE0000FFE
FFE0000FFE
FFE0000FFE
FFE0000FFE
FFE0000FFE
FFE0000FFE
FFE0000FFE
FFE0000FFE
FFE0000FFE
FFE0000FFE
FFFFFFFFFE
FFFFFFFFFE
FFFFFFFFFE
FFFFFFFFFE
FFFFFFFFFE
FFFFFFFFFE
FFE0000FFE
FFE0000FFE
FFE0000FFE
FFE0000FFE
FFE0000FFE
FFE0000FFE
FFE0000FFE
FFE0000FFE
FFE0000FFE
FFE0000FFE
FFE0000FFE
FFE0000FFE
FFE0000FFE
FFE0000FFE
FFE0000FFE
FFE0000FFE
ENDCHAR
STARTCHAR 00C6
ENCODING 198
SWIDTH 506 0
DWIDTH 45 0
BBX 39 56 0 11
BITMAP
001FFFFFFE
001FFFFFFE
001FFFFFFE
001FFFFFFE
001FFFFFFE
001FFFFFFE
03FF83FF80
03FF83FF80
03FF83FF80
03FF83FF80
03FF83FF80
03FF83FF80
FFE003FF80
FFE003FF80
FFE003FF80
FFE003FF80
FFE003FF80
FFE003FF80
FFE003FF80
FFE003FF80
FFE003FF80
FFE003FF80
FFFFFFFFFE
FFFFFFFFFE
FFFFFFFFFE
FFFFFFFFFE
FFFFFFFFFE
FFFFFFFFFE
FFE003FF80
FFE003FF80
FFE003FF80
FFE003FF80
FFE003FF80
FFE003FF80
FFE003FF80
FFE003FF80
FFE003FF80
FFE003FF80
FFE003FF80
FFE003FF80
FFE003FF80
FFE003FF80
FFE003FF80
FFE003FF80
FFE003FF80
FFE003FF80
FFE003FF80
FFE003FF80
FFE003FF80
FFE003FF80
FFE003FFFE
FFE003FFFE
FFE003FFFE
FFE003FFFE
FFE003FFFE
FFE003FFFE
ENDCHAR
STARTCHAR 00C7
ENCODING 199
SWIDTH 506 0
DWIDTH 45 0
BBX 39 73 0 -6
BITMAP
001FFFFF80
001FFFFF80
001FFFFF80
001FFFFF80
001FFFFF80
001FFFFF80
03FF800FFE
03FF800FFE
03FF800FFE
03FF800FFE
03FF800FFE
03FF800FFE
FFE000007E
FFE000007E
FFE000007E
FFE000007E
FFE000007E
FFE0000000
FFE0000000
FFE0000000
FFE0000000
FFE0000000
FFE0000000
FFE0000000
FFE0000000
FFE0000000
FFE0000000
FFE0000000
FFE0000000
FFE0000000
FFE0000000
FFE0000000
FFE0000000
FFE0000000
FFE0000000
FFE0000000
FFE0000000
FFE0000000
FFE0000000
FFE0000000
FFE000007E
FFE000007E
FFE000007E
FFE000007E
FFE000007E
03FF800FFE
03FF800FFE
03FF800FFE
03FF800FFE
03FF800FFE
03FF800FFE
001FFFFF80
001FFFFF80
001FFFFF80
001FFFFF80
001FFFFF80
00007FF000
00007FF000
00007FF000
00007FF000
00007FF000
00007FF000
000003FF80
000003FF80
000003FF80
000003FF80
000003FF80
001FFFF000
001FFFF000
001FFFF000
001FFFF000
001FFFF000
001FFFF000
ENDCHAR
STARTCHAR 00C8
ENCODING 200
SWIDTH 506 0
DWIDTH 45 0
BBX 39 67 1 11
BITMAP
001FFC0000
001FFC0000
001FFC0000
001FFC0000
001FFC0000
001FFC0000
0000FFE000
0000FFE000
0000FFE000
0000FFE000
0000FFE000
0000FFE000
0000000000
0000000000
0000000000
0000000000
0000000000
FFFFFFFFFE
FFFFFFFFFE
FFFFFFFFFE
FFFFFFFFFE
FFFFFFFFFE
FFFFFFFFFE
07FF001FFE
07FF001FFE
07FF001FFE
07FF001FFE
07FF001FFE
07FF00007E
07FF00007E
07FF00007E
07FF00007E
07FF00007E
07FF00007E
07FF03E000
07FF03E000
07FF03E000
07FF03E000
07FF03E000
07FFFFE000
07FFFFE000
07FFFFE000
07FFFFE000
07FFFFE000
07FFFFE000
07FF03E000
07FF03E000
07FF03E000
07FF03E000
07FF03E000
07FF00007E
07FF00007E
07FF00007E
07FF00007E
07FF00007E
07FF00007E
07FF001FFE
07FF001FFE
07FF001FFE
07FF001FFE
07FF001FFE
FFFFFFFFFE
FFFFFFFFFE
FFFFFFFFFE
FFFFFFFFFE
FFFFFFFFFE
FFFFFFFFFE
ENDCHAR
STARTCHAR 00C9
ENCODING 201
SWIDTH 506 0
DWIDTH 45 0
BBX 39 67 1 11
BITMAP
000007FF00
000007FF00
000007FF00
000007FF00
000007FF00
000007FF00
0000FFE000
0000FFE000
0000FFE000
0000FFE000
0000FFE000
0000FFE000
0000000000
0000000000
0000000000
0000000000
0000000000
FFFFFFFFFE
FFFFFFFFFE
FFFFFFFFFE
FFFFFFFFFE
FFFFFFFFFE
FFFFFFFFFE
07FF001FFE
07FF001FFE
07FF001FFE
07FF001FFE
07FF001FFE
07FF00007E
07FF00007E
07FF00007E
07FF00007E
07FF00007E
07FF00007E
07FF07E000
07FF07E000
07FF07E000
07FF07E000
07FF07E000
07FFFFE000
07FFFFE000
07FFFFE000
07FFFFE000
07FFFFE000
07FFFFE000
07FF07E000
07FF07E000
07FF07E000
07FF07E000
07FF07E000
07FF00007E
07FF00007E
07FF00007E
07FF00007E
07FF00007E
07FF00007E
07FF001FFE
07FF001FFE
07FF001FFE
07FF001FFE
07FF001FFE
FFFFFFFFFE
FFFFFFFFFE
FFFFFFFFFE
FFFFFFFFFE
FFFFFFFFFE
FFFFFFFFFE
ENDCHAR
STARTCHAR 00CA
ENCODING 202
SWIDTH 506 0
DWIDTH 45 0
BBX 39 67 1 11
BITMAP
0000FC0000
0000FC0000
0000FC0000
0000FC0000
0000FC0000
0000FC0000
001FFFE000
001FFFE000
001FFFE000
001FFFE000
001FFFE000
07E0001F80
07E0001F80
07E0001F80
07E0001F80
07E0001F80
07E0001F80
FFFFFFFFFE
FFFFFFFFFE
FFFFFFFFFE
FFFFFFFFFE
FFFFFFFFFE
FFFFFFFFFE
07FF001FFE
07FF001FFE
07FF001FFE
07FF001FFE
07FF001FFE
07FF00007E
07FF00007E
07FF00007E
07FF00007E
07FF00007E
07FF00007E
07FF03E000
07FF03E000
07FF03E000
07FF03E000
07FF03E000
07FFFFE000
07FFFFE000
07FFFFE000
07FFFFE000
07FFFFE000
07FFFFE000
07FF03E000
07FF03E000
07FF03E000
07FF03E000
07FF03E000
07FF00007E
07FF00007E
07FF00007E
07FF00007E
07FF00007E
07FF00007E
07FF001FFE
07FF001FFE
07FF001FFE
07FF001FFE
07FF001FFE
FFFFFFFFFE
FFFFFFFFFE
FFFFFFFFFE
FFFFFFFFFE
FFFFFFFFFE
FFFFFFFFFE
ENDCHAR
STARTCHAR 00CB
ENCODING 203
SWIDTH 506 0
DWIDTH 45 0
BBX 39 67 1 11
BITMAP
07FF07FF00
07FF07FF00
07FF07FF00
07FF07FF00
07FF07FF00
07FF07FF00
07FF07FF00
07FF07FF00
07FF07FF00
07FF07FF00
07FF07FF00
0000000000
0000000000
0000000000
0000000000
0000000000
0000000000
FFFFFFFFFE
FFFFFFFFFE
FFFFFFFFFE
FFFFFFFFFE
FFFFFFFFFE
FFFFFFFFFE
07FF001FFE
07FF001FFE
07FF001FFE
07FF001FFE
07FF001FFE
07FF00007E
07FF00007E
07FF00007E
07FF00007E
07FF00007E
07FF00007E
07FF07E000
07FF07E000
07FF07E000
07FF07E000
07FF07E000
07FFFFE000
07FFFFE000
07FFFFE000
07FFFFE000
07FFFFE000
07FFFFE000
07FF07E000
07FF07E000
07FF07E000
07FF07E000
07FF07E000
07FF00007E
07FF00007E
07FF00007E
07FF00007E
07FF00007E
07FF00007E
07FF001FFE
07FF001FFE
07FF001FFE
07FF001FFE
07FF001FFE
FFFFFFFFFE
FFFFFFFFFE
FFFFFFFFFE
FFFFFFFFFE
FFFFFFFFFE
FFFFFFFFFE
ENDCHAR
STARTCHAR 00CC
ENCODING 204
SWIDTH 506 0
DWIDTH 45 0
BBX 22 67 11 11
BITMAP
FFE000
FFE000
FFE000
FFE000
FFE000
FFE000
03FF80
03FF80
03FF80
03FF80
03FF80
03FF80
000000
000000
000000
000000
000000
FFFFFC
FFFFFC
FFFFFC
FFFFFC
FFFFFC
FFFFFC
03FF80
03FF80
03FF80
03FF80
03FF80
03FF80
03FF80
03FF80
03FF80
03FF80
03FF80
03FF80
03FF80
03FF80
03FF80
03FF80
03FF80
03FF80
03FF80
03FF80
03FF80
03FF80
03FF80
03FF80
03FF80
03FF80
03FF80
03FF80
03FF80
03FF80
03FF80
03FF80
03FF80
03FF80
03FF80
03FF80
03FF80
03FF80
FFFFFC
FFFFFC
FFFFFC
FFFFFC
FFFFFC
FFFFFC
ENDCHAR
STARTCHAR 00CD
ENCODING 205
SWIDTH 506 0
DWIDTH 45 0
BBX 22 67 11 11
BITMAP
001FFC
001FFC
001FFC
001FFC
001FFC
001FFC
03FF80
03FF80
03FF80
03FF80
03FF80
03FF80
000000
000000
000000
000000
000000
FFFFFC
FFFFFC
FFFFFC
FFFFFC
FFFFFC
FFFFFC
03FF80
03FF80
03FF80
03FF80
03FF80
03FF80
03FF80
03FF80
03FF80
03FF80
03FF80
03FF80
03FF80
03FF80
03FF80
03FF80
03FF80
03FF80
03FF80
03FF80
03FF80
03FF80
03FF80
03FF80
03FF80
03FF80
03FF80
03FF80
03FF80
03FF80
03FF80
03FF80
03FF80
03FF80
03FF80
03FF80
03FF80
03FF80
FFFFFC
FFFFFC
FFFFFC
FFFFFC
FFFFFC
FFFFFC
ENDCHAR
STARTCHAR 00CE
ENCODING 206
SWIDTH 506 0
DWIDTH 45 0
BBX 34 67 6 11
BITMAP
001FFC0000
001FFC0000
001FFC0000
001FFC0000
001FFC0000
001FFC0000
03FFFFF000
03FFFFF000
03FFFFF000
03FFFFF000
03FFFFF000
FC00000FC0
FC00000FC0
FC00000FC0
FC00000FC0
FC00000FC0
FC00000FC0
03FFFFF000
03FFFFF000
03FFFFF000
03FFFFF000
03FFFFF000
03FFFFF000
001FFC0000
001FFC0000
001FFC0000
001FFC0000
001FFC0000
001FFC0000
001FFC0000
001FFC0000
001FFC0000
001FFC0000
001FFC0000
001FFC0000
001FFC0000
001FFC0000
001FFC0000
001FFC0000
001FFC0000
001FFC0000
001FFC0000
001FFC0000
001FFC0000
001FFC0000
001FFC0000
001FFC0000
001FFC0000
001FFC0000
001FFC0000
001FFC0000
001FFC0000
001FFC0000
001FFC0000
001FFC0000
001FFC0000
001FFC0000
001FFC0000
001FFC0000
001FFC0000
001FFC0000
03FFFFF000
03FFFFF000
03FFFFF000
03FFFFF000
03FFFFF000
03FFFFF000
ENDCHAR
STARTCHAR 00CF
ENCODING 207
SWIDTH 506 0
DWIDTH 45 0
BBX 33 67 6 11
BITMAP
FFE003FF80
FFE003FF80
FFE003FF80
FFE003FF80
FFE003FF80
FFE003FF80
FFE003FF80
FFE003FF80
FFE003FF80
FFE003FF80
FFE003FF80
0000000000
0000000000
0000000000
0000000000
0000000000
0000000000
03FFFFF000
03FFFFF000
03FFFFF000
03FFFFF000
03FFFFF000
03FFFFF000
001FFC0000
001FFC0000
001FFC0000
001FFC0000
001FFC0000
001FFC0000
001FFC0000
001FFC0000
001FFC0000
001FFC0000
001FFC0000
001FFC0000
001FFC0000
001FFC0000
001FFC0000
001FFC0000
001FFC0000
001FFC0000
001FFC0000
001FFC0000
001FFC0000
001FFC0000
001FFC0000
001FFC0000
001FFC0000
001FFC0000
001FFC0000
001FFC0000
001FFC0000
001FFC0000
001FFC0000
001FFC0000
001FFC0000
001FFC0000
001FFC0000
001FFC0000
001FFC0000
001FFC0000
03FFFFF000
03FFFFF000
03FFFFF000
03FFFFF000
03FFFFF000
03FFFFF000
ENDCHAR
STARTCHAR 00D0
ENCODING 208
SWIDTH 506 0
DWIDTH 45 0
BBX 39 56 0 11
BITMAP
FFFFFFF000
FFFFFFF000
FFFFFFF000
FFFFFFF000
FFFFFFF000
FFFFFFF000
03FF83FF80
03FF83FF80
03FF83FF80
03FF83FF80
03FF83FF80
03FF83FF80
03FF800FFE
03FF800FFE
03FF800FFE
03FF800FFE
03FF800FFE
03FF800FFE
03FF800FFE
03FF800FFE
03FF800FFE
03FF800FFE
FFFFFC0FFE
FFFFFC0FFE
FFFFFC0FFE
FFFFFC0FFE
FFFFFC0FFE
FFFFFC0FFE
03FF800FFE
03FF800FFE
03FF800FFE
03FF800FFE
03FF800FFE
03FF800FFE
03FF800FFE
03FF800FFE
03FF800FFE
03FF800FFE
03FF800FFE
03FF800FFE
03FF800FFE
03FF800FFE
03FF800FFE
03FF800FFE
03FF800FFE
03FF83FF80
03FF83FF80
03FF83FF80
03FF83FF80
03FF83FF80
FFFFFFF000
FFFFFFF000
FFFFFFF000
FFFFFFF000
FFFFFFF000
FFFFFFF000
ENDCHAR
STARTCHAR 00D1
ENCODING 209
SWIDTH 506 0
DWIDTH 45 0
BBX 39 67 0 11
BITMAP
07FFFC0FFE
07FFFC0FFE
07FFFC0FFE
07FFFC0FFE
07FFFC0FFE
07FFFC0FFE
FFE07FFFC0
FFE07FFFC0
FFE07FFFC0
FFE07FFFC0
FFE07FFFC0
FFE07FFFC0
0000000000
0000000000
0000000000
0000000000
0000000000
FFE0000FFE
FFE0000FFE
FFE0000FFE
FFE0000FFE
FFE0000FFE
FFFF800FFE
FFFF800FFE
FFFF800FFE
FFFF800FFE
FFFF800FFE
FFFF800FFE
FFFFFC0FFE
FFFFFC0FFE
FFFFFC0FFE
FFFFFC0FFE
FFFFFC0FFE
FFFFFC0FFE
FFFFFFFFFE
FFFFFFFFFE
FFFFFFFFFE
FFFFFFFFFE
FFFFFFFFFE
FFE07FFFFE
FFE07FFFFE
FFE07FFFFE
FFE07FFFFE
FFE07FFFFE
FFE07FFFFE
FFE003FFFE
FFE003FFFE
FFE003FFFE
FFE003FFFE
FFE003FFFE
FFE003FFFE
FFE0000FFE
FFE0000FFE
FFE0000FFE
FFE0000FFE
FFE0000FFE
FFE0000FFE
FFE0000FFE
FFE0000FFE
FFE0000FFE
FFE0000FFE
FFE0000FFE
FFE0000FFE
FFE0000FFE
FFE0000FFE
FFE0000FFE
FFE0000FFE
ENDCHAR
STARTCHAR 00D2
ENCODING 210
SWIDTH 506 0
DWIDTH 45 0
BBX 39 67 0 11
BITMAP
03FF800000
03FF800000
03FF800000
03FF800000
03FF800000
03FF800000
001FFC0000
001FFC0000
001FFC0000
001FFC0000
001FFC0000
001FFC0000
0000000000
0000000000
0000000000
0000000000
0000000000
03FFFFFFC0
03FFFFFFC0
03FFFFFFC0
03FFFFFFC0
03FFFFFFC0
03FFFFFFC0
FFE0000FFE
FFE0000FFE
FFE0000FFE
FFE0000FFE
FFE0000FFE
FFE0000FFE
FFE0000FFE
FFE0000FFE
FFE0000FFE
FFE0000FFE
FFE0000FFE
FFE0000FFE
FFE0000FFE
FFE0000FFE
FFE0000FFE
FFE0000FFE
FFE0000FFE
FFE0000FFE
FFE0000FFE
FFE0000FFE
FFE0000FFE
FFE0000FFE
FFE0000FFE
FFE0000FFE
FFE0000FFE
FFE0000FFE
FFE0000FFE
FFE0000FFE
FFE0000FFE
FFE0000FFE
FFE0000FFE
FFE0000FFE
FFE0000FFE
FFE0000FFE
FFE0000FFE
FFE0000FFE
FFE0000FFE
FFE0000FFE
03FFFFFFC0
03FFFFFFC0
03FFFFFFC0
03FFFFFFC0
03FFFFFFC0
03FFFFFFC0
ENDCHAR
STARTCHAR 00D3
ENCODING 211
SWIDTH 506 0
DWIDTH 45 0
BBX 39 67 0 11
BITMAP
000003FF80
000003FF80
000003FF80
000003FF80
000003FF80
000003FF80
00007FF000
00007FF000
00007FF000
00007FF000
00007FF000
00007FF000
0000000000
0000000000
0000000000
0000000000
0000000000
07FFFFFF80
07FFFFFF80
07FFFFFF80
07FFFFFF80
07FFFFFF80
07FFFFFF80
FFE0000FFE
FFE0000FFE
FFE0000FFE
FFE0000FFE
FFE0000FFE
FFE0000FFE
FFE0000FFE
FFE0000FFE
FFE0000FFE
FFE0000FFE
FFE0000FFE
FFE0000FFE
FFE0000FFE
FFE0000FFE
FFE0000FFE
FFE0000FFE
FFE0000FFE
FFE0000FFE
FFE0000FFE
FFE0000FFE
FFE0000FFE
FFE0000FFE
FFE0000FFE
FFE0000FFE
FFE0000FFE
FFE0000FFE
FFE0000FFE
FFE0000FFE
FFE0000FFE
FFE0000FFE
FFE0000FFE
FFE0000FFE
FFE0000FFE
FFE0000FFE
FFE0000FFE
FFE0000FFE
FFE0000FFE
FFE0000FFE
07FFFFFF80
07FFFFFF80
07FFFFFF80
07FFFFFF80
07FFFFFF80
07FFFFFF80
ENDCHAR
STARTCHAR 00D4
ENCODING 212
SWIDTH 506 0
DWIDTH 45 0
BBX 39 67 0 11
BITMAP
0000FC0000
0000FC0000
0000FC0000
0000FC0000
0000FC0000
0000FC0000
001FFFF000
001FFFF000
001FFFF000
001FFFF000
001FFFF000
07E0000FC0
07E0000FC0
07E0000FC0
07E0000FC0
07E0000FC0
07E0000FC0
07FFFFFFC0
07FFFFFFC0
07FFFFFFC0
07FFFFFFC0
07FFFFFFC0
07FFFFFFC0
FFE0000FFE
FFE0000FFE
FFE0000FFE
FFE0000FFE
FFE0000FFE
FFE0000FFE
FFE0000FFE
FFE0000FFE
FFE0000FFE
FFE0000FFE
FFE0000FFE
FFE0000FFE
FFE0000FFE
FFE0000FFE
FFE0000FFE
FFE0000FFE
FFE0000FFE
FFE0000FFE
FFE0000FFE
FFE0000FFE
FFE0000FFE
FFE0000FFE
FFE0000FFE
FFE0000FFE
FFE0000FFE
FFE0000FFE
FFE0000FFE
FFE0000FFE
FFE0000FFE
FFE0000FFE
FFE0000FFE
FFE0000FFE
FFE0000FFE
FFE0000FFE
FFE0000FFE
FFE0000FFE
FFE0000FFE
FFE0000FFE
07FFFFFFC0
07FFFFFFC0
07FFFFFFC0
07FFFFFFC0
07FFFFFFC0
07FFFFFFC0
ENDCHAR
STARTCHAR 00D5
ENCODING 213
SWIDTH 506 0
DWIDTH 45 0
BBX 39 67 0 11
BITMAP
07FFFC0FFE
07FFFC0FFE
07FFFC0FFE
07FFFC0FFE
07FFFC0FFE
07FFFC0FFE
FFE07FFFC0
FFE07FFFC0
FFE07FFFC0
FFE07FFFC0
FFE07FFFC0
FFE07FFFC0
0000000000
0000000000
0000000000
0000000000
0000000000
07FFFFFFC0
07FFFFFFC0
07FFFFFFC0
07FFFFFFC0
07FFFFFFC0
07FFFFFFC0
FFE0000FFE
FFE0000FFE
FFE0000FFE
FFE0000FFE
FFE0000FFE
FFE0000FFE
FFE0000FFE
FFE0000FFE
FFE0000FFE
FFE0000FFE
FFE0000FFE
FFE0000FFE
FFE0000FFE
FFE0000FFE
FFE0000FFE
FFE0000FFE
FFE0000FFE
FFE0000FFE
FFE0000FFE
FFE0000FFE
FFE0000FFE
FFE0000FFE
FFE0000FFE
FFE0000FFE
FFE0000FFE
FFE0000FFE
FFE0000FFE
FFE0000FFE
FFE0000FFE
FFE0000FFE
FFE0000FFE
FFE0000FFE
FFE0000FFE
FFE0000FFE
FFE0000FFE
FFE0000FFE
FFE0000FFE
FFE0000FFE
07FFFFFFC0
07FFFFFFC0
07FFFFFFC0
07FFFFFFC0
07FFFFFFC0
07FFFFFFC0
ENDCHAR
STARTCHAR 00D6
ENCODING 214
SWIDTH 506 0
DWIDTH 45 0
BBX 39 67 0 11
BITMAP
03FF83FF80
03FF83FF80
03FF83FF80
03FF83FF80
03FF83FF80
03FF83FF80
03FF83FF80
03FF83FF80
03FF83FF80
03FF83FF80
03FF83FF80
0000000000
0000000000
0000000000
0000000000
0000000000
0000000000
03FFFFFF80
03FFFFFF80
03FFFFFF80
03FFFFFF80
03FFFFFF80
03FFFFFF80
FFE0000FFE
FFE0000FFE
FFE0000FFE
FFE0000FFE
FFE0000FFE
FFE0000FFE
FFE0000FFE
FFE0000FFE
FFE0000FFE
FFE0000FFE
FFE0000FFE
FFE0000FFE
FFE0000FFE
FFE0000FFE
FFE0000FFE
FFE0000FFE
FFE0000FFE
FFE0000FFE
FFE0000FFE
FFE0000FFE
FFE0000FFE
FFE0000FFE
FFE0000FFE
FFE0000FFE
FFE0000FFE
FFE0000FFE
FFE0000FFE
FFE0000FFE
FFE0000FFE
FFE0000FFE
FFE0000FFE
FFE0000FFE
FFE0000FFE
FFE0000FFE
FFE0000FFE
FFE0000FFE
FFE0000FFE
FFE0000FFE
03FFFFFF80
03FFFFFF80
03FFFFFF80
03FFFFFF80
03FFFFFF80
03FFFFFF80
ENDCHAR
STARTCHAR 00D7
ENCODING 215
SWIDTH 506 0
DWIDTH 45 0
BBX 33 28 6 22
BITMAP
FFE003FF80
FFE003FF80
FFE003FF80
FFE003FF80
FFE003FF80
FFFFFFFF80
03FFFFF000
03FFFFF000
03FFFFF000
03FFFFF000
03FFFFF000
001FFC0000
001FFC0000
001FFC0000
001FFC0000
001FFC0000
03FFFFF000
03FFFFF000
03FFFFF000
03FFFFF000
03FFFFF000
03FFFFF000
FFE003FF80
FFE003FF80
FFE003FF80
FFE003FF80
FFE003FF80
FFE003FF80
ENDCHAR
STARTCHAR 00D8
ENCODING 216
SWIDTH 506 0
DWIDTH 45 0
BBX 39 56 0 11
BITMAP
03FFFFF07E
03FFFFF07E
03FFFFF07E
03FFFFF07E
03FFFFF07E
03FFFFF07E
FFE0000F80
FFE0000F80
FFE0000F80
FFE0000F80
FFE0000F80
FFE0000F80
FFE003FFFE
FFE003FFFE
FFE003FFFE
FFE003FFFE
FFE003FFFE
FFE003FFFE
FFE003FFFE
FFE003FFFE
FFE003FFFE
FFE003FFFE
FFE003FFFE
FFE07C0FFE
FFE07C0FFE
FFE07C0FFE
FFE07C0FFE
FFE07C0FFE
FFE07C0FFE
FFE07C0FFE
FFE07C0FFE
FFE07C0FFE
FFE07C0FFE
FFE07C0FFE
FFFF800FFE
FFFF800FFE
FFFF800FFE
FFFF800FFE
FFFF800FFE
FFFF800FFE
FFFF800FFE
FFFF800FFE
FFFF800FFE
FFFF800FFE
FFFF800FFE
03E0000FFE
03E0000FFE
03E0000FFE
03E0000FFE
03E0000FFE
FC1FFFFF80
FC1FFFFF80
FC1FFFFF80
FC1FFFFF80
FC1FFFFF80
FC1FFFFF80
ENDCHAR
STARTCHAR 00D9
ENCODING 217
SWIDTH 506 0
DWIDTH 45 0
BBX 39 67 0 11
BITMAP
03FF800000
03FF800000
03FF800000
03FF800000
03FF800000
03FF800000
001FFC0000
001FFC0000
001FFC0000
001FFC0000
001FFC0000
001FFC0000
0000000000
0000000000
0000000000
0000000000
0000000000
FFE0000FFE
FFE0000FFE
FFE0000FFE
FFE0000FFE
FFE0000FFE
FFE0000FFE
FFE0000FFE
FFE0000FFE
FFE0000FFE
FFE0000FFE
FFE0000FFE
FFE0000FFE
FFE0000FFE
FFE0000FFE
FFE0000FFE
FFE0000FFE
FFE0000FFE
FFE0000FFE
FFE0000FFE
FFE0000FFE
FFE0000FFE
FFE0000FFE
FFE0000FFE
FFE0000FFE
FFE0000FFE
FFE0000FFE
FFE0000FFE
FFE0000FFE
FFE0000FFE
FFE0000FFE
FFE0000FFE
FFE0000FFE
FFE0000FFE
FFE0000FFE
FFE0000FFE
FFE0000FFE
FFE0000FFE
FFE0000FFE
FFE0000FFE
FFE0000FFE
FFE0000FFE
FFE0000FFE
FFE0000FFE
FFE0000FFE
03FFFFFFC0
03FFFFFFC0
03FFFFFFC0
03FFFFFFC0
03FFFFFFC0
03FFFFFFC0
ENDCHAR
STARTCHAR 00DA
ENCODING 218
SWIDTH 506 0
DWIDTH 45 0
BBX 39 67 0 11
BITMAP
000003FF80
000003FF80
000003FF80
000003FF80
000003FF80
000003FF80
00007FF000
00007FF000
00007FF000
00007FF000
00007FF000
00007FF000
0000000000
0000000000
0000000000
0000000000
0000000000
FFE0000FFE
FFE0000FFE
FFE0000FFE
FFE0000FFE
FFE0000FFE
FFE0000FFE
FFE0000FFE
FFE0000FFE
FFE0000FFE
FFE0000FFE
FFE0000FFE
FFE0000FFE
FFE0000FFE
FFE0000FFE
FFE0000FFE
FFE0000FFE
FFE0000FFE
FFE0000FFE
FFE0000FFE
FFE0000FFE
FFE0000FFE
FFE0000FFE
FFE0000FFE
FFE0000FFE
FFE0000FFE
FFE0000FFE
FFE0000FFE
FFE0000FFE
FFE0000FFE
FFE0000FFE
FFE0000FFE
FFE0000FFE
FFE0000FFE
FFE0000FFE
FFE0000FFE
FFE0000FFE
FFE0000FFE
FFE0000FFE
FFE0000FFE
FFE0000FFE
FFE0000FFE
FFE0000FFE
FFE0000FFE
FFE0000FFE
07FFFFFF80
07FFFFFF80
07FFFFFF80
07FFFFFF80
07FFFFFF80
07FFFFFF80
ENDCHAR
STARTCHAR 00DB
ENCODING 219
SWIDTH 506 0
DWIDTH 45 0
BBX 39 67 1 11
BITMAP
0000FC0000
0000FC0000
0000FC0000
0000FC0000
0000FC0000
0000FC0000
001FFFE000
001FFFE000
001FFFE000
001FFFE000
001FFFE000
07E0001F80
07E0001F80
07E0001F80
07E0001F80
07E0001F80
07E0001F80
FFE0001FFE
FFE0001FFE
FFE0001FFE
FFE0001FFE
FFE0001FFE
FFE0001FFE
FFE0001FFE
FFE0001FFE
FFE0001FFE
FFE0001FFE
FFE0001FFE
FFE0001FFE
FFE0001FFE
FFE0001FFE
FFE0001FFE
FFE0001FFE
FFE0001FFE
FFE0001FFE
FFE0001FFE
FFE0001FFE
FFE0001FFE
FFE0001FFE
FFE0001FFE
FFE0001FFE
FFE0001FFE
FFE0001FFE
FFE0001FFE
FFE0001FFE
FFE0001FFE
FFE0001FFE
FFE0001FFE
FFE0001FFE
FFE0001FFE
FFE0001FFE
FFE0001FFE
FFE0001FFE
FFE0001FFE
FFE0001FFE
FFE0001FFE
FFE0001FFE
FFE0001FFE
FFE0001FFE
FFE0001FFE
FFE0001FFE
07FFFFFF80
07FFFFFF80
07FFFFFF80
07FFFFFF80
07FFFFFF80
07FFFFFF80
ENDCHAR
STARTCHAR 00DC
ENCODING 220
SWIDTH 506 0
DWIDTH 45 0
BBX 39 67 0 11
BITMAP
03FF83FF80
03FF83FF80
03FF83FF80
03FF83FF80
03FF83FF80
03FF83FF80
03FF83FF80
03FF83FF80
03FF83FF80
03FF83FF80
03FF83FF80
0000000000
0000000000
0000000000
0000000000
0000000000
0000000000
FFE0000FFE
FFE0000FFE
FFE0000FFE
FFE0000FFE
FFE0000FFE
FFE0000FFE
FFE0000FFE
FFE0000FFE
FFE0000FFE
FFE0000FFE
FFE0000FFE
FFE0000FFE
FFE0000FFE
FFE0000FFE
FFE0000FFE
FFE0000FFE
FFE0000FFE
FFE0000FFE
FFE0000FFE
FFE0000FFE
FFE0000FFE
FFE0000FFE
FFE0000FFE
FFE0000FFE
FFE0000FFE
FFE0000FFE
FFE0000FFE
FFE0000FFE
FFE0000FFE
FFE0000FFE
FFE0000FFE
FFE0000FFE
FFE0000FFE
FFE0000FFE
FFE0000FFE
FFE0000FFE
FFE0000FFE
FFE0000FFE
FFE0000FFE
FFE0000FFE
FFE0000FFE
FFE0000FFE
FFE0000FFE
FFE0000FFE
03FFFFFF80
03FFFFFF80
03FFFFFF80
03FFFFFF80
03FFFFFF80
03FFFFFF80
ENDCHAR
STARTCHAR 00DD
ENCODING 221
SWIDTH 506 0
DWIDTH 45 0
BBX 33 67 6 11
BITMAP
00007FF000
00007FF000
00007FF000
00007FF000
00007FF000
00007FF000
001FFC0000
001FFC0000
001FFC0000
001FFC0000
001FFC0000
001FFC0000
0000000000
0000000000
0000000000
0000000000
0000000000
FFE003FF80
FFE003FF80
FFE003FF80
FFE003FF80
FFE003FF80
FFE003FF80
FFE003FF80
FFE003FF80
FFE003FF80
FFE003FF80
FFE003FF80
FFE003FF80
FFE003FF80
FFE003FF80
FFE003FF80
FFE003FF80
FFE003FF80
03FFFFF000
03FFFFF000
03FFFFF000
03FFFFF000
03FFFFF000
001FFC0000
001FFC0000
001FFC0000
001FFC0000
001FFC0000
001FFC0000
001FFC0000
001FFC0000
001FFC0000
001FFC0000
001FFC0000
001FFC0000
001FFC0000
001FFC0000
001FFC0000
001FFC0000
001FFC0000
001FFC0000
001FFC0000
001FFC0000
001FFC0000
001FFC0000
03FFFFF000
03FFFFF000
03FFFFF000
03FFFFF000
03FFFFF000
03FFFFF000
ENDCHAR
STARTCHAR 00DE
ENCODING 222
SWIDTH 506 0
DWIDTH 45 0
BBX 39 56 0 11
BITMAP
FFFFFC0000
FFFFFC0000
FFFFFC0000
FFFFFC0000
FFFFFC0000
FFFFFC0000
03FF800000
03FF800000
03FF800000
03FF800000
03FF800000
03FFFFFF80
03FFFFFF80
03FFFFFF80
03FFFFFF80
03FFFFFF80
03FFFFFF80
03FF800FFE
03FF800FFE
03FF800FFE
03FF800FFE
03FF800FFE
03FF800FFE
03FF800FFE
03FF800FFE
03FF800FFE
03FF800FFE
03FF800FFE
03FF800FFE
03FF800FFE
03FF800FFE
03FF800FFE
03FF800FFE
03FF800FFE
03FF800FFE
03FF800FFE
03FF800FFE
03FF800FFE
03FF800FFE
03FFFFFF80
03FFFFFF80
03FFFFFF80
03FFFFFF80
03FFFFFF80
03FFFFFF80
03FF800000
03FF800000
03FF800000
03FF800000
03FF800000
FFFFFC0000
FFFFFC0000
FFFFFC0000
FFFFFC0000
FFFFFC0000
FFFFFC0000
ENDCHAR
STARTCHAR 00DF
ENCODING 223
SWIDTH 506 0
DWIDTH 45 0
BBX 38 56 1 11
BITMAP
001FFFFF80
001FFFFF80
001FFFFF80
001FFFFF80
001FFFFF80
001FFFFF80
07FF001FFC
07FF001FFC
07FF001FFC
07FF001FFC
07FF001FFC
07FF001FFC
07FF001FFC
07FF001FFC
07FF001FFC
07FF001FFC
07FF001FFC
07FF001FFC
07FF001FFC
07FF001FFC
07FF001FFC
07FF001FFC
07FF03FF80
07FF03FF80
07FF03FF80
07FF03FF80
07FF03FF80
07FF03FF80
07FF001FFC
07FF001FFC
07FF001FFC
07FF001FFC
07FF001FFC
07FF001FFC
07FF001FFC
07FF001FFC
07FF001FFC
07FF001FFC
07FF001FFC
07FF001FFC
07FF001FFC
07FF001FFC
07FF001FFC
07FF001FFC
07FF001FFC
07FF001FFC
07FF001FFC
07FF001FFC
07FF001FFC
07FF001FFC
FFFF03FF80
FFFF03FF80
FFFF03FF80
FFFF03FF80
FFFF03FF80
FFFF03FF80
ENDCHAR
STARTCHAR 00E0
ENCODING 224
SWIDTH 506 0
DWIDTH 45 0
BBX 39 56 0 11
BITMAP
03FF800000
03FF800000
03FF800000
03FF800000
03FF800000
03FF800000
001FFC0000
001FFC0000
001FFC0000
001FFC0000
001FFC0000
001FFC0000
0000000000
0000000000
0000000000
0000000000
0000000000
03FFFFF000
03FFFFF000
03FFFFF000
03FFFFF000
03FFFFF000
03FFFFF000
000003FF80
000003FF80
000003FF80
000003FF80
000003FF80
03FFFFFF80
03FFFFFF80
03FFFFFF80
03FFFFFF80
03FFFFFF80
03FFFFFF80
FFE003FF80
FFE003FF80
FFE003FF80
FFE003FF80
FFE003FF80
FFE003FF80
FFE003FF80
FFE003FF80
FFE003FF80
FFE003FF80
FFE003FF80
FFE003FF80
FFE003FF80
FFE003FF80
FFE003FF80
FFE003FF80
03FFFC0FFE
03FFFC0FFE
03FFFC0FFE
03FFFC0FFE
03FFFC0FFE
03FFFC0FFE
ENDCHAR
STARTCHAR 00E1
ENCODING 225
SWIDTH 506 0
DWIDTH 45 0
BBX 39 56 0 11
BITMAP
00007FF000
00007FF000
00007FF000
00007FF000
00007FF000
00007FF000
001FFC0000
001FFC0000
001FFC0000
001FFC0000
001FFC0000
001FFC0000
0000000000
0000000000
0000000000
0000000000
0000000000
07FFFFF000
07FFFFF000
07FFFFF000
07FFFFF000
07FFFFF000
07FFFFF000
000003FF80
000003FF80
000003FF80
000003FF80
000003FF80
07FFFFFF80
07FFFFFF80
07FFFFFF80
07FFFFFF80
07FFFFFF80
07FFFFFF80
FFE003FF80
FFE003FF80
FFE003FF80
FFE003FF80
FFE003FF80
FFE003FF80
FFE003FF80
FFE003FF80
FFE003FF80
FFE003FF80
FFE003FF80
FFE003FF80
FFE003FF80
FFE003FF80
FFE003FF80
FFE003FF80
07FFFC0FFE
07FFFC0FFE
07FFFC0FFE
07FFFC0FFE
07FFFC0FFE
07FFFC0FFE
ENDCHAR
STARTCHAR 00E2
ENCODING 226
SWIDTH 506 0
DWIDTH 45 0
BBX 39 61 0 11
BITMAP
00007C0000
00007C0000
00007C0000
00007C0000
00007C0000
001FFFF000
001FFFF000
001FFFF000
001FFFF000
001FFFF000
001FFFF000
03FF83FF80
03FF83FF80
03FF83FF80
03FF83FF80
03FF83FF80
03FF83FF80
0000000000
0000000000
0000000000
0000000000
0000000000
03FFFFF000
03FFFFF000
03FFFFF000
03FFFFF000
03FFFFF000
03FFFFF000
000003FF80
000003FF80
000003FF80
000003FF80
000003FF80
03FFFFFF80
03FFFFFF80
03FFFFFF80
03FFFFFF80
03FFFFFF80
03FFFFFF80
FFE003FF80
FFE003FF80
FFE003FF80
FFE003FF80
FFE003FF80
FFE003FF80
FFE003FF80
FFE003FF80
FFE003FF80
FFE003FF80
FFE003FF80
FFE003FF80
FFE003FF80
FFE003FF80
FFE003FF80
FFE003FF80
03FFFC0FFE
03FFFC0FFE
03FFFC0FFE
03FFFC0FFE
03FFFC0FFE
03FFFC0FFE
ENDCHAR
STARTCHAR 00E3
ENCODING 227
SWIDTH 506 0
DWIDTH 45 0
BBX 39 56 0 11
BITMAP
07FFFC0FFE
07FFFC0FFE
07FFFC0FFE
07FFFC0FFE
07FFFC0FFE
07FFFC0FFE
FFE07FFFC0
FFE07FFFC0
FFE07FFFC0
FFE07FFFC0
FFE07FFFC0
FFE07FFFC0
0000000000
0000000000
0000000000
0000000000
0000000000
07FFFFE000
07FFFFE000
07FFFFE000
07FFFFE000
07FFFFE000
07FFFFE000
000001FFC0
000001FFC0
000001FFC0
000001FFC0
000001FFC0
07FFFFFFC0
07FFFFFFC0
07FFFFFFC0
07FFFFFFC0
07FFFFFFC0
07FFFFFFC0
FFE001FFC0
FFE001FFC0
FFE001FFC0
FFE001FFC0
FFE001FFC0
FFE001FFC0
FFE001FFC0
FFE001FFC0
FFE001FFC0
FFE001FFC0
FFE001FFC0
FFE001FFC0
FFE001FFC0
FFE001FFC0
FFE001FFC0
FFE001FFC0
07FFFC0FFE
07FFFC0FFE
07FFFC0FFE
07FFFC0FFE
07FFFC0FFE
07FFFC0FFE
ENDCHAR
STARTCHAR 00E4
ENCODING 228
SWIDTH 506 0
DWIDTH 45 0
BBX 39 56 0 11
BITMAP
03FF81FF80
03FF81FF80
03FF81FF80
03FF81FF80
03FF81FF80
03FF81FF80
03FF81FF80
03FF81FF80
03FF81FF80
03FF81FF80
03FF81FF80
0000000000
0000000000
0000000000
0000000000
0000000000
0000000000
03FFFFF000
03FFFFF000
03FFFFF000
03FFFFF000
03FFFFF000
03FFFFF000
000001FF80
000001FF80
000001FF80
000001FF80
000001FF80
03FFFFFF80
03FFFFFF80
03FFFFFF80
03FFFFFF80
03FFFFFF80
03FFFFFF80
FFE001FF80
FFE001FF80
FFE001FF80
FFE001FF80
FFE001FF80
FFE001FF80
FFE001FF80
FFE001FF80
FFE001FF80
FFE001FF80
FFE001FF80
FFE001FF80
FFE001FF80
FFE001FF80
FFE001FF80
FFE001FF80
03FFFE0FFE
03FFFE0FFE
03FFFE0FFE
03FFFE0FFE
03FFFE0FFE
03FFFE0FFE
ENDCHAR
STARTCHAR 00E5
ENCODING 229
SWIDTH 506 0
DWIDTH 45 0
BBX 39 61 0 11
BITMAP
001FFFF000
001FFFF000
001FFFF000
001FFFF000
001FFFF000
03FF81FF80
03FF81FF80
03FF81FF80
03FF81FF80
03FF81FF80
03FF81FF80
001FFFF000
001FFFF000
001FFFF000
001FFFF000
001FFFF000
001FFFF000
0000000000
0000000000
0000000000
0000000000
0000000000
03FFFFF000
03FFFFF000
03FFFFF000
03FFFFF000
03FFFFF000
03FFFFF000
000001FF80
000001FF80
000001FF80
000001FF80
000001FF80
03FFFFFF80
03FFFFFF80
03FFFFFF80
03FFFFFF80
03FFFFFF80
03FFFFFF80
FFE001FF80
FFE001FF80
FFE001FF80
FFE001FF80
FFE001FF80
FFE001FF80
FFE001FF80
FFE001FF80
FFE001FF80
FFE001FF80
FFE001FF80
FFE001FF80
FFE001FF80
FFE001FF80
FFE001FF80
FFE001FF80
03FFFE0FFE
03FFFE0FFE
03FFFE0FFE
03FFFE0FFE
03FFFE0FFE
03FFFE0FFE
ENDCHAR
STARTCHAR 00E6
ENCODING 230
SWIDTH 506 0
DWIDTH 45 0
BBX 39 39 0 11
BITMAP
FFE003FF80
FFE003FF80
FFE003FF80
FFE003FF80
FFE003FF80
FFE003FF80
03FFFC0FFE
03FFFC0FFE
03FFFC0FFE
03FFFC0FFE
03FFFC0FFE
001FFC0FFE
001FFC0FFE
001FFC0FFE
001FFC0FFE
001FFC0FFE
001FFC0FFE
03FFFFFFFE
03FFFFFFFE
03FFFFFFFE
03FFFFFFFE
03FFFFFFFE
FFE07FF000
FFE07FF000
FFE07FF000
FFE07FF000
FFE07FF000
FFE07FF000
FFE07FF000
FFE07FF000
FFE07FF000
FFE07FF000
FFE07FF000
03FF83FFFE
03FF83FFFE
03FF83FFFE
03FF83FFFE
03FF83FFFE
03FF83FFFE
ENDCHAR
STARTCHAR 00E7
ENCODING 231
SWIDTH 506 0
DWIDTH 45 0
BBX 39 56 0 -6
BITMAP
07FFFFFF80
07FFFFFF80
07FFFFFF80
07FFFFFF80
07FFFFFF80
07FFFFFF80
FFE0000FFE
FFE0000FFE
FFE0000FFE
FFE0000FFE
FFE0000FFE
FFE0000FFE
FFE0000000
FFE0000000
FFE0000000
FFE0000000
FFE0000000
FFE0000000
FFE0000000
FFE0000000
FFE0000000
FFE0000000
FFE0000000
FFE0000000
FFE0000000
FFE0000000
FFE0000000
FFE0000000
FFE0000FFE
FFE0000FFE
FFE0000FFE
FFE0000FFE
FFE0000FFE
07FFFFFF80
07FFFFFF80
07FFFFFF80
07FFFFFF80
07FFFFFF80
07FFFFFF80
00007FF000
00007FF000
00007FF000
00007FF000
00007FF000
00007FF000
000003FF80
000003FF80
000003FF80
000003FF80
000003FF80
001FFFF000
001FFFF000
001FFFF000
001FFFF000
001FFFF000
001FFFF000
ENDCHAR
STARTCHAR 00E8
ENCODING 232
SWIDTH 506 0
DWIDTH 45 0
BBX 39 56 0 11
BITMAP
03FF800000
03FF800000
03FF800000
03FF800000
03FF800000
03FF800000
001FFC0000
001FFC0000
001FFC0000
001FFC0000
001FFC0000
001FFC0000
0000000000
0000000000
0000000000
0000000000
0000000000
03FFFFFFC0
03FFFFFFC0
03FFFFFFC0
03FFFFFFC0
03FFFFFFC0
FFFFFFFFFE
FFE0000FFE
FFE0000FFE
FFE0000FFE
FFE0000FFE
FFE0000FFE
FFFFFFFFFE
FFFFFFFFFE
FFFFFFFFFE
FFFFFFFFFE
FFFFFFFFFE
FFFFFFFFFE
FFE0000000
FFE0000000
FFE0000000
FFE0000000
FFE0000000
FFE0000000
FFE0000000
FFE0000000
FFE0000000
FFE0000000
FFE0000000
FFE0000FFE
FFE0000FFE
FFE0000FFE
FFE0000FFE
FFE0000FFE
03FFFFFFC0
03FFFFFFC0
03FFFFFFC0
03FFFFFFC0
03FFFFFFC0
03FFFFFFC0
ENDCHAR
STARTCHAR 00E9
ENCODING 233
SWIDTH 506 0
DWIDTH 45 0
BBX 39 56 0 11
BITMAP
000003FF80
000003FF80
000003FF80
000003FF80
000003FF80
000003FF80
00007FF000
00007FF000
00007FF000
00007FF000
00007FF000
00007FF000
0000000000
0000000000
0000000000
0000000000
0000000000
07FFFFFF80
07FFFFFF80
07FFFFFF80
07FFFFFF80
07FFFFFF80
FFFFFFFFFE
FFE0000FFE
FFE0000FFE
FFE0000FFE
FFE0000FFE
FFE0000FFE
FFFFFFFFFE
FFFFFFFFFE
FFFFFFFFFE
FFFFFFFFFE
FFFFFFFFFE
FFFFFFFFFE
FFE0000000
FFE0000000
FFE0000000
FFE0000000
FFE0000000
FFE0000000
FFE0000000
FFE0000000
FFE0000000
FFE0000000
FFE0000000
FFE0000FFE
FFE0000FFE
FFE0000FFE
FFE0000FFE
FFE0000FFE
07FFFFFF80
07FFFFFF80
07FFFFFF80
07FFFFFF80
07FFFFFF80
07FFFFFF80
ENDCHAR
STARTCHAR 00EA
ENCODING 234
SWIDTH 506 0
DWIDTH 45 0
BBX 39 61 0 11
BITMAP
00007C0000
00007C0000
00007C0000
00007C0000
00007C0000
001FFFF000
001FFFF000
001FFFF000
001FFFF000
001FFFF000
001FFFF000
03FF83FF80
03FF83FF80
03FF83FF80
03FF83FF80
03FF83FF80
03FF83FF80
0000000000
0000000000
0000000000
0000000000
0000000000
03FFFFFF80
03FFFFFF80
03FFFFFF80
03FFFFFF80
03FFFFFF80
FFFFFFFFFE
FFE0000FFE
FFE0000FFE
FFE0000FFE
FFE0000FFE
FFE0000FFE
FFFFFFFFFE
FFFFFFFFFE
FFFFFFFFFE
FFFFFFFFFE
FFFFFFFFFE
FFFFFFFFFE
FFE0000000
FFE0000000
FFE0000000
FFE0000000
FFE0000000
FFE0000000
FFE0000000
FFE0000000
FFE0000000
FFE0000000
FFE0000000
FFE0000FFE
FFE0000FFE
FFE0000FFE
FFE0000FFE
FFE0000FFE
03FFFFFF80
03FFFFFF80
03FFFFFF80
03FFFFFF80
03FFFFFF80
03FFFFFF80
ENDCHAR
STARTCHAR 00EB
ENCODING 235
SWIDTH 506 0
DWIDTH 45 0
BBX 39 56 0 11
BITMAP
03FF83FF80
03FF83FF80
03FF83FF80
03FF83FF80
03FF83FF80
03FF83FF80
03FF83FF80
03FF83FF80
03FF83FF80
03FF83FF80
03FF83FF80
0000000000
0000000000
0000000000
0000000000
0000000000
0000000000
03FFFFFF80
03FFFFFF80
03FFFFFF80
03FFFFFF80
03FFFFFF80
FFFFFFFFFE
FFE0000FFE
FFE0000FFE
FFE0000FFE
FFE0000FFE
FFE0000FFE
FFFFFFFFFE
FFFFFFFFFE
FFFFFFFFFE
FFFFFFFFFE
FFFFFFFFFE
FFFFFFFFFE
FFE0000000
FFE0000000
FFE0000000
FFE0000000
FFE0000000
FFE0000000
FFE0000000
FFE0000000
FFE0000000
FFE0000000
FFE0000000
FFE0000FFE
FFE0000FFE
FFE0000FFE
FFE0000FFE
FFE0000FFE
03FFFFFF80
03FFFFFF80
03FFFFFF80
03FFFFFF80
03FFFFFF80
03FFFFFF80
ENDCHAR
STARTCHAR 00EC
ENCODING 236
SWIDTH 506 0
DWIDTH 45 0
BBX 22 56 11 11
BITMAP
FFE000
FFE000
FFE000
FFE000
FFE000
FFE000
03FF80
03FF80
03FF80
03FF80
03FF80
03FF80
000000
000000
000000
000000
000000
FFFF80
FFFF80
FFFF80
FFFF80
FFFF80
FFFF80
03FF80
03FF80
03FF80
03FF80
03FF80
03FF80
03FF80
03FF80
03FF80
03FF80
03FF80
03FF80
03FF80
03FF80
03FF80
03FF80
03FF80
03FF80
03FF80
03FF80
03FF80
03FF80
03FF80
03FF80
03FF80
03FF80
03FF80
FFFFFC
FFFFFC
FFFFFC
FFFFFC
FFFFFC
FFFFFC
ENDCHAR
STARTCHAR 00ED
ENCODING 237
SWIDTH 506 0
DWIDTH 45 0
BBX 22 56 11 11
BITMAP
001FFC
001FFC
001FFC
001FFC
001FFC
001FFC
03FF80
03FF80
03FF80
03FF80
03FF80
03FF80
000000
000000
000000
000000
000000
FFFF80
FFFF80
FFFF80
FFFF80
FFFF80
FFFF80
03FF80
03FF80
03FF80
03FF80
03FF80
03FF80
03FF80
03FF80
03FF80
03FF80
03FF80
03FF80
03FF80
03FF80
03FF80
03FF80
03FF80
03FF80
03FF80
03FF80
03FF80
03FF80
03FF80
03FF80
03FF80
03FF80
03FF80
FFFFFC
FFFFFC
FFFFFC
FFFFFC
FFFFFC
FFFFFC
ENDCHAR
STARTCHAR 00EE
ENCODING 238
SWIDTH 506 0
DWIDTH 45 0
BBX 28 61 6 11
BITMAP
001F8000
001F8000
001F8000
001F8000
001F8000
07FFFC00
07FFFC00
07FFFC00
07FFFC00
07FFFC00
07FFFC00
FFE07FF0
FFE07FF0
FFE07FF0
FFE07FF0
FFE07FF0
FFE07FF0
00000000
00000000
00000000
00000000
00000000
07FFFC00
07FFFC00
07FFFC00
07FFFC00
07FFFC00
07FFFC00
001FFC00
001FFC00
001FFC00
001FFC00
001FFC00
001FFC00
001FFC00
001FFC00
001FFC00
001FFC00
001FFC00
001FFC00
001FFC00
001FFC00
001FFC00
001FFC00
001FFC00
001FFC00
001FFC00
001FFC00
001FFC00
001FFC00
001FFC00
001FFC00
001FFC00
001FFC00
001FFC00
07FFFFF0
07FFFFF0
07FFFFF0
07FFFFF0
07FFFFF0
07FFFFF0
ENDCHAR
STARTCHAR 00EF
ENCODING 239
SWIDTH 506 0
DWIDTH 45 0
BBX 33 56 6 11
BITMAP
FFE003FF80
FFE003FF80
FFE003FF80
FFE003FF80
FFE003FF80
FFE003FF80
FFE003FF80
FFE003FF80
FFE003FF80
FFE003FF80
FFE003FF80
0000000000
0000000000
0000000000
0000000000
0000000000
0000000000
03FFFC0000
03FFFC0000
03FFFC0000
03FFFC0000
03FFFC0000
03FFFC0000
001FFC0000
001FFC0000
001FFC0000
001FFC0000
001FFC0000
001FFC0000
001FFC0000
001FFC0000
001FFC0000
001FFC0000
001FFC0000
001FFC0000
001FFC0000
001FFC0000
001FFC0000
001FFC0000
001FFC0000
001FFC0000
001FFC0000
001FFC0000
001FFC0000
001FFC0000
001FFC0000
001FFC0000
001FFC0000
001FFC0000
001FFC0000
03FFFFF000
03FFFFF000
03FFFFF000
03FFFFF000
03FFFFF000
03FFFFF000
ENDCHAR
STARTCHAR 00F0
ENCODING 240
SWIDTH 506 0
DWIDTH 45 0
BBX 39 56 0 11
BITMAP
07FFFC0FFE
07FFFC0FFE
07FFFC0FFE
07FFFC0FFE
07FFFC0FFE
07FFFC0FFE
00007FFFC0
00007FFFC0
00007FFFC0
00007FFFC0
00007FFFC0
001FFFFFC0
001FFFFFC0
001FFFFFC0
001FFFFFC0
001FFFFFC0
001FFFFFC0
0000000FFE
0000000FFE
0000000FFE
0000000FFE
0000000FFE
07FFFFFFFE
07FFFFFFFE
07FFFFFFFE
07FFFFFFFE
07FFFFFFFE
07FFFFFFFE
FFE0000FFE
FFE0000FFE
FFE0000FFE
FFE0000FFE
FFE0000FFE
FFE0000FFE
FFE0000FFE
FFE0000FFE
FFE0000FFE
FFE0000FFE
FFE0000FFE
FFE0000FFE
FFE0000FFE
FFE0000FFE
FFE0000FFE
FFE0000FFE
FFE0000FFE
FFE0000FFE
FFE0000FFE
FFE0000FFE
FFE0000FFE
FFE0000FFE
07FFFFFFC0
07FFFFFFC0
07FFFFFFC0
07FFFFFFC0
07FFFFFFC0
07FFFFFFC0
ENDCHAR
STARTCHAR 00F1
ENCODING 241
SWIDTH 506 0
DWIDTH 45 0
BBX 39 56 0 11
BITMAP
03FFFE0FFE
03FFFE0FFE
03FFFE0FFE
03FFFE0FFE
03FFFE0FFE
03FFFE0FFE
FFE07FFFC0
FFE07FFFC0
FFE07FFFC0
FFE07FFFC0
FFE07FFFC0
FFE07FFFC0
0000000000
0000000000
0000000000
0000000000
0000000000
FFE07FFFC0
FFE07FFFC0
FFE07FFFC0
FFE07FFFC0
FFE07FFFC0
FFE07FFFC0
03FF800FFE
03FF800FFE
03FF800FFE
03FF800FFE
03FF800FFE
03FF800FFE
03FF800FFE
03FF800FFE
03FF800FFE
03FF800FFE
03FF800FFE
03FF800FFE
03FF800FFE
03FF800FFE
03FF800FFE
03FF800FFE
03FF800FFE
03FF800FFE
03FF800FFE
03FF800FFE
03FF800FFE
03FF800FFE
03FF800FFE
03FF800FFE
03FF800FFE
03FF800FFE
03FF800FFE
03FF800FFE
03FF800FFE
03FF800FFE
03FF800FFE
03FF800FFE
03FF800FFE
ENDCHAR
STARTCHAR 00F2
ENCODING 242
SWIDTH 506 0
DWIDTH 45 0
BBX 39 56 0 11
BITMAP
03FF800000
03FF800000
03FF800000
03FF800000
03FF800000
03FF800000
001FFC0000
001FFC0000
001FFC0000
001FFC0000
001FFC0000
001FFC0000
0000000000
0000000000
0000000000
0000000000
0000000000
03FFFFFFC0
03FFFFFFC0
03FFFFFFC0
03FFFFFFC0
03FFFFFFC0
03FFFFFFC0
FFE0000FFE
FFE0000FFE
FFE0000FFE
FFE0000FFE
FFE0000FFE
FFE0000FFE
FFE0000FFE
FFE0000FFE
FFE0000FFE
FFE0000FFE
FFE0000FFE
FFE0000FFE
FFE0000FFE
FFE0000FFE
FFE0000FFE
FFE0000FFE
FFE0000FFE
FFE0000FFE
FFE0000FFE
FFE0000FFE
FFE0000FFE
FFE0000FFE
FFE0000FFE
FFE0000FFE
FFE0000FFE
FFE0000FFE
FFE0000FFE
03FFFFFFC0
03FFFFFFC0
03FFFFFFC0
03FFFFFFC0
03FFFFFFC0
03FFFFFFC0
ENDCHAR
STARTCHAR 00F3
ENCODING 243
SWIDTH 506 0
DWIDTH 45 0
BBX 39 56 0 11
BITMAP
000003FF80
000003FF80
000003FF80
000003FF80
000003FF80
000003FF80
00007FF000
00007FF000
00007FF000
00007FF000
00007FF000
00007FF000
0000000000
0000000000
0000000000
0000000000
0000000000
07FFFFFF80
07FFFFFF80
07FFFFFF80
07FFFFFF80
07FFFFFF80
07FFFFFF80
FFE0000FFE
FFE0000FFE
FFE0000FFE
FFE0000FFE
FFE0000FFE
FFE0000FFE
FFE0000FFE
FFE0000FFE
FFE0000FFE
FFE0000FFE
FFE0000FFE
FFE0000FFE
FFE0000FFE
FFE0000FFE
FFE0000FFE
FFE0000FFE
FFE0000FFE
FFE0000FFE
FFE0000FFE
FFE0000FFE
FFE0000FFE
FFE0000FFE
FFE0000FFE
FFE0000FFE
FFE0000FFE
FFE0000FFE
FFE0000FFE
07FFFFFF80
07FFFFFF80
07FFFFFF80
07FFFFFF80
07FFFFFF80
07FFFFFF80
ENDCHAR
STARTCHAR 00F4
ENCODING 244
SWIDTH 506 0
DWIDTH 45 0
BBX 39 61 0 11
BITMAP
00007C0000
00007C0000
00007C0000
00007C0000
00007C0000
001FFFF000
001FFFF000
001FFFF000
001FFFF000
001FFFF000
001FFFF000
03FF83FF80
03FF83FF80
03FF83FF80
03FF83FF80
03FF83FF80
03FF83FF80
0000000000
0000000000
0000000000
0000000000
0000000000
03FFFFFF80
03FFFFFF80
03FFFFFF80
03FFFFFF80
03FFFFFF80
03FFFFFF80
FFE0000FFE
FFE0000FFE
FFE0000FFE
FFE0000FFE
FFE0000FFE
FFE0000FFE
FFE0000FFE
FFE0000FFE
FFE0000FFE
FFE0000FFE
FFE0000FFE
FFE0000FFE
FFE0000FFE
FFE0000FFE
FFE0000FFE
FFE0000FFE
FFE0000FFE
FFE0000FFE
FFE0000FFE
FFE0000FFE
FFE0000FFE
FFE0000FFE
FFE0000FFE
FFE0000FFE
FFE0000FFE
FFE0000FFE
FFE0000FFE
03FFFFFF80
03FFFFFF80
03FFFFFF80
03FFFFFF80
03FFFFFF80
03FFFFFF80
ENDCHAR
STARTCHAR 00F5
ENCODING 245
SWIDTH 506 0
DWIDTH 45 0
BBX 39 56 0 11
BITMAP
07FFFC0FFE
07FFFC0FFE
07FFFC0FFE
07FFFC0FFE
07FFFC0FFE
07FFFC0FFE
FFE07FFFC0
FFE07FFFC0
FFE07FFFC0
FFE07FFFC0
FFE07FFFC0
FFE07FFFC0
0000000000
0000000000
0000000000
0000000000
0000000000
07FFFFFFC0
07FFFFFFC0
07FFFFFFC0
07FFFFFFC0
07FFFFFFC0
07FFFFFFC0
FFE0000FFE
FFE0000FFE
FFE0000FFE
FFE0000FFE
FFE0000FFE
FFE0000FFE
FFE0000FFE
FFE0000FFE
FFE0000FFE
FFE0000FFE
FFE0000FFE
FFE0000FFE
FFE0000FFE
FFE0000FFE
FFE0000FFE
FFE0000FFE
FFE0000FFE
FFE0000FFE
FFE0000FFE
FFE0000FFE
FFE0000FFE
FFE0000FFE
FFE0000FFE
FFE0000FFE
FFE0000FFE
FFE0000FFE
FFE0000FFE
07FFFFFFC0
07FFFFFFC0
07FFFFFFC0
07FFFFFFC0
07FFFFFFC0
07FFFFFFC0
ENDCHAR
STARTCHAR 00F6
ENCODING 246
SWIDTH 506 0
DWIDTH 45 0
BBX 39 56 0 11
BITMAP
03FF83FF80
03FF83FF80
03FF83FF80
03FF83FF80
03FF83FF80
03FF83FF80
03FF83FF80
03FF83FF80
03FF83FF80
03FF83FF80
03FF83FF80
0000000000
0000000000
0000000000
0000000000
0000000000
0000000000
03FFFFFF80
03FFFFFF80
03FFFFFF80
03FFFFFF80
03FFFFFF80
03FFFFFF80
FFE0000FFE
FFE0000FFE
FFE0000FFE
FFE0000FFE
FFE0000FFE
FFE0000FFE
FFE0000FFE
FFE0000FFE
FFE0000FFE
FFE0000FFE
FFE0000FFE
FFE0000FFE
FFE0000FFE
FFE0000FFE
FFE0000FFE
FFE0000FFE
FFE0000FFE
FFE0000FFE
FFE0000FFE
FFE0000FFE
FFE0000FFE
FFE0000FFE
FFE0000FFE
FFE0000FFE
FFE0000FFE
FFE0000FFE
FFE0000FFE
03FFFFFF80
03FFFFFF80
03FFFFFF80
03FFFFFF80
03FFFFFF80
03FFFFFF80
ENDCHAR
STARTCHAR 00F7
ENCODING 247
SWIDTH 506 0
DWIDTH 45 0
BBX 33 39 6 17
BITMAP
001FFC0000
001FFC0000
001FFC0000
001FFC0000
001FFC0000
001FFC0000
001FFC0000
001FFC0000
001FFC0000
001FFC0000
001FFC0000
0000000000
0000000000
0000000000
0000000000
0000000000
0000000000
FFFFFFFF80
FFFFFFFF80
FFFFFFFF80
FFFFFFFF80
FFFFFFFF80
FFFFFFFF80
0000000000
0000000000
0000000000
0000000000
0000000000
001FFC0000
001FFC0000
001FFC0000
001FFC0000
001FFC0000
001FFC0000
001FFC0000
001FFC0000
001FFC0000
001FFC0000
001FFC0000
ENDCHAR
STARTCHAR 00F8
ENCODING 248
SWIDTH 506 0
DWIDTH 45 0
BBX 39 39 0 11
BITMAP
03FFFFF07E
03FFFFF07E
03FFFFF07E
03FFFFF07E
03FFFFF07E
03FFFFF07E
FFE0000F80
FFE0000F80
FFE0000F80
FFE0000F80
FFE0000F80
FFE003FFFE
FFE003FFFE
FFE003FFFE
FFE003FFFE
FFE003FFFE
FFE003FFFE
FFE07C0FFE
FFE07C0FFE
FFE07C0FFE
FFE07C0FFE
FFE07C0FFE
FFFF800FFE
FFFF800FFE
FFFF800FFE
FFFF800FFE
FFFF800FFE
FFFF800FFE
03E0000FFE
03E0000FFE
03E0000FFE
03E0000FFE
03E0000FFE
FC1FFFFF80
FC1FFFFF80
FC1FFFFF80
FC1FFFFF80
FC1FFFFF80
FC1FFFFF80
ENDCHAR
STARTCHAR 00F9
ENCODING 249
SWIDTH 506 0
DWIDTH 45 0
BBX 39 56 0 11
BITMAP
03FF800000
03FF800000
03FF800000
03FF800000
03FF800000
03FF800000
001FFC0000
001FFC0000
001FFC0000
001FFC0000
001FFC0000
001FFC0000
0000000000
0000000000
0000000000
0000000000
0000000000
FFE003FF80
FFE003FF80
FFE003FF80
FFE003FF80
FFE003FF80
FFE003FF80
FFE003FF80
FFE003FF80
FFE003FF80
FFE003FF80
FFE003FF80
FFE003FF80
FFE003FF80
FFE003FF80
FFE003FF80
FFE003FF80
FFE003FF80
FFE003FF80
FFE003FF80
FFE003FF80
FFE003FF80
FFE003FF80
FFE003FF80
FFE003FF80
FFE003FF80
FFE003FF80
FFE003FF80
FFE003FF80
FFE003FF80
FFE003FF80
FFE003FF80
FFE003FF80
FFE003FF80
03FFFC0FFE
03FFFC0FFE
03FFFC0FFE
03FFFC0FFE
03FFFC0FFE
03FFFC0FFE
ENDCHAR
STARTCHAR 00FA
ENCODING 250
SWIDTH 506 0
DWIDTH 45 0
BBX 39 56 0 11
BITMAP
00007FF000
00007FF000
00007FF000
00007FF000
00007FF000
00007FF000
001FFC0000
001FFC0000
001FFC0000
001FFC0000
001FFC0000
001FFC0000
0000000000
0000000000
0000000000
0000000000
0000000000
FFE003FF80
FFE003FF80
FFE003FF80
FFE003FF80
FFE003FF80
FFE003FF80
FFE003FF80
FFE003FF80
FFE003FF80
FFE003FF80
FFE003FF80
FFE003FF80
FFE003FF80
FFE003FF80
FFE003FF80
FFE003FF80
FFE003FF80
FFE003FF80
FFE003FF80
FFE003FF80
FFE003FF80
FFE003FF80
FFE003FF80
FFE003FF80
FFE003FF80
FFE003FF80
FFE003FF80
FFE003FF80
FFE003FF80
FFE003FF80
FFE003FF80
FFE003FF80
FFE003FF80
07FFFC0FFE
07FFFC0FFE
07FFFC0FFE
07FFFC0FFE
07FFFC0FFE
07FFFC0FFE
ENDCHAR
STARTCHAR 00FB
ENCODING 251
SWIDTH 506 0
DWIDTH 45 0
BBX 39 61 0 11
BITMAP
00007C0000
00007C0000
00007C0000
00007C0000
00007C0000
001FFFF000
001FFFF000
001FFFF000
001FFFF000
001FFFF000
001FFFF000
03FF83FF80
03FF83FF80
03FF83FF80
03FF83FF80
03FF83FF80
03FF83FF80
0000000000
0000000000
0000000000
0000000000
0000000000
FFE003FF80
FFE003FF80
FFE003FF80
FFE003FF80
FFE003FF80
FFE003FF80
FFE003FF80
FFE003FF80
FFE003FF80
FFE003FF80
FFE003FF80
FFE003FF80
FFE003FF80
FFE003FF80
FFE003FF80
FFE003FF80
FFE003FF80
FFE003FF80
FFE003FF80
FFE003FF80
FFE003FF80
FFE003FF80
FFE003FF80
FFE003FF80
FFE003FF80
FFE003FF80
FFE003FF80
FFE003FF80
FFE003FF80
FFE003FF80
FFE003FF80
FFE003FF80
FFE003FF80
03FFFC0FFE
03FFFC0FFE
03FFFC0FFE
03FFFC0FFE
03FFFC0FFE
03FFFC0FFE
ENDCHAR
STARTCHAR 00FC
ENCODING 252
SWIDTH 506 0
DWIDTH 45 0
BBX 39 56 0 11
BITMAP
FFE003FF80
FFE003FF80
FFE003FF80
FFE003FF80
FFE003FF80
FFE003FF80
FFE003FF80
FFE003FF80
FFE003FF80
FFE003FF80
FFE003FF80
0000000000
0000000000
0000000000
0000000000
0000000000
0000000000
FFE003FF80
FFE003FF80
FFE003FF80
FFE003FF80
FFE003FF80
FFE003FF80
FFE003FF80
FFE003FF80
FFE003FF80
FFE003FF80
FFE003FF80
FFE003FF80
FFE003FF80
FFE003FF80
FFE003FF80
FFE003FF80
FFE003FF80
FFE003FF80
FFE003FF80
FFE003FF80
FFE003FF80
FFE003FF80
FFE003FF80
FFE003FF80
FFE003FF80
FFE003FF80
FFE003FF80
FFE003FF80
FFE003FF80
FFE003FF80
FFE003FF80
FFE003FF80
FFE003FF80
07FFFC0FFE
07FFFC0FFE
07FFFC0FFE
07FFFC0FFE
07FFFC0FFE
07FFFC0FFE
ENDCHAR
STARTCHAR 00FD
ENCODING 253
SWIDTH 506 0
DWIDTH 45 0
BBX 39 73 0 -6
BITMAP
000003FF80
000003FF80
000003FF80
000003FF80
000003FF80
000003FF80
00007FF000
00007FF000
00007FF000
00007FF000
00007FF000
00007FF000
0000000000
0000000000
0000000000
0000000000
0000000000
FFE0000FFE
FFE0000FFE
FFE0000FFE
FFE0000FFE
FFE0000FFE
FFE0000FFE
FFE0000FFE
FFE0000FFE
FFE0000FFE
FFE0000FFE
FFE0000FFE
FFE0000FFE
FFE0000FFE
FFE0000FFE
FFE0000FFE
FFE0000FFE
FFE0000FFE
FFE0000FFE
FFE0000FFE
FFE0000FFE
FFE0000FFE
FFE0000FFE
FFE0000FFE
FFE0000FFE
FFE0000FFE
FFE0000FFE
FFE0000FFE
FFE0000FFE
FFE0000FFE
FFE0000FFE
FFE0000FFE
FFE0000FFE
FFE0000FFE
03FFFFFFFE
03FFFFFFFE
03FFFFFFFE
03FFFFFFFE
03FFFFFFFE
03FFFFFFFE
0000000FFE
0000000FFE
0000000FFE
0000000FFE
0000000FFE
000003FF80
000003FF80
000003FF80
000003FF80
000003FF80
000003FF80
FFFFFFF000
FFFFFFF000
FFFFFFF000
FFFFFFF000
FFFFFFF000
FFFFFFF000
ENDCHAR
STARTCHAR 00FE
ENCODING 254
SWIDTH 506 0
DWIDTH 45 0
BBX 39 73 0 -6
BITMAP
FFFF800000
FFFF800000
FFFF800000
FFFF800000
FFFF800000
FFFF800000
03FF800000
03FF800000
03FF800000
03FF800000
03FF800000
03FF800000
03FF800000
03FF800000
03FF800000
03FF800000
03FF800000
03FFFFFF80
03FFFFFF80
03FFFFFF80
03FFFFFF80
03FFFFFF80
03FFFFFF80
03FF800FFE
03FF800FFE
03FF800FFE
03FF800FFE
03FF800FFE
03FF800FFE
03FF800FFE
03FF800FFE
03FF800FFE
03FF800FFE
03FF800FFE
03FF800FFE
03FF800FFE
03FF800FFE
03FF800FFE
03FF800FFE
03FF800FFE
03FF800FFE
03FF800FFE
03FF800FFE
03FF800FFE
03FF800FFE
03FF800FFE
03FF800FFE
03FF800FFE
03FF800FFE
03FF800FFE
03FFFFFF80
03FFFFFF80
03FFFFFF80
03FFFFFF80
03FFFFFF80
03FFFFFF80
03FF800000
03FF800000
03FF800000
03FF800000
03FF800000
03FF800000
03FF800000
03FF800000
03FF800000
03FF800000
03FF800000
FFFFFC0000
FFFFFC0000
FFFFFC0000
FFFFFC0000
FFFFFC0000
FFFFFC0000
ENDCHAR
STARTCHAR 00FF
ENCODING 255
SWIDTH 506 0
DWIDTH 45 0
BBX 39 73 0 -6
BITMAP
03FF83FF80
03FF83FF80
03FF83FF80
03FF83FF80
03FF83FF80
03FF83FF80
03FF83FF80
03FF83FF80
03FF83FF80
03FF83FF80
03FF83FF80
0000000000
0000000000
0000000000
0000000000
0000000000
0000000000
FFE0000FFE
FFE0000FFE
FFE0000FFE
FFE0000FFE
FFE0000FFE
FFE0000FFE
FFE0000FFE
FFE0000FFE
FFE0000FFE
FFE0000FFE
FFE0000FFE
FFE0000FFE
FFE0000FFE
FFE0000FFE
FFE0000FFE
FFE0000FFE
FFE0000FFE
FFE0000FFE
FFE0000FFE
FFE0000FFE
FFE0000FFE
FFE0000FFE
FFE0000FFE
FFE0000FFE
FFE0000FFE
FFE0000FFE
FFE0000FFE
FFE0000FFE
FFE0000FFE
FFE0000FFE
FFE0000FFE
FFE0000FFE
FFE0000FFE
03FFFFFFFE
03FFFFFFFE
03FFFFFFFE
03FFFFFFFE
03FFFFFFFE
03FFFFFFFE
0000000FFE
0000000FFE
0000000FFE
0000000FFE
0000000FFE
000003FF80
000003FF80
000003FF80
000003FF80
000003FF80
000003FF80
FFFFFFF000
FFFFFFF000
FFFFFFF000
FFFFFFF000
FFFFFFF000
FFFFFFF000
ENDCHAR
STARTCHAR 0100
ENCODING 256
SWIDTH 506 0
DWIDTH 45 0
BBX 39 61 0 11
BITMAP
03FFFFFF80
03FFFFFF80
03FFFFFF80
03FFFFFF80
03FFFFFF80
03FFFFFF80
0000000000
0000000000
0000000000
0000000000
0000000000
00007C0000
00007C0000
00007C0000
00007C0000
00007C0000
00007C0000
001FFFF000
001FFFF000
001FFFF000
001FFFF000
001FFFF000
03FF83FF80
03FF83FF80
03FF83FF80
03FF83FF80
03FF83FF80
03FF83FF80
FFE0000FFE
FFE0000FFE
FFE0000FFE
FFE0000FFE
FFE0000FFE
FFE0000FFE
FFE0000FFE
FFE0000FFE
FFE0000FFE
FFE0000FFE
FFE0000FFE
FFFFFFFFFE
FFFFFFFFFE
FFFFFFFFFE
FFFFFFFFFE
FFFFFFFFFE
FFFFFFFFFE
FFE0000FFE
FFE0000FFE
FFE0000FFE
FFE0000FFE
FFE0000FFE
FFE0000FFE
FFE0000FFE
FFE0000FFE
FFE0000FFE
FFE0000FFE
FFE0000FFE
FFE0000FFE
FFE0000FFE
FFE0000FFE
FFE0000FFE
FFE0000FFE
ENDCHAR
STARTCHAR 0101
ENCODING 257
SWIDTH 506 0
DWIDTH 45 0
BBX 39 50 0 11
BITMAP
07FFFFFF80
07FFFFFF80
07FFFFFF80
07FFFFFF80
07FFFFFF80
07FFFFFF80
0000000000
0000000000
0000000000
0000000000
0000000000
07FFFFE000
07FFFFE000
07FFFFE000
07FFFFE000
07FFFFE000
07FFFFE000
000003FF80
000003FF80
000003FF80
000003FF80
000003FF80
07FFFFFF80
07FFFFFF80
07FFFFFF80
07FFFFFF80
07FFFFFF80
07FFFFFF80
FFE003FF80
FFE003FF80
FFE003FF80
FFE003FF80
FFE003FF80
FFE003FF80
FFE003FF80
FFE003FF80
FFE003FF80
FFE003FF80
FFE003FF80
FFE003FF80
FFE003FF80
FFE003FF80
FFE003FF80
FFE003FF80
07FFFC0FFE
07FFFC0FFE
07FFFC0FFE
07FFFC0FFE
07FFFC0FFE
07FFFC0FFE
ENDCHAR
STARTCHAR 0102
ENCODING 258
SWIDTH 506 0
DWIDTH 45 0
BBX 39 67 0 11
BITMAP
03FF83FF80
03FF83FF80
03FF83FF80
03FF83FF80
03FF83FF80
03FF83FF80
001FFFF000
001FFFF000
001FFFF000
001FFFF000
001FFFF000
001FFFF000
0000000000
0000000000
0000000000
0000000000
0000000000
00007C0000
00007C0000
00007C0000
00007C0000
00007C0000
00007C0000
001FFFF000
001FFFF000
001FFFF000
001FFFF000
001FFFF000
03FF83FF80
03FF83FF80
03FF83FF80
03FF83FF80
03FF83FF80
03FF83FF80
FFE0000FFE
FFE0000FFE
FFE0000FFE
FFE0000FFE
FFE0000FFE
FFE0000FFE
FFE0000FFE
FFE0000FFE
FFE0000FFE
FFE0000FFE
FFE0000FFE
FFFFFFFFFE
FFFFFFFFFE
FFFFFFFFFE
FFFFFFFFFE
FFFFFFFFFE
FFFFFFFFFE
FFE0000FFE
FFE0000FFE
FFE0000FFE
FFE0000FFE
FFE0000FFE
FFE0000FFE
FFE0000FFE
FFE0000FFE
FFE0000FFE
FFE0000FFE
FFE0000FFE
FFE0000FFE
FFE0000FFE
FFE0000FFE
FFE0000FFE
FFE0000FFE
ENDCHAR
STARTCHAR 0103
ENCODING 259
SWIDTH 506 0
DWIDTH 45 0
BBX 39 56 0 11
BITMAP
03FF81FF80
03FF81FF80
03FF81FF80
03FF81FF80
03FF81FF80
03FF81FF80
001FFFF000
001FFFF000
001FFFF000
001FFFF000
001FFFF000
001FFFF000
0000000000
0000000000
0000000000
0000000000
0000000000
03FFFFF000
03FFFFF000
03FFFFF000
03FFFFF000
03FFFFF000
03FFFFF000
000001FF80
000001FF80
000001FF80
000001FF80
000001FF80
03FFFFFF80
03FFFFFF80
03FFFFFF80
03FFFFFF80
03FFFFFF80
03FFFFFF80
FFE001FF80
FFE001FF80
FFE001FF80
FFE001FF80
FFE001FF80
FFE001FF80
FFE001FF80
FFE001FF80
FFE001FF80
FFE001FF80
FFE001FF80
FFE001FF80
FFE001FF80
FFE001FF80
FFE001FF80
FFE001FF80
03FFFE0FFE
03FFFE0FFE
03FFFE0FFE
03FFFE0FFE
03FFFE0FFE
03FFFE0FFE
ENDCHAR
STARTCHAR 0104
ENCODING 260
SWIDTH 506 0
DWIDTH 45 0
BBX 39 73 0 -6
BITMAP
00007C0000
00007C0000
00007C0000
00007C0000
00007C0000
00007C0000
001FFFF000
001FFFF000
001FFFF000
001FFFF000
001FFFF000
001F83F000
03FF83FF80
03FF83FF80
03FF83FF80
03FF83FF80
03FF83FF80
FFE0000FFE
FFE0000FFE
FFE0000FFE
FFE0000FFE
FFE0000FFE
FFE0000FFE
FFE0000FFE
FFE0000FFE
FFE0000FFE
FFE0000FFE
FFE0000FFE
FFFFFFFFFE
FFFFFFFFFE
FFFFFFFFFE
FFFFFFFFFE
FFFFFFFFFE
FFFFFFFFFE
FFE0000FFE
FFE0000FFE
FFE0000FFE
FFE0000FFE
FFE0000FFE
FFE0000FFE
FFE0000FFE
FFE0000FFE
FFE0000FFE
FFE0000FFE
FFE0000FFE
FFE0000FFE
FFE0000FFE
FFE0000FFE
FFE0000FFE
FFE0000FFE
FFE0000FFE
FFE0000FFE
FFE0000FFE
FFE0000FFE
FFE0000FFE
FFE0000FFE
000003FF80
000003FF80
000003FF80
000003FF80
000003FF80
000003FF80
00007FF000
00007FF000
00007FF000
00007FF000
00007FF000
000003FFFE
000003FFFE
000003FFFE
000003FFFE
000003FFFE
000003FFFE
ENDCHAR
STARTCHAR 0105
ENCODING 261
SWIDTH 506 0
DWIDTH 45 0
BBX 39 56 0 -6
BITMAP
07FFFFF000
07FFFFF000
07FFFFF000
07FFFFF000
07FFFFF000
07FFFFF000
000003FF80
000003FF80
000003FF80
000003FF80
000003FF80
07FFFFFF80
07FFFFFF80
07FFFFFF80
07FFFFFF80
07FFFFFF80
07FFFFFF80
FFE003FF80
FFE003FF80
FFE003FF80
FFE003FF80
FFE003FF80
FFE003FF80
FFE003FF80
FFE003FF80
FFE003FF80
FFE003FF80
FFE003FF80
FFE003FF80
FFE003FF80
FFE003FF80
FFE003FF80
FFE003FF80
07FFFC0FFE
07FFFC0FFE
07FFFC0FFE
07FFFC0FFE
07FFFC0FFE
07FFFC0FFE
000003FF80
000003FF80
000003FF80
000003FF80
000003FF80
000003FF80
00007FF000
00007FF000
00007FF000
00007FF000
00007FF000
000003FFFE
000003FFFE
000003FFFE
000003FFFE
000003FFFE
000003FFFE
ENDCHAR
STARTCHAR 0106
ENCODING 262
SWIDTH 506 0
DWIDTH 45 0
BBX 39 67 0 11
BITMAP
000003FF80
000003FF80
000003FF80
000003FF80
000003FF80
000003FF80
00007FF000
00007FF000
00007FF000
00007FF000
00007FF000
00007FF000
0000000000
0000000000
0000000000
0000000000
0000000000
001FFFFF80
001FFFFF80
001FFFFF80
001FFFFF80
001FFFFF80
001FFFFF80
03FF800FFE
03FF800FFE
03FF800FFE
03FF800FFE
03FF800FFE
FFE000007E
FFE000007E
FFE000007E
FFE000007E
FFE000007E
FFE000007E
FFE0000000
FFE0000000
FFE0000000
FFE0000000
FFE0000000
FFE0000000
FFE0000000
FFE0000000
FFE0000000
FFE0000000
FFE0000000
FFE0000000
FFE0000000
FFE0000000
FFE0000000
FFE0000000
FFE000007E
FFE000007E
FFE000007E
FFE000007E
FFE000007E
FFE000007E
03FF800FFE
03FF800FFE
03FF800FFE
03FF800FFE
03FF800FFE
001FFFFF80
001FFFFF80
001FFFFF80
001FFFFF80
001FFFFF80
001FFFFF80
ENDCHAR
STARTCHAR 0107
ENCODING 263
SWIDTH 506 0
DWIDTH 45 0
BBX 39 56 0 11
BITMAP
000003FF80
000003FF80
000003FF80
000003FF80
000003FF80
000003FF80
00007FF000
00007FF000
00007FF000
00007FF000
00007FF000
00007FF000
0000000000
0000000000
0000000000
0000000000
0000000000
07FFFFFF80
07FFFFFF80
07FFFFFF80
07FFFFFF80
07FFFFFF80
FFFFFFFFFE
FFE0000FFE
FFE0000FFE
FFE0000FFE
FFE0000FFE
FFE0000FFE
FFE0000000
FFE0000000
FFE0000000
FFE0000000
FFE0000000
FFE0000000
FFE0000000
FFE0000000
FFE0000000
FFE0000000
FFE0000000
FFE0000000
FFE0000000
FFE0000000
FFE0000000
FFE0000000
FFE0000000
FFE0000FFE
FFE0000FFE
FFE0000FFE
FFE0000FFE
FFE0000FFE
07FFFFFF80
07FFFFFF80
07FFFFFF80
07FFFFFF80
07FFFFFF80
07FFFFFF80
ENDCHAR
STARTCHAR 0108
ENCODING 264
SWIDTH 506 0
DWIDTH 45 0
BBX 39 67 0 11
BITMAP
0000FC0000
0000FC0000
0000FC0000
0000FC0000
0000FC0000
0000FC0000
001FFFF000
001FFFF000
001FFFF000
001FFFF000
001FFFF000
07E0000FC0
07E0000FC0
07E0000FC0
07E0000FC0
07E0000FC0
07E0000FC0
001FFFFFC0
001FFFFFC0
001FFFFFC0
001FFFFFC0
001FFFFFC0
001FFFFFC0
07FF000FFE
07FF000FFE
07FF000FFE
07FF000FFE
07FF000FFE
FFE000003E
FFE000003E
FFE000003E
FFE000003E
FFE000003E
FFE000003E
FFE0000000
FFE0000000
FFE0000000
FFE0000000
FFE0000000
FFE0000000
FFE0000000
FFE0000000
FFE0000000
FFE0000000
FFE0000000
FFE0000000
FFE0000000
FFE0000000
FFE0000000
FFE0000000
FFE000003E
FFE000003E
FFE000003E
FFE000003E
FFE000003E
FFE000003E
07FF000FFE
07FF000FFE
07FF000FFE
07FF000FFE
07FF000FFE
001FFFFFC0
001FFFFFC0
001FFFFFC0
001FFFFFC0
001FFFFFC0
001FFFFFC0
ENDCHAR
STARTCHAR 0109
ENCODING 265
SWIDTH 506 0
DWIDTH 45 0
BBX 39 61 0 11
BITMAP
00007C0000
00007C0000
00007C0000
00007C0000
00007C0000
001FFFF000
001FFFF000
001FFFF000
001FFFF000
001FFFF000
001FFFF000
03FF83FF80
03FF83FF80
03FF83FF80
03FF83FF80
03FF83FF80
03FF83FF80
0000000000
0000000000
0000000000
0000000000
0000000000
03FFFFFF80
03FFFFFF80
03FFFFFF80
03FFFFFF80
03FFFFFF80
FFFFFFFFFE
FFE0000FFE
FFE0000FFE
FFE0000FFE
FFE0000FFE
FFE0000FFE
FFE0000000
FFE0000000
FFE0000000
FFE0000000
FFE0000000
FFE0000000
FFE0000000
FFE0000000
FFE0000000
FFE0000000
FFE0000000
FFE0000000
FFE0000000
FFE0000000
FFE0000000
FFE0000000
FFE0000000
FFE0000FFE
FFE0000FFE
FFE0000FFE
FFE0000FFE
FFE0000FFE
03FFFFFF80
03FFFFFF80
03FFFFFF80
03FFFFFF80
03FFFFFF80
03FFFFFF80
ENDCHAR
STARTCHAR 010A
ENCODING 266
SWIDTH 506 0
DWIDTH 45 0
BBX 39 67 0 11
BITMAP
00007FF000
00007FF000
00007FF000
00007FF000
00007FF000
00007FF000
00007FF000
00007FF000
00007FF000
00007FF000
00007FF000
0000000000
0000000000
0000000000
0000000000
0000000000
0000000000
001FFFFF80
001FFFFF80
001FFFFF80
001FFFFF80
001FFFFF80
001FFFFF80
03FF800FFE
03FF800FFE
03FF800FFE
03FF800FFE
03FF800FFE
FFE000007E
FFE000007E
FFE000007E
FFE000007E
FFE000007E
FFE000007E
FFE0000000
FFE0000000
FFE0000000
FFE0000000
FFE0000000
FFE0000000
FFE0000000
FFE0000000
FFE0000000
FFE0000000
FFE0000000
FFE0000000
FFE0000000
FFE0000000
FFE0000000
FFE0000000
FFE000007E
FFE000007E
FFE000007E
FFE000007E
FFE000007E
FFE000007E
03FF800FFE
03FF800FFE
03FF800FFE
03FF800FFE
03FF800FFE
001FFFFF80
001FFFFF80
001FFFFF80
001FFFFF80
001FFFFF80
001FFFFF80
ENDCHAR
STARTCHAR 010B
ENCODING 267
SWIDTH 506 0
DWIDTH 45 0
BBX 39 56 0 11
BITMAP
001FFC0000
001FFC0000
001FFC0000
001FFC0000
001FFC0000
001FFC0000
001FFC0000
001FFC0000
001FFC0000
001FFC0000
001FFC0000
0000000000
0000000000
0000000000
0000000000
0000000000
0000000000
07FFFFFF80
07FFFFFF80
07FFFFFF80
07FFFFFF80
07FFFFFF80
FFFFFFFFFE
FFE0000FFE
FFE0000FFE
FFE0000FFE
FFE0000FFE
FFE0000FFE
FFE0000000
FFE0000000
FFE0000000
FFE0000000
FFE0000000
FFE0000000
FFE0000000
FFE0000000
FFE0000000
FFE0000000
FFE0000000
FFE0000000
FFE0000000
FFE0000000
FFE0000000
FFE0000000
FFE0000000
FFE0000FFE
FFE0000FFE
FFE0000FFE
FFE0000FFE
FFE0000FFE
07FFFFFF80
07FFFFFF80
07FFFFFF80
07FFFFFF80
07FFFFFF80
07FFFFFF80
ENDCHAR
STARTCHAR 010C
ENCODING 268
SWIDTH 506 0
DWIDTH 45 0
BBX 39 67 0 11
BITMAP
03FF83FF80
03FF83FF80
03FF83FF80
03FF83FF80
03FF83FF80
03FF83FF80
001FFFF000
001FFFF000
001FFFF000
001FFFF000
001FFFF000
00007C0000
00007C0000
00007C0000
00007C0000
00007C0000
00007C0000
001FFFFF80
001FFFFF80
001FFFFF80
001FFFFF80
001FFFFF80
001FFFFF80
03FF800FFE
03FF800FFE
03FF800FFE
03FF800FFE
03FF800FFE
FFE000007E
FFE000007E
FFE000007E
FFE000007E
FFE000007E
FFE000007E
FFE0000000
FFE0000000
FFE0000000
FFE0000000
FFE0000000
FFE0000000
FFE0000000
FFE0000000
FFE0000000
FFE0000000
FFE0000000
FFE0000000
FFE0000000
FFE0000000
FFE0000000
FFE0000000
FFE000007E
FFE000007E
FFE000007E
FFE000007E
FFE000007E
FFE000007E
03FF800FFE
03FF800FFE
03FF800FFE
03FF800FFE
03FF800FFE
001FFFFF80
001FFFFF80
001FFFFF80
001FFFFF80
001FFFFF80
001FFFFF80
ENDCHAR
STARTCHAR 010D
ENCODING 269
SWIDTH 506 0
DWIDTH 45 0
BBX 39 61 0 11
BITMAP
03FF83FF80
03FF83FF80
03FF83FF80
03FF83FF80
03FF83FF80
001FFFF000
001FFFF000
001FFFF000
001FFFF000
001FFFF000
00007FF000
00007C0000
00007C0000
00007C0000
00007C0000
00007C0000
0000000000
0000000000
0000000000
0000000000
0000000000
0000000000
03FFFFFF80
03FFFFFF80
03FFFFFF80
03FFFFFF80
03FFFFFF80
FFFFFFFFFE
FFE0000FFE
FFE0000FFE
FFE0000FFE
FFE0000FFE
FFE0000FFE
FFE0000000
FFE0000000
FFE0000000
FFE0000000
FFE0000000
FFE0000000
FFE0000000
FFE0000000
FFE0000000
FFE0000000
FFE0000000
FFE0000000
FFE0000000
FFE0000000
FFE0000000
FFE0000000
FFE0000000
FFE0000FFE
FFE0000FFE
FFE0000FFE
FFE0000FFE
FFE0000FFE
03FFFFFF80
03FFFFFF80
03FFFFFF80
03FFFFFF80
03FFFFFF80
03FFFFFF80
ENDCHAR
STARTCHAR 010E
ENCODING 270
SWIDTH 506 0
DWIDTH 45 0
BBX 39 67 0 11
BITMAP
03FF83FF80
03FF83FF80
03FF83FF80
03FF83FF80
03FF83FF80
03FF83FF80
001FFFF000
001FFFF000
001FFFF000
001FFFF000
001FFFF000
00007C0000
00007C0000
00007C0000
00007C0000
00007C0000
00007C0000
FFFFFFF000
FFFFFFF000
FFFFFFF000
FFFFFFF000
FFFFFFF000
FFFFFFF000
03FF83FF80
03FF83FF80
03FF83FF80
03FF83FF80
03FF83FF80
03FF800FFE
03FF800FFE
03FF800FFE
03FF800FFE
03FF800FFE
03FF800FFE
03FF800FFE
03FF800FFE
03FF800FFE
03FF800FFE
03FF800FFE
03FF800FFE
03FF800FFE
03FF800FFE
03FF800FFE
03FF800FFE
03FF800FFE
03FF800FFE
03FF800FFE
03FF800FFE
03FF800FFE
03FF800FFE
03FF800FFE
03FF800FFE
03FF800FFE
03FF800FFE
03FF800FFE
03FF800FFE
03FF83FF80
03FF83FF80
03FF83FF80
03FF83FF80
03FF83FF80
FFFFFFF000
FFFFFFF000
FFFFFFF000
FFFFFFF000
FFFFFFF000
FFFFFFF000
ENDCHAR
STARTCHAR 010F
ENCODING 271
SWIDTH 506 0
DWIDTH 45 0
BBX 39 67 0 11
BITMAP
03FF83FF80
03FF83FF80
03FF83FF80
03FF83FF80
03FF83FF80
03FF83FF80
001FFFF000
001FFFF000
001FFFF000
001FFFF000
001FFFF000
00007FF000
00007C0000
00007C0000
00007C0000
00007C0000
00007C0000
000003FF80
000003FF80
000003FF80
000003FF80
000003FF80
000003FF80
000003FF80
000003FF80
000003FF80
000003FF80
000003FF80
001FFFFF80
001FFFFF80
001FFFFF80
001FFFFF80
001FFFFF80
001FFFFF80
03FF83FF80
03FF83FF80
03FF83FF80
03FF83FF80
03FF83FF80
FFE003FF80
FFE003FF80
FFE003FF80
FFE003FF80
FFE003FF80
FFE003FF80
FFE003FF80
FFE003FF80
FFE003FF80
FFE003FF80
FFE003FF80
FFE003FF80
FFE003FF80
FFE003FF80
FFE003FF80
FFE003FF80
FFE003FF80
FFE003FF80
FFE003FF80
FFE003FF80
FFE003FF80
FFE003FF80
03FFFC0FFE
03FFFC0FFE
03FFFC0FFE
03FFFC0FFE
03FFFC0FFE
03FFFC0FFE
ENDCHAR
STARTCHAR 0110
ENCODING 272
SWIDTH 506 0
DWIDTH 45 0
BBX 39 56 0 11
BITMAP
FFFFFFF000
FFFFFFF000
FFFFFFF000
FFFFFFF000
FFFFFFF000
FFFFFFF000
03FF83FF80
03FF83FF80
03FF83FF80
03FF83FF80
03FF83FF80
03FF83FF80
03FF800FFE
03FF800FFE
03FF800FFE
03FF800FFE
03FF800FFE
03FF800FFE
03FF800FFE
03FF800FFE
03FF800FFE
03FF800FFE
FFFFFC0FFE
FFFFFC0FFE
FFFFFC0FFE
FFFFFC0FFE
FFFFFC0FFE
FFFFFC0FFE
03FF800FFE
03FF800FFE
03FF800FFE
03FF800FFE
03FF800FFE
03FF800FFE
03FF800FFE
03FF800FFE
03FF800FFE
03FF800FFE
03FF800FFE
03FF800FFE
03FF800FFE
03FF800FFE
03FF800FFE
03FF800FFE
03FF800FFE
03FF83FF80
03FF83FF80
03FF83FF80
03FF83FF80
03FF83FF80
FFFFFFF000
FFFFFFF000
FFFFFFF000
FFFFFFF000
FFFFFFF000
FFFFFFF000
ENDCHAR
STARTCHAR 0111
ENCODING 273
SWIDTH 506 0
DWIDTH 45 0
BBX 39 56 0 11
BITMAP
000001FF80
000001FF80
000001FF80
000001FF80
000001FF80
000001FF80
001FFFFFFE
001FFFFFFE
001FFFFFFE
001FFFFFFE
001FFFFFFE
001FFFFFFE
000001FF80
000001FF80
000001FF80
000001FF80
000001FF80
001FFFFF80
001FFFFF80
001FFFFF80
001FFFFF80
001FFFFF80
001FFFFF80
03FF81FF80
03FF81FF80
03FF81FF80
03FF81FF80
03FF81FF80
FFE001FF80
FFE001FF80
FFE001FF80
FFE001FF80
FFE001FF80
FFE001FF80
FFE001FF80
FFE001FF80
FFE001FF80
FFE001FF80
FFE001FF80
FFE001FF80
FFE001FF80
FFE001FF80
FFE001FF80
FFE001FF80
FFE001FF80
FFE001FF80
FFE001FF80
FFE001FF80
FFE001FF80
FFE001FF80
03FFFE0FFE
03FFFE0FFE
03FFFE0FFE
03FFFE0FFE
03FFFE0FFE
03FFFE0FFE
ENDCHAR
STARTCHAR 0112
ENCODING 274
SWIDTH 506 0
DWIDTH 45 0
BBX 39 61 1 11
BITMAP
07FFFFFF80
07FFFFFF80
07FFFFFF80
07FFFFFF80
07FFFFFF80
07FFFFFF80
0000000000
0000000000
0000000000
0000000000
0000000000
FFFFFFFFFE
FFFFFFFFFE
FFFFFFFFFE
FFFFFFFFFE
FFFFFFFFFE
FFFFFFFFFE
07FF001FFE
07FF001FFE
07FF001FFE
07FF001FFE
07FF001FFE
07FF00007E
07FF00007E
07FF00007E
07FF00007E
07FF00007E
07FF00007E
07FF07E000
07FF07E000
07FF07E000
07FF07E000
07FF07E000
07FFFFE000
07FFFFE000
07FFFFE000
07FFFFE000
07FFFFE000
07FFFFE000
07FF07E000
07FF07E000
07FF07E000
07FF07E000
07FF07E000
07FF00007E
07FF00007E
07FF00007E
07FF00007E
07FF00007E
07FF00007E
07FF001FFE
07FF001FFE
07FF001FFE
07FF001FFE
07FF001FFE
FFFFFFFFFE
FFFFFFFFFE
FFFFFFFFFE
FFFFFFFFFE
FFFFFFFFFE
FFFFFFFFFE
ENDCHAR
STARTCHAR 0113
ENCODING 275
SWIDTH 506 0
DWIDTH 45 0
BBX 39 50 0 11
BITMAP
07FFFFFF80
07FFFFFF80
07FFFFFF80
07FFFFFF80
07FFFFFF80
07FFFFFF80
0000000000
0000000000
0000000000
0000000000
0000000000
07FFFFFF80
07FFFFFF80
07FFFFFF80
07FFFFFF80
07FFFFFF80
FFFFFFFFFE
FFE0000FFE
FFE0000FFE
FFE0000FFE
FFE0000FFE
FFE0000FFE
FFFFFFFFFE
FFFFFFFFFE
FFFFFFFFFE
FFFFFFFFFE
FFFFFFFFFE
FFFFFFFFFE
FFE0000000
FFE0000000
FFE0000000
FFE0000000
FFE0000000
FFE0000000
FFE0000000
FFE0000000
FFE0000000
FFE0000000
FFE0000000
FFE0000FFE
FFE0000FFE
FFE0000FFE
FFE0000FFE
FFE0000FFE
07FFFFFF80
07FFFFFF80
07FFFFFF80
07FFFFFF80
07FFFFFF80
07FFFFFF80
ENDCHAR
STARTCHAR 0114
ENCODING 276
SWIDTH 506 0
DWIDTH 45 0
BBX 39 67 1 11
BITMAP
07FF07FF00
07FF07FF00
07FF07FF00
07FF07FF00
07FF07FF00
07FF07FF00
003FFFE000
003FFFE000
003FFFE000
003FFFE000
003FFFE000
003FFFE000
0000000000
0000000000
0000000000
0000000000
0000000000
FFFFFFFFFE
FFFFFFFFFE
FFFFFFFFFE
FFFFFFFFFE
FFFFFFFFFE
FFFFFFFFFE
07FF001FFE
07FF001FFE
07FF001FFE
07FF001FFE
07FF001FFE
07FF00007E
07FF00007E
07FF00007E
07FF00007E
07FF00007E
07FF00007E
07FF07E000
07FF07E000
07FF07E000
07FF07E000
07FF07E000
07FFFFE000
07FFFFE000
07FFFFE000
07FFFFE000
07FFFFE000
07FFFFE000
07FF07E000
07FF07E000
07FF07E000
07FF07E000
07FF07E000
07FF00007E
07FF00007E
07FF00007E
07FF00007E
07FF00007E
07FF00007E
07FF001FFE
07FF001FFE
07FF001FFE
07FF001FFE
07FF001FFE
FFFFFFFFFE
FFFFFFFFFE
FFFFFFFFFE
FFFFFFFFFE
FFFFFFFFFE
FFFFFFFFFE
ENDCHAR
STARTCHAR 0115
ENCODING 277
SWIDTH 506 0
DWIDTH 45 0
BBX 39 56 0 11
BITMAP
03FF83FF80
03FF83FF80
03FF83FF80
03FF83FF80
03FF83FF80
03FF83FF80
001FFFF000
001FFFF000
001FFFF000
001FFFF000
001FFFF000
001FFFF000
0000000000
0000000000
0000000000
0000000000
0000000000
03FFFFFF80
03FFFFFF80
03FFFFFF80
03FFFFFF80
03FFFFFF80
FFFFFFFFFE
FFE0000FFE
FFE0000FFE
FFE0000FFE
FFE0000FFE
FFE0000FFE
FFFFFFFFFE
FFFFFFFFFE
FFFFFFFFFE
FFFFFFFFFE
FFFFFFFFFE
FFFFFFFFFE
FFE0000000
FFE0000000
FFE0000000
FFE0000000
FFE0000000
FFE0000000
FFE0000000
FFE0000000
FFE0000000
FFE0000000
FFE0000000
FFE0000FFE
FFE0000FFE
FFE0000FFE
FFE0000FFE
FFE0000FFE
03FFFFFF80
03FFFFFF80
03FFFFFF80
03FFFFFF80
03FFFFFF80
03FFFFFF80
ENDCHAR
STARTCHAR 0116
ENCODING 278
SWIDTH 506 0
DWIDTH 45 0
BBX 39 67 1 11
BITMAP
0000FFE000
0000FFE000
0000FFE000
0000FFE000
0000FFE000
0000FFE000
0000FFE000
0000FFE000
0000FFE000
0000FFE000
0000FFE000
0000000000
0000000000
0000000000
0000000000
0000000000
0000000000
FFFFFFFFFE
FFFFFFFFFE
FFFFFFFFFE
FFFFFFFFFE
FFFFFFFFFE
FFFFFFFFFE
07FF001FFE
07FF001FFE
07FF001FFE
07FF001FFE
07FF001FFE
07FF00007E
07FF00007E
07FF00007E
07FF00007E
07FF00007E
07FF00007E
07FF07E000
07FF07E000
07FF07E000
07FF07E000
07FF07E000
07FFFFE000
07FFFFE000
07FFFFE000
07FFFFE000
07FFFFE000
07FFFFE000
07FF07E000
07FF07E000
07FF07E000
07FF07E000
07FF07E000
07FF00007E
07FF00007E
07FF00007E
07FF00007E
07FF00007E
07FF00007E
07FF001FFE
07FF001FFE
07FF001FFE
07FF001FFE
07FF001FFE
FFFFFFFFFE
FFFFFFFFFE
FFFFFFFFFE
FFFFFFFFFE
FFFFFFFFFE
FFFFFFFFFE
ENDCHAR
STARTCHAR 0117
ENCODING 279
SWIDTH 506 0
DWIDTH 45 0
BBX 39 56 0 11
BITMAP
001FFC0000
001FFC0000
001FFC0000
001FFC0000
001FFC0000
001FFC0000
001FFC0000
001FFC0000
001FFC0000
001FFC0000
001FFC0000
0000000000
0000000000
0000000000
0000000000
0000000000
0000000000
07FFFFFF80
07FFFFFF80
07FFFFFF80
07FFFFFF80
07FFFFFF80
FFFFFFFFFE
FFE0000FFE
FFE0000FFE
FFE0000FFE
FFE0000FFE
FFE0000FFE
FFFFFFFFFE
FFFFFFFFFE
FFFFFFFFFE
FFFFFFFFFE
FFFFFFFFFE
FFFFFFFFFE
FFE0000000
FFE0000000
FFE0000000
FFE0000000
FFE0000000
FFE0000000
FFE0000000
FFE0000000
FFE0000000
FFE0000000
FFE0000000
FFE0000FFE
FFE0000FFE
FFE0000FFE
FFE0000FFE
FFE0000FFE
07FFFFFF80
07FFFFFF80
07FFFFFF80
07FFFFFF80
07FFFFFF80
07FFFFFF80
ENDCHAR
STARTCHAR 0118
ENCODING 280
SWIDTH 506 0
DWIDTH 45 0
BBX 39 67 1 -6
BITMAP
FFFFFFFFFE
FFFFFFFFFE
FFFFFFFFFE
FFFFFFFFFE
FFFFFFFFFE
FFFFFFFFFE
07FF001FFE
07FF001FFE
07FF001FFE
07FF001FFE
07FF001FFE
07FF00007E
07FF00007E
07FF00007E
07FF00007E
07FF00007E
07FF00007E
07FF03E000
07FF03E000
07FF03E000
07FF03E000
07FF03E000
07FFFFE000
07FFFFE000
07FFFFE000
07FFFFE000
07FFFFE000
07FFFFE000
07FF03E000
07FF03E000
07FF03E000
07FF03E000
07FF03E000
07FF00007E
07FF00007E
07FF00007E
07FF00007E
07FF00007E
07FF00007E
07FF001FFE
07FF001FFE
07FF001FFE
07FF001FFE
07FF001FFE
FFFFFFFFFE
FFFFFFFFFE
FFFFFFFFFE
FFFFFFFFFE
FFFFFFFFFE
FFFFFFFFFE
0000FFE000
0000FFE000
0000FFE000
0000FFE000
0000FFE000
0000FC0000
001FFC0000
001FFC0000
001FFC0000
001FFC0000
001FFC0000
0000FFFF80
0000FFFF80
0000FFFF80
0000FFFF80
0000FFFF80
0000FFFF80
ENDCHAR
STARTCHAR 0119
ENCODING 281
SWIDTH 506 0
DWIDTH 45 0
BBX 39 56 0 -6
BITMAP
03FFFFFFC0
03FFFFFFC0
03FFFFFFC0
03FFFFFFC0
03FFFFFFC0
FFFFFFFFFE
FFE0000FFE
FFE0000FFE
FFE0000FFE
FFE0000FFE
FFE0000FFE
FFFFFFFFFE
FFFFFFFFFE
FFFFFFFFFE
FFFFFFFFFE
FFFFFFFFFE
FFFFFFFFFE
FFE0000000
FFE0000000
FFE0000000
FFE0000000
FFE0000000
FFE0000000
FFE0000000
FFE0000000
FFE0000000
FFE0000000
FFE0000000
FFE0000FFE
FFE0000FFE
FFE0000FFE
FFE0000FFE
FFE0000FFE
03FFFFFFC0
03FFFFFFC0
03FFFFFFC0
03FFFFFFC0
03FFFFFFC0
03FFFFFFC0
001FFC0000
001FFC0000
001FFC0000
001FFC0000
001FFC0000
001FFC0000
03FF800000
03FF800000
03FF800000
03FF800000
03FF800000
001FFFF000
001FFFF000
001FFFF000
001FFFF000
001FFFF000
001FFFF000
ENDCHAR
STARTCHAR 011A
ENCODING 282
SWIDTH 506 0
DWIDTH 45 0
BBX 39 67 1 11
BITMAP
07FF03FF80
07FF03FF80
07FF03FF80
07FF03FF80
07FF03FF80
07FF03FF80
003FFFE000
003FFFE000
003FFFE000
003FFFE000
003FFFE000
0000FC0000
0000FC0000
0000FC0000
0000FC0000
0000FC0000
0000FC0000
FFFFFFFFFE
FFFFFFFFFE
FFFFFFFFFE
FFFFFFFFFE
FFFFFFFFFE
FFFFFFFFFE
07FF001FFE
07FF001FFE
07FF001FFE
07FF001FFE
07FF001FFE
07FF00007E
07FF00007E
07FF00007E
07FF00007E
07FF00007E
07FF00007E
07FF03E000
07FF03E000
07FF03E000
07FF03E000
07FF03E000
07FFFFE000
07FFFFE000
07FFFFE000
07FFFFE000
07FFFFE000
07FFFFE000
07FF03E000
07FF03E000
07FF03E000
07FF03E000
07FF03E000
07FF00007E
07FF00007E
07FF00007E
07FF00007E
07FF00007E
07FF00007E
07FF001FFE
07FF001FFE
07FF001FFE
07FF001FFE
07FF001FFE
FFFFFFFFFE
FFFFFFFFFE
FFFFFFFFFE
FFFFFFFFFE
FFFFFFFFFE
FFFFFFFFFE
ENDCHAR
STARTCHAR 011B
ENCODING 283
SWIDTH 506 0
DWIDTH 45 0
BBX 39 61 0 11
BITMAP
03FF83FF80
03FF83FF80
03FF83FF80
03FF83FF80
03FF83FF80
001FFFF000
001FFFF000
001FFFF000
001FFFF000
001FFFF000
00007FF000
00007C0000
00007C0000
00007C0000
00007C0000
00007C0000
0000000000
0000000000
0000000000
0000000000
0000000000
0000000000
03FFFFFF80
03FFFFFF80
03FFFFFF80
03FFFFFF80
03FFFFFF80
FFFFFFFFFE
FFE0000FFE
FFE0000FFE
FFE0000FFE
FFE0000FFE
FFE0000FFE
FFFFFFFFFE
FFFFFFFFFE
FFFFFFFFFE
FFFFFFFFFE
FFFFFFFFFE
FFFFFFFFFE
FFE0000000
FFE0000000
FFE0000000
FFE0000000
FFE0000000
FFE0000000
FFE0000000
FFE0000000
FFE0000000
FFE0000000
FFE0000000
FFE0000FFE
FFE0000FFE
FFE0000FFE
FFE0000FFE
FFE0000FFE
03FFFFFF80
03FFFFFF80
03FFFFFF80
03FFFFFF80
03FFFFFF80
03FFFFFF80
ENDCHAR
STARTCHAR 011C
ENCODING 284
SWIDTH 506 0
DWIDTH 45 0
BBX 39 67 0 11
BITMAP
0000FC0000
0000FC0000
0000FC0000
0000FC0000
0000FC0000
0000FC0000
001FFFF000
001FFFF000
001FFFF000
001FFFF000
001FFFF000
07E0000FC0
07E0000FC0
07E0000FC0
07E0000FC0
07E0000FC0
07E0000FC0
001FFFFFC0
001FFFFFC0
001FFFFFC0
001FFFFFC0
001FFFFFC0
001FFFFFC0
07FF000FFE
07FF000FFE
07FF000FFE
07FF000FFE
07FF000FFE
FFE000003E
FFE000003E
FFE000003E
FFE000003E
FFE000003E
FFE000003E
FFE0000000
FFE0000000
FFE0000000
FFE0000000
FFE0000000
FFE0FFFFFE
FFE0FFFFFE
FFE0FFFFFE
FFE0FFFFFE
FFE0FFFFFE
FFE0FFFFFE
FFE0000FFE
FFE0000FFE
FFE0000FFE
FFE0000FFE
FFE0000FFE
FFE0000FFE
FFE0000FFE
FFE0000FFE
FFE0000FFE
FFE0000FFE
FFE0000FFE
07FF000FFE
07FF000FFE
07FF000FFE
07FF000FFE
07FF000FFE
001FFFF03E
001FFFF03E
001FFFF03E
001FFFF03E
001FFFF03E
001FFFF03E
ENDCHAR
STARTCHAR 011D
ENCODING 285
SWIDTH 506 0
DWIDTH 45 0
BBX 39 78 0 -6
BITMAP
00007C0000
00007C0000
00007C0000
00007C0000
00007C0000
001FFFF000
001FFFF000
001FFFF000
001FFFF000
001FFFF000
001FFFF000
03FF83FF80
03FF83FF80
03FF83FF80
03FF83FF80
03FF83FF80
03FF83FF80
0000000000
0000000000
0000000000
0000000000
0000000000
03FFFC0FFE
03FFFC0FFE
03FFFC0FFE
03FFFC0FFE
03FFFC0FFE
03FFFC0FFE
FFE003FF80
FFE003FF80
FFE003FF80
FFE003FF80
FFE003FF80
FFE003FF80
FFE003FF80
FFE003FF80
FFE003FF80
FFE003FF80
FFE003FF80
FFE003FF80
FFE003FF80
FFE003FF80
FFE003FF80
FFE003FF80
FFE003FF80
FFE003FF80
FFE003FF80
FFE003FF80
FFE003FF80
FFE003FF80
FFE003FF80
FFE003FF80
FFE003FF80
FFE003FF80
FFE003FF80
03FFFFFF80
03FFFFFF80
03FFFFFF80
03FFFFFF80
03FFFFFF80
03FFFFFF80
000003FF80
000003FF80
000003FF80
000003FF80
000003FF80
000003FF80
FFE003FF80
FFE003FF80
FFE003FF80
FFE003FF80
FFE003FF80
03FFFFF000
03FFFFF000
03FFFFF000
03FFFFF000
03FFFFF000
03FFFFF000
ENDCHAR
STARTCHAR 011E
ENCODING 286
SWIDTH 506 0
DWIDTH 45 0
BBX 39 67 0 11
BITMAP
03FF83FF80
03FF83FF80
03FF83FF80
03FF83FF80
03FF83FF80
03FF83FF80
001FFFF000
001FFFF000
001FFFF000
001FFFF000
001FFFF000
001FFFF000
0000000000
0000000000
0000000000
0000000000
0000000000
001FFFFF80
001FFFFF80
001FFFFF80
001FFFFF80
001FFFFF80
001FFFFF80
03FF800FFE
03FF800FFE
03FF800FFE
03FF800FFE
03FF800FFE
FFE000007E
FFE000007E
FFE000007E
FFE000007E
FFE000007E
FFE000007E
FFE0000000
FFE0000000
FFE0000000
FFE0000000
FFE0000000
FFE07FFFFE
FFE07FFFFE
FFE07FFFFE
FFE07FFFFE
FFE07FFFFE
FFE07FFFFE
FFE0000FFE
FFE0000FFE
FFE0000FFE
FFE0000FFE
FFE0000FFE
FFE0000FFE
FFE0000FFE
FFE0000FFE
FFE0000FFE
FFE0000FFE
FFE0000FFE
03FF800FFE
03FF800FFE
03FF800FFE
03FF800FFE
03FF800FFE
001FFFF07E
001FFFF07E
001FFFF07E
001FFFF07E
001FFFF07E
001FFFF07E
ENDCHAR
STARTCHAR 011F
ENCODING 287
SWIDTH 506 0
DWIDTH 45 0
BBX 39 73 0 -6
BITMAP
03FF81FF80
03FF81FF80
03FF81FF80
03FF81FF80
03FF81FF80
03FF81FF80
001FFFF000
001FFFF000
001FFFF000
001FFFF000
001FFFF000
001FFFF000
0000000000
0000000000
0000000000
0000000000
0000000000
03FFFE0FFE
03FFFE0FFE
03FFFE0FFE
03FFFE0FFE
03FFFE0FFE
03FFFE0FFE
FFE001FF80
FFE001FF80
FFE001FF80
FFE001FF80
FFE001FF80
FFE001FF80
FFE001FF80
FFE001FF80
FFE001FF80
FFE001FF80
FFE001FF80
FFE001FF80
FFE001FF80
FFE001FF80
FFE001FF80
FFE001FF80
FFE001FF80
FFE001FF80
FFE001FF80
FFE001FF80
FFE001FF80
FFE001FF80
FFE001FF80
FFE001FF80
FFE001FF80
FFE001FF80
FFE001FF80
03FFFFFF80
03FFFFFF80
03FFFFFF80
03FFFFFF80
03FFFFFF80
03FFFFFF80
000001FF80
000001FF80
000001FF80
000001FF80
000001FF80
000001FF80
FFE001FF80
FFE001FF80
FFE001FF80
FFE001FF80
FFE001FF80
03FFFFF000
03FFFFF000
03FFFFF000
03FFFFF000
03FFFFF000
03FFFFF000
ENDCHAR
STARTCHAR 0120
ENCODING 288
SWIDTH 506 0
DWIDTH 45 0
BBX 39 67 0 11
BITMAP
00007FF000
00007FF000
00007FF000
00007FF000
00007FF000
00007FF000
00007FF000
00007FF000
00007FF000
00007FF000
00007FF000
0000000000
0000000000
0000000000
0000000000
0000000000
0000000000
001FFFFF80
001FFFFF80
001FFFFF80
001FFFFF80
001FFFFF80
001FFFFF80
03FF800FFE
03FF800FFE
03FF800FFE
03FF800FFE
03FF800FFE
FFE000007E
FFE000007E
FFE000007E
FFE000007E
FFE000007E
FFE000007E
FFE0000000
FFE0000000
FFE0000000
FFE0000000
FFE0000000
FFE07FFFFE
FFE07FFFFE
FFE07FFFFE
FFE07FFFFE
FFE07FFFFE
FFE07FFFFE
FFE0000FFE
FFE0000FFE
FFE0000FFE
FFE0000FFE
FFE0000FFE
FFE0000FFE
FFE0000FFE
FFE0000FFE
FFE0000FFE
FFE0000FFE
FFE0000FFE
03FF800FFE
03FF800FFE
03FF800FFE
03FF800FFE
03FF800FFE
001FFFF07E
001FFFF07E
001FFFF07E
001FFFF07E
001FFFF07E
001FFFF07E
ENDCHAR
STARTCHAR 0121
ENCODING 289
SWIDTH 506 0
DWIDTH 45 0
BBX 39 73 0 -6
BITMAP
001FFC0000
001FFC0000
001FFC0000
001FFC0000
001FFC0000
001FFC0000
001FFC0000
001FFC0000
001FFC0000
001FFC0000
001FFC0000
0000000000
0000000000
0000000000
0000000000
0000000000
0000000000
07FFFC0FFE
07FFFC0FFE
07FFFC0FFE
07FFFC0FFE
07FFFC0FFE
07FFFC0FFE
FFE003FF80
FFE003FF80
FFE003FF80
FFE003FF80
FFE003FF80
FFE003FF80
FFE003FF80
FFE003FF80
FFE003FF80
FFE003FF80
FFE003FF80
FFE003FF80
FFE003FF80
FFE003FF80
FFE003FF80
FFE003FF80
FFE003FF80
FFE003FF80
FFE003FF80
FFE003FF80
FFE003FF80
FFE003FF80
FFE003FF80
FFE003FF80
FFE003FF80
FFE003FF80
FFE003FF80
07FFFFFF80
07FFFFFF80
07FFFFFF80
07FFFFFF80
07FFFFFF80
07FFFFFF80
000003FF80
000003FF80
000003FF80
000003FF80
000003FF80
000003FF80
FFE003FF80
FFE003FF80
FFE003FF80
FFE003FF80
FFE003FF80
07FFFFE000
07FFFFE000
07FFFFE000
07FFFFE000
07FFFFE000
07FFFFE000
ENDCHAR
STARTCHAR 0122
ENCODING 290
SWIDTH 506 0
DWIDTH 45 0
BBX 39 79 0 -12
BITMAP
001FFFFF80
001FFFFF80
001FFFFF80
001FFFFF80
001FFFFF80
001FFFFF80
001F800F80
03FF800FFE
03FF800FFE
03FF800FFE
03FF800FFE
03FF800FFE
FFE000007E
FFE000007E
FFE000007E
FFE000007E
FFE000007E
FFE000007E
FFE0000000
FFE0000000
FFE0000000
FFE0000000
FFE0000000
FFE0000000
FFE0000000
FFE0000000
FFE0000000
FFE0000000
FFE07FFFFE
FFE07FFFFE
FFE07FFFFE
FFE07FFFFE
FFE07FFFFE
FFE07FFFFE
FFE0000FFE
FFE0000FFE
FFE0000FFE
FFE0000FFE
FFE0000FFE
FFE0000FFE
FFE0000FFE
FFE0000FFE
FFE0000FFE
FFE0000FFE
FFE0000FFE
03FF800FFE
03FF800FFE
03FF800FFE
03FF800FFE
03FF800FFE
001FFFF07E
001FFFF07E
001FFFF07E
001FFFF07E
001FFFF07E
001FFFF07E
0000000000
0000000000
0000000000
0000000000
0000000000
0000000000
00007FF000
00007FF000
00007FF000
00007FF000
00007FF000
00007FF000
00007FF000
00007FF000
00007FF000
00007FF000
00007FF000
001FFC0000
001FFC0000
001FFC0000
001FFC0000
001FFC0000
001FFC0000
ENDCHAR
STARTCHAR 0123
ENCODING 291
SWIDTH 506 0
DWIDTH 45 0
BBX 39 78 0 -6
BITMAP
00007FF000
00007FF000
00007FF000
00007FF000
00007FF000
001FFC0000
001FFC0000
001FFC0000
001FFC0000
001FFC0000
001FFC0000
001FFC0000
001FFC0000
001FFC0000
001FFC0000
001FFC0000
0000000000
0000000000
0000000000
0000000000
0000000000
0000000000
07FFFC0FFE
07FFFC0FFE
07FFFC0FFE
07FFFC0FFE
07FFFC0FFE
07FFFC0FFE
FFE003FF80
FFE003FF80
FFE003FF80
FFE003FF80
FFE003FF80
FFE003FF80
FFE003FF80
FFE003FF80
FFE003FF80
FFE003FF80
FFE003FF80
FFE003FF80
FFE003FF80
FFE003FF80
FFE003FF80
FFE003FF80
FFE003FF80
FFE003FF80
FFE003FF80
FFE003FF80
FFE003FF80
FFE003FF80
FFE003FF80
FFE003FF80
FFE003FF80
FFE003FF80
FFE003FF80
07FFFFFF80
07FFFFFF80
07FFFFFF80
07FFFFFF80
07FFFFFF80
07FFFFFF80
000003FF80
000003FF80
000003FF80
000003FF80
000003FF80
000003FF80
FFE003FF80
FFE003FF80
FFE003FF80
FFE003FF80
FFE003FF80
07FFFFF000
07FFFFF000
07FFFFF000
07FFFFF000
07FFFFF000
07FFFFF000
ENDCHAR
STARTCHAR 0124
ENCODING 292
SWIDTH 506 0
DWIDTH 45 0
BBX 39 67 0 11
BITMAP
0000FC0000
0000FC0000
0000FC0000
0000FC0000
0000FC0000
0000FC0000
001FFFF000
001FFFF000
001FFFF000
001FFFF000
001FFFF000
001FFFF000
0000000000
0000000000
0000000000
0000000000
0000000000
FFE0000FFE
FFE0000FFE
FFE0000FFE
FFE0000FFE
FFE0000FFE
FFE0000FFE
FFE0000FFE
FFE0000FFE
FFE0000FFE
FFE0000FFE
FFE0000FFE
FFE0000FFE
FFE0000FFE
FFE0000FFE
FFE0000FFE
FFE0000FFE
FFE0000FFE
FFE0000FFE
FFE0000FFE
FFE0000FFE
FFE0000FFE
FFE0000FFE
FFFFFFFFFE
FFFFFFFFFE
FFFFFFFFFE
FFFFFFFFFE
FFFFFFFFFE
FFFFFFFFFE
FFE0000FFE
FFE0000FFE
FFE0000FFE
FFE0000FFE
FFE0000FFE
FFE0000FFE
FFE0000FFE
FFE0000FFE
FFE0000FFE
FFE0000FFE
FFE0000FFE
FFE0000FFE
FFE0000FFE
FFE0000FFE
FFE0000FFE
FFE0000FFE
FFE0000FFE
FFE0000FFE
FFE0000FFE
FFE0000FFE
FFE0000FFE
FFE0000FFE
ENDCHAR
STARTCHAR 0125
ENCODING 293
SWIDTH 506 0
DWIDTH 45 0
BBX 38 67 1 11
BITMAP
0000FC0000
0000FC0000
0000FC0000
0000FC0000
0000FC0000
0000FC0000
001FFFE000
001FFFE000
001FFFE000
001FFFE000
001FFFE000
07E0001F80
07E0001F80
07E0001F80
07E0001F80
07E0001F80
07E0001F80
FFFF000000
FFFF000000
FFFF000000
FFFF000000
FFFF000000
FFFF000000
07FF000000
07FF000000
07FF000000
07FF000000
07FF000000
07FF03FF80
07FF03FF80
07FF03FF80
07FF03FF80
07FF03FF80
07FFFFFFFC
07FFFC1FFC
07FFFC1FFC
07FFFC1FFC
07FFFC1FFC
07FFFC1FFC
07FF001FFC
07FF001FFC
07FF001FFC
07FF001FFC
07FF001FFC
07FF001FFC
07FF001FFC
07FF001FFC
07FF001FFC
07FF001FFC
07FF001FFC
07FF001FFC
07FF001FFC
07FF001FFC
07FF001FFC
07FF001FFC
07FF001FFC
07FF001FFC
07FF001FFC
07FF001FFC
07FF001FFC
07FF001FFC
FFFF001FFC
FFFF001FFC
FFFF001FFC
FFFF001FFC
FFFF001FFC
FFFF001FFC
ENDCHAR
STARTCHAR 0126
ENCODING 294
SWIDTH 506 0
DWIDTH 45 0
BBX 45 56 0 11
BITMAP
03FF800FFE00
03FF800FFE00
03FF800FFE00
03FF800FFE00
03FF800FFE00
03FF800FFE00
FFFFFFFFFFF8
FFFFFFFFFFF8
FFFFFFFFFFF8
FFFFFFFFFFF8
FFFFFFFFFFF8
FFFFFFFFFFF8
03FF800FFE00
03FF800FFE00
03FF800FFE00
03FF800FFE00
03FF800FFE00
03FF800FFE00
03FF800FFE00
03FF800FFE00
03FF800FFE00
03FF800FFE00
03FFFFFFFE00
03FFFFFFFE00
03FFFFFFFE00
03FFFFFFFE00
03FFFFFFFE00
03FFFFFFFE00
03FF800FFE00
03FF800FFE00
03FF800FFE00
03FF800FFE00
03FF800FFE00
03FF800FFE00
03FF800FFE00
03FF800FFE00
03FF800FFE00
03FF800FFE00
03FF800FFE00
03FF800FFE00
03FF800FFE00
03FF800FFE00
03FF800FFE00
03FF800FFE00
03FF800FFE00
03FF800FFE00
03FF800FFE00
03FF800FFE00
03FF800FFE00
03FF800FFE00
03FF800FFE00
03FF800FFE00
03FF800FFE00
03FF800FFE00
03FF800FFE00
03FF800FFE00
ENDCHAR
STARTCHAR 0127
ENCODING 295
SWIDTH 506 0
DWIDTH 45 0
BBX 39 56 0 11
BITMAP
03FF800000
03FF800000
03FF800000
03FF800000
03FF800000
03FF800000
FFFFFFF000
FFFFFFF000
FFFFFFF000
FFFFFFF000
FFFFFFF000
FFFFFFF000
03FF800000
03FF800000
03FF800000
03FF800000
03FF800000
03FF83FF80
03FF83FF80
03FF83FF80
03FF83FF80
03FF83FF80
03FFFFFFFE
03FFFC0FFE
03FFFC0FFE
03FFFC0FFE
03FFFC0FFE
03FFFC0FFE
03FF800FFE
03FF800FFE
03FF800FFE
03FF800FFE
03FF800FFE
03FF800FFE
03FF800FFE
03FF800FFE
03FF800FFE
03FF800FFE
03FF800FFE
03FF800FFE
03FF800FFE
03FF800FFE
03FF800FFE
03FF800FFE
03FF800FFE
03FF800FFE
03FF800FFE
03FF800FFE
03FF800FFE
03FF800FFE
FFFF800FFE
FFFF800FFE
FFFF800FFE
FFFF800FFE
FFFF800FFE
FFFF800FFE
ENDCHAR
STARTCHAR 0128
ENCODING 296
SWIDTH 506 0
DWIDTH 45 0
BBX 39 67 0 11
BITMAP
07FFFC0FFE
07FFFC0FFE
07FFFC0FFE
07FFFC0FFE
07FFFC0FFE
07FFFC0FFE
FFE07FFF80
FFE07FFF80
FFE07FFF80
FFE07FFF80
FFE07FFF80
FFE07FFF80
0000000000
0000000000
0000000000
0000000000
0000000000
001FFFFF80
001FFFFF80
001FFFFF80
001FFFFF80
001FFFFF80
001FFFFF80
00007FF000
00007FF000
00007FF000
00007FF000
00007FF000
00007FF000
00007FF000
00007FF000
00007FF000
00007FF000
00007FF000
00007FF000
00007FF000
00007FF000
00007FF000
00007FF000
00007FF000
00007FF000
00007FF000
00007FF000
00007FF000
00007FF000
00007FF000
00007FF000
00007FF000
00007FF000
00007FF000
00007FF000
00007FF000
00007FF000
00007FF000
00007FF000
00007FF000
00007FF000
00007FF000
00007FF000
00007FF000
00007FF000
001FFFFF80
001FFFFF80
001FFFFF80
001FFFFF80
001FFFFF80
001FFFFF80
ENDCHAR
STARTCHAR 0129
ENCODING 297
SWIDTH 506 0
DWIDTH 45 0
BBX 39 56 0 11
BITMAP
07FFFC0FFE
07FFFC0FFE
07FFFC0FFE
07FFFC0FFE
07FFFC0FFE
07FFFC0FFE
FFE07FFF80
FFE07FFF80
FFE07FFF80
FFE07FFF80
FFE07FFF80
FFE07FFF80
0000000000
0000000000
0000000000
0000000000
0000000000
001FFFF000
001FFFF000
001FFFF000
001FFFF000
001FFFF000
001FFFF000
00007FF000
00007FF000
00007FF000
00007FF000
00007FF000
00007FF000
00007FF000
00007FF000
00007FF000
00007FF000
00007FF000
00007FF000
00007FF000
00007FF000
00007FF000
00007FF000
00007FF000
00007FF000
00007FF000
00007FF000
00007FF000
00007FF000
00007FF000
00007FF000
00007FF000
00007FF000
00007FF000
001FFFFF80
001FFFFF80
001FFFFF80
001FFFFF80
001FFFFF80
001FFFFF80
ENDCHAR
STARTCHAR 012A
ENCODING 298
SWIDTH 506 0
DWIDTH 45 0
BBX 33 61 6 11
BITMAP
FFFFFFFF80
FFFFFFFF80
FFFFFFFF80
FFFFFFFF80
FFFFFFFF80
FFFFFFFF80
0000000000
0000000000
0000000000
0000000000
0000000000
03FFFFF000
03FFFFF000
03FFFFF000
03FFFFF000
03FFFFF000
03FFFFF000
001FFC0000
001FFC0000
001FFC0000
001FFC0000
001FFC0000
001FFC0000
001FFC0000
001FFC0000
001FFC0000
001FFC0000
001FFC0000
001FFC0000
001FFC0000
001FFC0000
001FFC0000
001FFC0000
001FFC0000
001FFC0000
001FFC0000
001FFC0000
001FFC0000
001FFC0000
001FFC0000
001FFC0000
001FFC0000
001FFC0000
001FFC0000
001FFC0000
001FFC0000
001FFC0000
001FFC0000
001FFC0000
001FFC0000
001FFC0000
001FFC0000
001FFC0000
001FFC0000
001FFC0000
03FFFFF000
03FFFFF000
03FFFFF000
03FFFFF000
03FFFFF000
03FFFFF000
ENDCHAR
STARTCHAR 012B
ENCODING 299
SWIDTH 506 0
DWIDTH 45 0
BBX 33 50 6 11
BITMAP
FFFFFFFF80
FFFFFFFF80
FFFFFFFF80
FFFFFFFF80
FFFFFFFF80
FFFFFFFF80
0000000000
0000000000
0000000000
0000000000
0000000000
03FFFC0000
03FFFC0000
03FFFC0000
03FFFC0000
03FFFC0000
03FFFC0000
001FFC0000
001FFC0000
001FFC0000
001FFC0000
001FFC0000
001FFC0000
001FFC0000
001FFC0000
001FFC0000
001FFC0000
001FFC0000
001FFC0000
001FFC0000
001FFC0000
001FFC0000
001FFC0000
001FFC0000
001FFC0000
001FFC0000
001FFC0000
001FFC0000
001FFC0000
001FFC0000
001FFC0000
001FFC0000
001FFC0000
001FFC0000
03FFFFF000
03FFFFF000
03FFFFF000
03FFFFF000
03FFFFF000
03FFFFF000
ENDCHAR
STARTCHAR 012C
ENCODING 300
SWIDTH 506 0
DWIDTH 45 0
BBX 33 67 6 11
BITMAP
FFE003FF80
FFE003FF80
FFE003FF80
FFE003FF80
FFE003FF80
FFE003FF80
03FFFFF000
03FFFFF000
03FFFFF000
03FFFFF000
03FFFFF000
03FFFFF000
0000000000
0000000000
0000000000
0000000000
0000000000
03FFFFF000
03FFFFF000
03FFFFF000
03FFFFF000
03FFFFF000
03FFFFF000
001FFC0000
001FFC0000
001FFC0000
001FFC0000
001FFC0000
001FFC0000
001FFC0000
001FFC0000
001FFC0000
001FFC0000
001FFC0000
001FFC0000
001FFC0000
001FFC0000
001FFC0000
001FFC0000
001FFC0000
001FFC0000
001FFC0000
001FFC0000
001FFC0000
001FFC0000
001FFC0000
001FFC0000
001FFC0000
001FFC0000
001FFC0000
001FFC0000
001FFC0000
001FFC0000
001FFC0000
001FFC0000
001FFC0000
001FFC0000
001FFC0000
001FFC0000
001FFC0000
001FFC0000
03FFFFF000
03FFFFF000
03FFFFF000
03FFFFF000
03FFFFF000
03FFFFF000
ENDCHAR
STARTCHAR 012D
ENCODING 301
SWIDTH 506 0
DWIDTH 45 0
BBX 33 56 6 11
BITMAP
FFE003FF80
FFE003FF80
FFE003FF80
FFE003FF80
FFE003FF80
FFE003FF80
03FFFFF000
03FFFFF000
03FFFFF000
03FFFFF000
03FFFFF000
03FFFFF000
0000000000
0000000000
0000000000
0000000000
0000000000
03FFFC0000
03FFFC0000
03FFFC0000
03FFFC0000
03FFFC0000
03FFFC0000
001FFC0000
001FFC0000
001FFC0000
001FFC0000
001FFC0000
001FFC0000
001FFC0000
001FFC0000
001FFC0000
001FFC0000
001FFC0000
001FFC0000
001FFC0000
001FFC0000
001FFC0000
001FFC0000
001FFC0000
001FFC0000
001FFC0000
001FFC0000
001FFC0000
001FFC0000
001FFC0000
001FFC0000
001FFC0000
001FFC0000
001FFC0000
03FFFFF000
03FFFFF000
03FFFFF000
03FFFFF000
03FFFFF000
03FFFFF000
ENDCHAR
STARTCHAR 012E
ENCODING 302
SWIDTH 506 0
DWIDTH 45 0
BBX 23 67 11 -6
BITMAP
FFFFFE
FFFFFE
FFFFFE
FFFFFE
FFFFFE
FFFFFE
03FF80
03FF80
03FF80
03FF80
03FF80
03FF80
03FF80
03FF80
03FF80
03FF80
03FF80
03FF80
03FF80
03FF80
03FF80
03FF80
03FF80
03FF80
03FF80
03FF80
03FF80
03FF80
03FF80
03FF80
03FF80
03FF80
03FF80
03FF80
03FF80
03FF80
03FF80
03FF80
03FF80
03FF80
03FF80
03FF80
03FF80
03FF80
FFFFFE
FFFFFE
FFFFFE
FFFFFE
FFFFFE
FFFFFE
03FF80
03FF80
03FF80
03FF80
03FF80
03FF80
FFE000
FFE000
FFE000
FFE000
FFE000
03FFFE
03FFFE
03FFFE
03FFFE
03FFFE
03FFFE
ENDCHAR
STARTCHAR 012F
ENCODING 303
SWIDTH 506 0
DWIDTH 45 0
BBX 23 73 11 -6
BITMAP
03FF80
03FF80
03FF80
03FF80
03FF80
03FF80
03FF80
03FF80
03FF80
03FF80
03FF80
000000
000000
000000
000000
000000
000000
FFFF80
FFFF80
FFFF80
FFFF80
FFFF80
FFFF80
03FF80
03FF80
03FF80
03FF80
03FF80
03FF80
03FF80
03FF80
03FF80
03FF80
03FF80
03FF80
03FF80
03FF80
03FF80
03FF80
03FF80
03FF80
03FF80
03FF80
03FF80
03FF80
03FF80
03FF80
03FF80
03FF80
03FF80
FFFFFE
FFFFFE
FFFFFE
FFFFFE
FFFFFE
FFFFFE
03FF80
03FF80
03FF80
03FF80
03FF80
03FF80
FFE000
FFE000
FFE000
FFE000
FFE000
03FFFE
03FFFE
03FFFE
03FFFE
03FFFE
03FFFE
ENDCHAR
STARTCHAR 0130
ENCODING 304
SWIDTH 506 0
DWIDTH 45 0
BBX 22 67 11 11
BITMAP
03FF80
03FF80
03FF80
03FF80
03FF80
03FF80
03FF80
03FF80
03FF80
03FF80
03FF80
000000
000000
000000
000000
000000
000000
FFFFFC
FFFFFC
FFFFFC
FFFFFC
FFFFFC
FFFFFC
03FF80
03FF80
03FF80
03FF80
03FF80
03FF80
03FF80
03FF80
03FF80
03FF80
03FF80
03FF80
03FF80
03FF80
03FF80
03FF80
03FF80
03FF80
03FF80
03FF80
03FF80
03FF80
03FF80
03FF80
03FF80
03FF80
03FF80
03FF80
03FF80
03FF80
03FF80
03FF80
03FF80
03FF80
03FF80
03FF80
03FF80
03FF80
FFFFFC
FFFFFC
FFFFFC
FFFFFC
FFFFFC
FFFFFC
ENDCHAR
STARTCHAR 0131
ENCODING 305
SWIDTH 506 0
DWIDTH 45 0
BBX 22 39 11 11
BITMAP
FFFF80
FFFF80
FFFF80
FFFF80
FFFF80
FFFF80
03FF80
03FF80
03FF80
03FF80
03FF80
03FF80
03FF80
03FF80
03FF80
03FF80
03FF80
03FF80
03FF80
03FF80
03FF80
03FF80
03FF80
03FF80
03FF80
03FF80
03FF80
03FF80
03FF80
03FF80
03FF80
03FF80
03FF80
FFFFFC
FFFFFC
FFFFFC
FFFFFC
FFFFFC
FFFFFC
ENDCHAR
STARTCHAR 0132
ENCODING 306
SWIDTH 506 0
DWIDTH 45 0
BBX 44 56 0 11
BITMAP
FFFFFC1FFFF0
FFFFFC1FFFF0
FFFFFC1FFFF0
FFFFFC1FFFF0
FFFFFC1FFFF0
FFFFFC1FFFF0
03FF80007FF0
03FF80007FF0
03FF80007FF0
03FF80007FF0
03FF80007FF0
03FF80007FF0
03FF80007FF0
03FF80007FF0
03FF80007FF0
03FF80007FF0
03FF80007FF0
03FF80007FF0
03FF80007FF0
03FF80007FF0
03FF80007FF0
03FF80007FF0
03FF80007FF0
03FF80007FF0
03FF80007FF0
03FF80007FF0
03FF80007FF0
03FF80007FF0
03FF80007FF0
03FF80007FF0
03FF80007FF0
03FF80007FF0
03FF80007FF0
03FF80007FF0
03FF80007FF0
03FF80007FF0
03FF80007FF0
03FF80007FF0
03FF80007FF0
03FFFFF07FF0
03FFFFF07FF0
03FFFFF07FF0
03FFFFF07FF0
03FFFFF07FF0
03FFFFF07FF0
03FFFFF07FF0
03FFFFF07FF0
03FFFFF07FF0
03FFFFF07FF0
03FFFFF07FF0
FFFF83FFFE00
FFFF83FFFE00
FFFF83FFFE00
FFFF83FFFE00
FFFF83FFFE00
FFFF83FFFE00
ENDCHAR
STARTCHAR 0133
ENCODING 307
SWIDTH 506 0
DWIDTH 45 0
BBX 39 73 0 -6
BITMAP
03FF800FFE
03FF800FFE
03FF800FFE
03FF800FFE
03FF800FFE
03FF800FFE
03FF800FFE
03FF800FFE
03FF800FFE
03FF800FFE
03FF800FFE
0000000000
0000000000
0000000000
0000000000
0000000000
0000000000
FFFF83FFFE
FFFF83FFFE
FFFF83FFFE
FFFF83FFFE
FFFF83FFFE
FFFF83FFFE
03FF800FFE
03FF800FFE
03FF800FFE
03FF800FFE
03FF800FFE
03FF800FFE
03FF800FFE
03FF800FFE
03FF800FFE
03FF800FFE
03FF800FFE
03FF800FFE
03FF800FFE
03FF800FFE
03FF800FFE
03FF800FFE
03FF800FFE
03FF800FFE
03FF800FFE
03FF800FFE
03FF800FFE
03FF800FFE
03FF800FFE
03FF800FFE
03FF800FFE
03FF800FFE
03FF800FFE
FFFFFC0FFE
FFFFFC0FFE
FFFFFC0FFE
FFFFFC0FFE
FFFFFC0FFE
FFFFFC0FFE
0000000FFE
0000000FFE
0000000FFE
0000000FFE
0000000FFE
0000000FFE
03FF800FFE
03FF800FFE
03FF800FFE
03FF800FFE
03FF800FFE
001FFFFF80
001FFFFF80
001FFFFF80
001FFFFF80
001FFFFF80
001FFFFF80
ENDCHAR
STARTCHAR 0134
ENCODING 308
SWIDTH 506 0
DWIDTH 45 0
BBX 39 67 0 11
BITMAP
000003F000
000003F000
000003F000
000003F000
000003F000
000003F000
00007FFFC0
00007FFFC0
00007FFFC0
00007FFFC0
00007FFFC0
001F80003E
001F80003E
001F80003E
001F80003E
001F80003E
001F80003E
00007FFFFE
00007FFFFE
00007FFFFE
00007FFFFE
00007FFFFE
00007FFFFE
000003FFC0
000003FFC0
000003FFC0
000003FFC0
000003FFC0
000003FFC0
000003FFC0
000003FFC0
000003FFC0
000003FFC0
000003FFC0
000003FFC0
000003FFC0
000003FFC0
000003FFC0
000003FFC0
000003FFC0
000003FFC0
000003FFC0
000003FFC0
000003FFC0
000003FFC0
FFE003FFC0
FFE003FFC0
FFE003FFC0
FFE003FFC0
FFE003FFC0
FFE003FFC0
FFE003FFC0
FFE003FFC0
FFE003FFC0
FFE003FFC0
FFE003FFC0
FFE003FFC0
FFE003FFC0
FFE003FFC0
FFE003FFC0
FFE003FFC0
03FFFFF000
03FFFFF000
03FFFFF000
03FFFFF000
03FFFFF000
03FFFFF000
ENDCHAR
STARTCHAR 0135
ENCODING 309
SWIDTH 506 0
DWIDTH 45 0
BBX 39 78 6 -6
BITMAP
000003F000
000003F000
000003F000
000003F000
000003F000
00007FFFC0
00007FFFC0
00007FFFC0
00007FFFC0
00007FFFC0
00007FFFC0
001FFC0FFE
001FFC0FFE
001FFC0FFE
001FFC0FFE
001FFC0FFE
001FFC0FFE
0000000000
0000000000
0000000000
0000000000
0000000000
00007FFFC0
00007FFFC0
00007FFFC0
00007FFFC0
00007FFFC0
00007FFFC0
000003FFC0
000003FFC0
000003FFC0
000003FFC0
000003FFC0
000003FFC0
000003FFC0
000003FFC0
000003FFC0
000003FFC0
000003FFC0
000003FFC0
000003FFC0
000003FFC0
000003FFC0
000003FFC0
000003FFC0
000003FFC0
000003FFC0
000003FFC0
000003FFC0
000003FFC0
000003FFC0
000003FFC0
000003FFC0
000003FFC0
000003FFC0
000003FFC0
000003FFC0
000003FFC0
000003FFC0
000003FFC0
000003FFC0
FFE003FFC0
FFE003FFC0
FFE003FFC0
FFE003FFC0
FFE003FFC0
FFE003FFC0
FFE003FFC0
FFE003FFC0
FFE003FFC0
FFE003FFC0
FFE003FFC0
03FFFFF000
03FFFFF000
03FFFFF000
03FFFFF000
03FFFFF000
03FFFFF000
ENDCHAR
STARTCHAR 0136
ENCODING 310
SWIDTH 506 0
DWIDTH 45 0
BBX 38 79 1 -12
BITMAP
FFFF001FFC
FFFF001FFC
FFFF001FFC
FFFF001FFC
FFFF001FFC
FFFF001FFC
07FF001FFC
07FF001FFC
07FF001FFC
07FF001FFC
07FF001FFC
07FF001FFC
07FF001FFC
07FF001FFC
07FF001FFC
07FF001FFC
07FF001FFC
07FF03FF80
07FF03FF80
07FF03FF80
07FF03FF80
07FF03FF80
07FF03FF80
07FFFFE000
07FFFFE000
07FFFFE000
07FFFFE000
07FFFFE000
07FFFFE000
07FFFFE000
07FFFFE000
07FFFFE000
07FFFFE000
07FFFFE000
07FF03FF80
07FF03FF80
07FF03FF80
07FF03FF80
07FF03FF80
07FF001FFC
07FF001FFC
07FF001FFC
07FF001FFC
07FF001FFC
07FF001FFC
07FF001FFC
07FF001FFC
07FF001FFC
07FF001FFC
07FF001FFC
FFFF001FFC
FFFF001FFC
FFFF001FFC
FFFF001FFC
FFFF001FFC
FFFF001FFC
0000000000
0000000000
0000000000
0000000000
0000000000
0000000000
0000FFE000
0000FFE000
0000FFE000
0000FFE000
0000FFE000
0000FFE000
0000FFE000
0000FFE000
0000FFE000
0000FFE000
0000FFE000
001FFC0000
001FFC0000
001FFC0000
001FFC0000
001FFC0000
001FFC0000
ENDCHAR
STARTCHAR 0137
ENCODING 311
SWIDTH 506 0
DWIDTH 45 0
BBX 38 79 1 -12
BITMAP
FFFF000000
FFFF000000
FFFF000000
FFFF000000
FFFF000000
FFFF000000
07FF000000
07FF000000
07FF000000
07FF000000
07FF000000
07FF000000
07FF000000
07FF000000
07FF000000
07FF000000
07FF000000
07FF001FFC
07FF001FFC
07FF001FFC
07FF001FFC
07FF001FFC
07FF001FFC
07FF03FF80
07FF03FF80
07FF03FF80
07FF03FF80
07FF03FF80
07FF03FF80
07FFFFE000
07FFFFE000
07FFFFE000
07FFFFE000
07FFFFE000
07FFFFE000
07FFFFE000
07FFFFE000
07FFFFE000
07FFFFE000
07FF03FF80
07FF03FF80
07FF03FF80
07FF03FF80
07FF03FF80
07FF03FF80
07FF001FFC
07FF001FFC
07FF001FFC
07FF001FFC
07FF001FFC
FFFF001FFC
FFFF001FFC
FFFF001FFC
FFFF001FFC
FFFF001FFC
FFFF001FFC
0000000000
0000000000
0000000000
0000000000
0000000000
0000000000
0000FFE000
0000FFE000
0000FFE000
0000FFE000
0000FFE000
0000FFE000
0000FFE000
0000FFE000
0000FFE000
0000FFE000
0000FFE000
001FFC0000
001FFC0000
001FFC0000
001FFC0000
001FFC0000
001FFC0000
ENDCHAR
STARTCHAR 0138
ENCODING 312
SWIDTH 506 0
DWIDTH 45 0
BBX 38 39 1 11
BITMAP
FFFF001FFC
FFFF001FFC
FFFF001FFC
FFFF001FFC
FFFF001FFC
FFFF001FFC
07FF03FF80
07FF03FF80
07FF03FF80
07FF03FF80
07FF03FF80
07FFFFE000
07FFFFE000
07FFFFE000
07FFFFE000
07FFFFE000
07FFFFE000
07FFFFE000
07FFFFE000
07FFFFE000
07FFFFE000
07FFFFE000
07FF03FF80
07FF03FF80
07FF03FF80
07FF03FF80
07FF03FF80
07FF03FF80
07FF001FFC
07FF001FFC
07FF001FFC
07FF001FFC
07FF001FFC
FFFF001FFC
FFFF001FFC
FFFF001FFC
FFFF001FFC
FFFF001FFC
FFFF001FFC
ENDCHAR
STARTCHAR 0139
ENCODING 313
SWIDTH 506 0
DWIDTH 45 0
BBX 39 67 0 11
BITMAP
00007FF000
00007FF000
00007FF000
00007FF000
00007FF000
00007FF000
001FFC0000
001FFC0000
001FFC0000
001FFC0000
001FFC0000
001FFC0000
0000000000
0000000000
0000000000
0000000000
0000000000
FFFFFC0000
FFFFFC0000
FFFFFC0000
FFFFFC0000
FFFFFC0000
FFFFFC0000
03FF800000
03FF800000
03FF800000
03FF800000
03FF800000
03FF800000
03FF800000
03FF800000
03FF800000
03FF800000
03FF800000
03FF800000
03FF800000
03FF800000
03FF800000
03FF800000
03FF800000
03FF800000
03FF800000
03FF800000
03FF800000
03FF800000
03FF800000
03FF800000
03FF800000
03FF800000
03FF800000
03FF80007E
03FF80007E
03FF80007E
03FF80007E
03FF80007E
03FF80007E
03FF800FFE
03FF800FFE
03FF800FFE
03FF800FFE
03FF800FFE
FFFFFFFFFE
FFFFFFFFFE
FFFFFFFFFE
FFFFFFFFFE
FFFFFFFFFE
FFFFFFFFFE
ENDCHAR
STARTCHAR 013A
ENCODING 314
SWIDTH 506 0
DWIDTH 45 0
BBX 22 67 11 11
BITMAP
001FFC
001FFC
001FFC
001FFC
001FFC
001FFC
03FF80
03FF80
03FF80
03FF80
03FF80
03FF80
000000
000000
000000
000000
000000
FFFF80
FFFF80
FFFF80
FFFF80
FFFF80
FFFF80
03FF80
03FF80
03FF80
03FF80
03FF80
03FF80
03FF80
03FF80
03FF80
03FF80
03FF80
03FF80
03FF80
03FF80
03FF80
03FF80
03FF80
03FF80
03FF80
03FF80
03FF80
03FF80
03FF80
03FF80
03FF80
03FF80
03FF80
03FF80
03FF80
03FF80
03FF80
03FF80
03FF80
03FF80
03FF80
03FF80
03FF80
03FF80
FFFFFC
FFFFFC
FFFFFC
FFFFFC
FFFFFC
FFFFFC
ENDCHAR
STARTCHAR 013B
ENCODING 315
SWIDTH 506 0
DWIDTH 45 0
BBX 39 79 0 -12
BITMAP
FFFFFC0000
FFFFFC0000
FFFFFC0000
FFFFFC0000
FFFFFC0000
FFFFFC0000
03FF800000
03FF800000
03FF800000
03FF800000
03FF800000
03FF800000
03FF800000
03FF800000
03FF800000
03FF800000
03FF800000
03FF800000
03FF800000
03FF800000
03FF800000
03FF800000
03FF800000
03FF800000
03FF800000
03FF800000
03FF800000
03FF800000
03FF800000
03FF800000
03FF800000
03FF800000
03FF800000
03FF800000
03FF800000
03FF800000
03FF800000
03FF800000
03FF800000
03FF80007E
03FF80007E
03FF80007E
03FF80007E
03FF80007E
03FF80007E
03FF800FFE
03FF800FFE
03FF800FFE
03FF800FFE
03FF800FFE
FFFFFFFFFE
FFFFFFFFFE
FFFFFFFFFE
FFFFFFFFFE
FFFFFFFFFE
FFFFFFFFFE
0000000000
0000000000
0000000000
0000000000
0000000000
0000000000
00007FF000
00007FF000
00007FF000
00007FF000
00007FF000
00007FF000
00007FF000
00007FF000
00007FF000
00007FF000
00007FF000
001FFC0000
001FFC0000
001FFC0000
001FFC0000
001FFC0000
001FFC0000
ENDCHAR
STARTCHAR 013C
ENCODING 316
SWIDTH 506 0
DWIDTH 45 0
BBX 22 79 11 -12
BITMAP
FFFF80
FFFF80
FFFF80
FFFF80
FFFF80
FFFF80
03FF80
03FF80
03FF80
03FF80
03FF80
03FF80
03FF80
03FF80
03FF80
03FF80
03FF80
03FF80
03FF80
03FF80
03FF80
03FF80
03FF80
03FF80
03FF80
03FF80
03FF80
03FF80
03FF80
03FF80
03FF80
03FF80
03FF80
03FF80
03FF80
03FF80
03FF80
03FF80
03FF80
03FF80
03FF80
03FF80
03FF80
03FF80
03FF80
03FF80
03FF80
03FF80
03FF80
03FF80
FFFFFC
FFFFFC
FFFFFC
FFFFFC
FFFFFC
FFFFFC
000000
000000
000000
000000
000000
000000
03FF80
03FF80
03FF80
03FF80
03FF80
03FF80
03FF80
03FF80
03FF80
03FF80
03FF80
FFE000
FFE000
FFE000
FFE000
FFE000
FFE000
ENDCHAR
STARTCHAR 013D
ENCODING 317
SWIDTH 506 0
DWIDTH 45 0
BBX 39 67 1 11
BITMAP
07FF03FF80
07FF03FF80
07FF03FF80
07FF03FF80
07FF03FF80
07FF03FF80
003FFFE000
003FFFE000
003FFFE000
003FFFE000
003FFFE000
0000FC0000
0000FC0000
0000FC0000
0000FC0000
0000FC0000
0000FC0000
FFFFFC0000
FFFFFC0000
FFFFFC0000
FFFFFC0000
FFFFFC0000
FFFFFC0000
07FF000000
07FF000000
07FF000000
07FF000000
07FF000000
07FF000000
07FF000000
07FF000000
07FF000000
07FF000000
07FF000000
07FF000000
07FF000000
07FF000000
07FF000000
07FF000000
07FF000000
07FF000000
07FF000000
07FF000000
07FF000000
07FF000000
07FF000000
07FF000000
07FF000000
07FF000000
07FF000000
07FF00007E
07FF00007E
07FF00007E
07FF00007E
07FF00007E
07FF00007E
07FF001FFE
07FF001FFE
07FF001FFE
07FF001FFE
07FF001FFE
FFFFFFFFFE
FFFFFFFFFE
FFFFFFFFFE
FFFFFFFFFE
FFFFFFFFFE
FFFFFFFFFE
ENDCHAR
STARTCHAR 013E
ENCODING 318
SWIDTH 506 0
DWIDTH 45 0
BBX 28 67 6 11
BITMAP
FFE07FF0
FFE07FF0
FFE07FF0
FFE07FF0
FFE07FF0
FFE07FF0
07FFFC00
07FFFC00
07FFFC00
07FFFC00
07FFFC00
001F8000
001F8000
001F8000
001F8000
001F8000
001F8000
07FFFC00
07FFFC00
07FFFC00
07FFFC00
07FFFC00
07FFFC00
001FFC00
001FFC00
001FFC00
001FFC00
001FFC00
001FFC00
001FFC00
001FFC00
001FFC00
001FFC00
001FFC00
001FFC00
001FFC00
001FFC00
001FFC00
001FFC00
001FFC00
001FFC00
001FFC00
001FFC00
001FFC00
001FFC00
001FFC00
001FFC00
001FFC00
001FFC00
001FFC00
001FFC00
001FFC00
001FFC00
001FFC00
001FFC00
001FFC00
001FFC00
001FFC00
001FFC00
001FFC00
001FFC00
07FFFFF0
07FFFFF0
07FFFFF0
07FFFFF0
07FFFFF0
07FFFFF0
ENDCHAR
STARTCHAR 013F
ENCODING 319
SWIDTH 506 0
DWIDTH 45 0
BBX 39 56 0 11
BITMAP
FFFFFC0000
FFFFFC0000
FFFFFC0000
FFFFFC0000
FFFFFC0000
FFFFFC0000
03FF800000
03FF800000
03FF800000
03FF800000
03FF800000
03FF800000
03FF800000
03FF800000
03FF800000
03FF800000
03FF800000
03FF800000
03FF800000
03FF800000
03FF800000
03FF800000
03FF800000
03FF800FFE
03FF800FFE
03FF800FFE
03FF800FFE
03FF800FFE
03FF800FFE
03FF800FFE
03FF800FFE
03FF800FFE
03FF800FFE
03FF800FFE
03FF800000
03FF800000
03FF800000
03FF800000
03FF800000
03FF80007E
03FF80007E
03FF80007E
03FF80007E
03FF80007E
03FF80007E
03FF800FFE
03FF800FFE
03FF800FFE
03FF800FFE
03FF800FFE
FFFFFFFFFE
FFFFFFFFFE
FFFFFFFFFE
FFFFFFFFFE
FFFFFFFFFE
FFFFFFFFFE
ENDCHAR
STARTCHAR 0140
ENCODING 320
SWIDTH 506 0
DWIDTH 45 0
BBX 33 56 6 11
BITMAP
FFFF800000
FFFF800000
FFFF800000
FFFF800000
FFFF800000
FFFF800000
03FF800000
03FF800000
03FF800000
03FF800000
03FF800000
03FF800000
03FF800000
03FF800000
03FF800000
03FF800000
03FF800000
03FF800000
03FF800000
03FF800000
03FF800000
03FF800000
03FF800000
03FF83FF80
03FF83FF80
03FF83FF80
03FF83FF80
03FF83FF80
03FF83FF80
03FF83FF80
03FF83FF80
03FF83FF80
03FF83FF80
03FF83FF80
03FF800000
03FF800000
03FF800000
03FF800000
03FF800000
03FF800000
03FF800000
03FF800000
03FF800000
03FF800000
03FF800000
03FF800000
03FF800000
03FF800000
03FF800000
03FF800000
FFFFFC0000
FFFFFC0000
FFFFFC0000
FFFFFC0000
FFFFFC0000
FFFFFC0000
ENDCHAR
STARTCHAR 0141
ENCODING 321
SWIDTH 506 0
DWIDTH 45 0
BBX 39 56 0 11
BITMAP
FFFFFC0000
FFFFFC0000
FFFFFC0000
FFFFFC0000
FFFFFC0000
FFFFFC0000
03FF800000
03FF800000
03FF800000
03FF800000
03FF800000
03FF800000
03FF800000
03FF800000
03FF800000
03FF800000
03FF800000
03FF800000
03FF800000
03FF800000
03FF800000
03FF800000
03FFFFF000
03FFFFF000
03FFFFF000
03FFFFF000
03FFFFF000
03FFFFF000
FFFF800000
FFFF800000
FFFF800000
FFFF800000
FFFF800000
FFFF800000
03FF800000
03FF800000
03FF800000
03FF800000
03FF800000
03FF80007E
03FF80007E
03FF80007E
03FF80007E
03FF80007E
03FF80007E
03FF801FFE
03FF801FFE
03FF801FFE
03FF801FFE
03FF801FFE
FFFFFFFFFE
FFFFFFFFFE
FFFFFFFFFE
FFFFFFFFFE
FFFFFFFFFE
FFFFFFFFFE
ENDCHAR
STARTCHAR 0142
ENCODING 322
SWIDTH 506 0
DWIDTH 45 0
BBX 33 56 6 11
BITMAP
07FFFC0000
07FFFC0000
07FFFC0000
07FFFC0000
07FFFC0000
07FFFC0000
001FFC0000
001FFC0000
001FFC0000
001FFC0000
001FFC0000
001FFC0000
001FFC0000
001FFC0000
001FFC0000
001FFC0000
001FFC0000
001FFC0000
001FFC0000
001FFC0000
001FFC0000
001FFC0000
001FFFFF80
001FFFFF80
001FFFFF80
001FFFFF80
001FFFFF80
001FFFFF80
FFFFFC0000
FFFFFC0000
FFFFFC0000
FFFFFC0000
FFFFFC0000
FFFFFC0000
001FFC0000
001FFC0000
001FFC0000
001FFC0000
001FFC0000
001FFC0000
001FFC0000
001FFC0000
001FFC0000
001FFC0000
001FFC0000
001FFC0000
001FFC0000
001FFC0000
001FFC0000
001FFC0000
07FFFFE000
07FFFFE000
07FFFFE000
07FFFFE000
07FFFFE000
07FFFFE000
ENDCHAR
STARTCHAR 0143
ENCODING 323
SWIDTH 506 0
DWIDTH 45 0
BBX 39 67 0 11
BITMAP
000003FF80
000003FF80
000003FF80
000003FF80
000003FF80
000003FF80
00007FF000
00007FF000
00007FF000
00007FF000
00007FF000
00007FF000
0000000000
0000000000
0000000000
0000000000
0000000000
FFE0000FFE
FFE0000FFE
FFE0000FFE
FFE0000FFE
FFE0000FFE
FFFF800FFE
FFFF800FFE
FFFF800FFE
FFFF800FFE
FFFF800FFE
FFFF800FFE
FFFFFC0FFE
FFFFFC0FFE
FFFFFC0FFE
FFFFFC0FFE
FFFFFC0FFE
FFFFFC0FFE
FFFFFFFFFE
FFFFFFFFFE
FFFFFFFFFE
FFFFFFFFFE
FFFFFFFFFE
FFE07FFFFE
FFE07FFFFE
FFE07FFFFE
FFE07FFFFE
FFE07FFFFE
FFE07FFFFE
FFE003FFFE
FFE003FFFE
FFE003FFFE
FFE003FFFE
FFE003FFFE
FFE003FFFE
FFE0000FFE
FFE0000FFE
FFE0000FFE
FFE0000FFE
FFE0000FFE
FFE0000FFE
FFE0000FFE
FFE0000FFE
FFE0000FFE
FFE0000FFE
FFE0000FFE
FFE0000FFE
FFE0000FFE
FFE0000FFE
FFE0000FFE
FFE0000FFE
ENDCHAR
STARTCHAR 0144
ENCODING 324
SWIDTH 506 0
DWIDTH 45 0
BBX 39 56 0 11
BITMAP
000003FF80
000003FF80
000003FF80
000003FF80
000003FF80
000003FF80
00007FF000
00007FF000
00007FF000
00007FF000
00007FF000
00007FF000
0000000000
0000000000
0000000000
0000000000
0000000000
FFE07FFF80
FFE07FFF80
FFE07FFF80
FFE07FFF80
FFE07FFF80
FFE07FFF80
03FF800FFE
03FF800FFE
03FF800FFE
03FF800FFE
03FF800FFE
03FF800FFE
03FF800FFE
03FF800FFE
03FF800FFE
03FF800FFE
03FF800FFE
03FF800FFE
03FF800FFE
03FF800FFE
03FF800FFE
03FF800FFE
03FF800FFE
03FF800FFE
03FF800FFE
03FF800FFE
03FF800FFE
03FF800FFE
03FF800FFE
03FF800FFE
03FF800FFE
03FF800FFE
03FF800FFE
03FF800FFE
03FF800FFE
03FF800FFE
03FF800FFE
03FF800FFE
03FF800FFE
ENDCHAR
STARTCHAR 0145
ENCODING 325
SWIDTH 506 0
DWIDTH 45 0
BBX 39 79 0 -12
BITMAP
FFE0000FFE
FFE0000FFE
FFE0000FFE
FFE0000FFE
FFE0000FFE
FFE0000FFE
FFFF800FFE
FFFF800FFE
FFFF800FFE
FFFF800FFE
FFFF800FFE
FFFF800FFE
FFFFFC0FFE
FFFFFC0FFE
FFFFFC0FFE
FFFFFC0FFE
FFFFFC0FFE
FFFFFFFFFE
FFFFFFFFFE
FFFFFFFFFE
FFFFFFFFFE
FFFFFFFFFE
FFFFFFFFFE
FFE07FFFFE
FFE07FFFFE
FFE07FFFFE
FFE07FFFFE
FFE07FFFFE
FFE07FFFFE
FFE003FFFE
FFE003FFFE
FFE003FFFE
FFE003FFFE
FFE003FFFE
FFE0000FFE
FFE0000FFE
FFE0000FFE
FFE0000FFE
FFE0000FFE
FFE0000FFE
FFE0000FFE
FFE0000FFE
FFE0000FFE
FFE0000FFE
FFE0000FFE
FFE0000FFE
FFE0000FFE
FFE0000FFE
FFE0000FFE
FFE0000FFE
FFE0000FFE
FFE0000FFE
FFE0000FFE
FFE0000FFE
FFE0000FFE
FFE0000FFE
0000000000
0000000000
0000000000
0000000000
0000000000
0000000000
00007FF000
00007FF000
00007FF000
00007FF000
00007FF000
00007FF000
00007FF000
00007FF000
00007FF000
00007FF000
00007FF000
001FFC0000
001FFC0000
001FFC0000
001FFC0000
001FFC0000
001FFC0000
ENDCHAR
STARTCHAR 0146
ENCODING 326
SWIDTH 506 0
DWIDTH 45 0
BBX 39 62 0 -12
BITMAP
FFE07FFFC0
FFE07FFFC0
FFE07FFFC0
FFE07FFFC0
FFE07FFFC0
FFE07FFFC0
03FF800FFE
03FF800FFE
03FF800FFE
03FF800FFE
03FF800FFE
03FF800FFE
03FF800FFE
03FF800FFE
03FF800FFE
03FF800FFE
03FF800FFE
03FF800FFE
03FF800FFE
03FF800FFE
03FF800FFE
03FF800FFE
03FF800FFE
03FF800FFE
03FF800FFE
03FF800FFE
03FF800FFE
03FF800FFE
03FF800FFE
03FF800FFE
03FF800FFE
03FF800FFE
03FF800FFE
03FF800FFE
03FF800FFE
03FF800FFE
03FF800FFE
03FF800FFE
03FF800FFE
0000000000
0000000000
0000000000
0000000000
0000000000
0000000000
00007FF000
00007FF000
00007FF000
00007FF000
00007FF000
00007FF000
00007FF000
00007FF000
00007FF000
00007FF000
00007FF000
001FFC0000
001FFC0000
001FFC0000
001FFC0000
001FFC0000
001FFC0000
ENDCHAR
STARTCHAR 0147
ENCODING 327
SWIDTH 506 0
DWIDTH 45 0
BBX 39 67 0 11
BITMAP
03FF83FF80
03FF83FF80
03FF83FF80
03FF83FF80
03FF83FF80
03FF83FF80
001FFFF000
001FFFF000
001FFFF000
001FFFF000
001FFFF000
00007FF000
00007C0000
00007C0000
00007C0000
00007C0000
00007C0000
FFE0000FFE
FFE0000FFE
FFE0000FFE
FFE0000FFE
FFE0000FFE
FFFF800FFE
FFFF800FFE
FFFF800FFE
FFFF800FFE
FFFF800FFE
FFFF800FFE
FFFFFC0FFE
FFFFFC0FFE
FFFFFC0FFE
FFFFFC0FFE
FFFFFC0FFE
FFFFFC0FFE
FFFFFFFFFE
FFFFFFFFFE
FFFFFFFFFE
FFFFFFFFFE
FFFFFFFFFE
FFE07FFFFE
FFE07FFFFE
FFE07FFFFE
FFE07FFFFE
FFE07FFFFE
FFE07FFFFE
FFE003FFFE
FFE003FFFE
FFE003FFFE
FFE003FFFE
FFE003FFFE
FFE003FFFE
FFE0000FFE
FFE0000FFE
FFE0000FFE
FFE0000FFE
FFE0000FFE
FFE0000FFE
FFE0000FFE
FFE0000FFE
FFE0000FFE
FFE0000FFE
FFE0000FFE
FFE0000FFE
FFE0000FFE
FFE0000FFE
FFE0000FFE
FFE0000FFE
ENDCHAR
STARTCHAR 0148
ENCODING 328
SWIDTH 506 0
DWIDTH 45 0
BBX 39 61 0 11
BITMAP
03FF83FF80
03FF83FF80
03FF83FF80
03FF83FF80
03FF83FF80
001FFFF000
001FFFF000
001FFFF000
001FFFF000
001FFFF000
00007FF000
00007C0000
00007C0000
00007C0000
00007C0000
00007C0000
0000000000
0000000000
0000000000
0000000000
0000000000
0000000000
FFE07FFF80
FFE07FFF80
FFE07FFF80
FFE07FFF80
FFE07FFF80
FFE07FFF80
03FF800FFE
03FF800FFE
03FF800FFE
03FF800FFE
03FF800FFE
03FF800FFE
03FF800FFE
03FF800FFE
03FF800FFE
03FF800FFE
03FF800FFE
03FF800FFE
03FF800FFE
03FF800FFE
03FF800FFE
03FF800FFE
03FF800FFE
03FF800FFE
03FF800FFE
03FF800FFE
03FF800FFE
03FF800FFE
03FF800FFE
03FF800FFE
03FF800FFE
03FF800FFE
03FF800FFE
03FF800FFE
03FF800FFE
03FF800FFE
03FF800FFE
03FF800FFE
03FF800FFE
ENDCHAR
STARTCHAR 0149
ENCODING 329
SWIDTH 506 0
DWIDTH 45 0
BBX 39 61 0 11
BITMAP
03FF800000
03FF800000
03FF800000
03FF800000
03FF800000
03FF800000
03FF800000
03FF800000
03FF800000
03FF800000
03FF800000
FFE0000000
FFE0000000
FFE0000000
FFE0000000
FFE0000000
FFE0000000
0000000000
0000000000
0000000000
0000000000
0000000000
FFE07FFFC0
FFE07FFFC0
FFE07FFFC0
FFE07FFFC0
FFE07FFFC0
FFE07FFFC0
03FF800FFE
03FF800FFE
03FF800FFE
03FF800FFE
03FF800FFE
03FF800FFE
03FF800FFE
03FF800FFE
03FF800FFE
03FF800FFE
03FF800FFE
03FF800FFE
03FF800FFE
03FF800FFE
03FF800FFE
03FF800FFE
03FF800FFE
03FF800FFE
03FF800FFE
03FF800FFE
03FF800FFE
03FF800FFE
03FF800FFE
03FF800FFE
03FF800FFE
03FF800FFE
03FF800FFE
03FF800FFE
03FF800FFE
03FF800FFE
03FF800FFE
03FF800FFE
03FF800FFE
ENDCHAR
STARTCHAR 014A
ENCODING 330
SWIDTH 506 0
DWIDTH 45 0
BBX 39 73 0 -6
BITMAP
FFE0000FFE
FFE0000FFE
FFE0000FFE
FFE0000FFE
FFE0000FFE
FFE0000FFE
FFFF800FFE
FFFF800FFE
FFFF800FFE
FFFF800FFE
FFFF800FFE
FFFF800FFE
FFFFFC0FFE
FFFFFC0FFE
FFFFFC0FFE
FFFFFC0FFE
FFFFFC0FFE
FFFFFFFFFE
FFFFFFFFFE
FFFFFFFFFE
FFFFFFFFFE
FFFFFFFFFE
FFFFFFFFFE
FFE07FFFFE
FFE07FFFFE
FFE07FFFFE
FFE07FFFFE
FFE07FFFFE
FFE07FFFFE
FFE003FFFE
FFE003FFFE
FFE003FFFE
FFE003FFFE
FFE003FFFE
FFE0000FFE
FFE0000FFE
FFE0000FFE
FFE0000FFE
FFE0000FFE
FFE0000FFE
FFE0000FFE
FFE0000FFE
FFE0000FFE
FFE0000FFE
FFE0000FFE
FFE0000FFE
FFE0000FFE
FFE0000FFE
FFE0000FFE
FFE0000FFE
FFE0000FFE
FFE0000FFE
FFE0000FFE
FFE0000FFE
FFE0000FFE
FFE0000FFE
0000000FFE
0000000FFE
0000000FFE
0000000FFE
0000000FFE
0000000FFE
0000000FFE
0000000FFE
0000000FFE
0000000FFE
0000000FFE
00007FFFC0
00007FFFC0
00007FFFC0
00007FFFC0
00007FFFC0
00007FFFC0
ENDCHAR
STARTCHAR 014B
ENCODING 331
SWIDTH 506 0
DWIDTH 45 0
BBX 39 56 0 -6
BITMAP
FFE07FFFC0
FFE07FFFC0
FFE07FFFC0
FFE07FFFC0
FFE07FFFC0
FFE07FFFC0
03FF800FFE
03FF800FFE
03FF800FFE
03FF800FFE
03FF800FFE
03FF800FFE
03FF800FFE
03FF800FFE
03FF800FFE
03FF800FFE
03FF800FFE
03FF800FFE
03FF800FFE
03FF800FFE
03FF800FFE
03FF800FFE
03FF800FFE
03FF800FFE
03FF800FFE
03FF800FFE
03FF800FFE
03FF800FFE
03FF800FFE
03FF800FFE
03FF800FFE
03FF800FFE
03FF800FFE
03FF800FFE
03FF800FFE
03FF800FFE
03FF800FFE
03FF800FFE
03FF800FFE
0000000FFE
0000000FFE
0000000FFE
0000000FFE
0000000FFE
0000000FFE
0000000FFE
0000000FFE
0000000FFE
0000000FFE
0000000FFE
00007FFFC0
00007FFFC0
00007FFFC0
00007FFFC0
00007FFFC0
00007FFFC0
ENDCHAR
STARTCHAR 014C
ENCODING 332
SWIDTH 506 0
DWIDTH 45 0
BBX 39 61 0 11
BITMAP
07FFFFFF80
07FFFFFF80
07FFFFFF80
07FFFFFF80
07FFFFFF80
07FFFFFF80
0000000000
0000000000
0000000000
0000000000
0000000000
07FFFFFF80
07FFFFFF80
07FFFFFF80
07FFFFFF80
07FFFFFF80
07FFFFFF80
FFE0000FFE
FFE0000FFE
FFE0000FFE
FFE0000FFE
FFE0000FFE
FFE0000FFE
FFE0000FFE
FFE0000FFE
FFE0000FFE
FFE0000FFE
FFE0000FFE
FFE0000FFE
FFE0000FFE
FFE0000FFE
FFE0000FFE
FFE0000FFE
FFE0000FFE
FFE0000FFE
FFE0000FFE
FFE0000FFE
FFE0000FFE
FFE0000FFE
FFE0000FFE
FFE0000FFE
FFE0000FFE
FFE0000FFE
FFE0000FFE
FFE0000FFE
FFE0000FFE
FFE0000FFE
FFE0000FFE
FFE0000FFE
FFE0000FFE
FFE0000FFE
FFE0000FFE
FFE0000FFE
FFE0000FFE
FFE0000FFE
07FFFFFF80
07FFFFFF80
07FFFFFF80
07FFFFFF80
07FFFFFF80
07FFFFFF80
ENDCHAR
STARTCHAR 014D
ENCODING 333
SWIDTH 506 0
DWIDTH 45 0
BBX 39 50 0 11
BITMAP
07FFFFFF80
07FFFFFF80
07FFFFFF80
07FFFFFF80
07FFFFFF80
07FFFFFF80
0000000000
0000000000
0000000000
0000000000
0000000000
07FFFFFF80
07FFFFFF80
07FFFFFF80
07FFFFFF80
07FFFFFF80
07FFFFFF80
FFE0000FFE
FFE0000FFE
FFE0000FFE
FFE0000FFE
FFE0000FFE
FFE0000FFE
FFE0000FFE
FFE0000FFE
FFE0000FFE
FFE0000FFE
FFE0000FFE
FFE0000FFE
FFE0000FFE
FFE0000FFE
FFE0000FFE
FFE0000FFE
FFE0000FFE
FFE0000FFE
FFE0000FFE
FFE0000FFE
FFE0000FFE
FFE0000FFE
FFE0000FFE
FFE0000FFE
FFE0000FFE
FFE0000FFE
FFE0000FFE
07FFFFFF80
07FFFFFF80
07FFFFFF80
07FFFFFF80
07FFFFFF80
07FFFFFF80
ENDCHAR
STARTCHAR 014E
ENCODING 334
SWIDTH 506 0
DWIDTH 45 0
BBX 39 67 0 11
BITMAP
03FF83FF80
03FF83FF80
03FF83FF80
03FF83FF80
03FF83FF80
03FF83FF80
001FFFF000
001FFFF000
001FFFF000
001FFFF000
001FFFF000
001FFFF000
0000000000
0000000000
0000000000
0000000000
0000000000
03FFFFFF80
03FFFFFF80
03FFFFFF80
03FFFFFF80
03FFFFFF80
03FFFFFF80
FFE0000FFE
FFE0000FFE
FFE0000FFE
FFE0000FFE
FFE0000FFE
FFE0000FFE
FFE0000FFE
FFE0000FFE
FFE0000FFE
FFE0000FFE
FFE0000FFE
FFE0000FFE
FFE0000FFE
FFE0000FFE
FFE0000FFE
FFE0000FFE
FFE0000FFE
FFE0000FFE
FFE0000FFE
FFE0000FFE
FFE0000FFE
FFE0000FFE
FFE0000FFE
FFE0000FFE
FFE0000FFE
FFE0000FFE
FFE0000FFE
FFE0000FFE
FFE0000FFE
FFE0000FFE
FFE0000FFE
FFE0000FFE
FFE0000FFE
FFE0000FFE
FFE0000FFE
FFE0000FFE
FFE0000FFE
FFE0000FFE
03FFFFFF80
03FFFFFF80
03FFFFFF80
03FFFFFF80
03FFFFFF80
03FFFFFF80
ENDCHAR
STARTCHAR 014F
ENCODING 335
SWIDTH 506 0
DWIDTH 45 0
BBX 39 56 0 11
BITMAP
03FF83FF80
03FF83FF80
03FF83FF80
03FF83FF80
03FF83FF80
03FF83FF80
001FFFF000
001FFFF000
001FFFF000
001FFFF000
001FFFF000
001FFFF000
0000000000
0000000000
0000000000
0000000000
0000000000
03FFFFFF80
03FFFFFF80
03FFFFFF80
03FFFFFF80
03FFFFFF80
03FFFFFF80
FFE0000FFE
FFE0000FFE
FFE0000FFE
FFE0000FFE
FFE0000FFE
FFE0000FFE
FFE0000FFE
FFE0000FFE
FFE0000FFE
FFE0000FFE
FFE0000FFE
FFE0000FFE
FFE0000FFE
FFE0000FFE
FFE0000FFE
FFE0000FFE
FFE0000FFE
FFE0000FFE
FFE0000FFE
FFE0000FFE
FFE0000FFE
FFE0000FFE
FFE0000FFE
FFE0000FFE
FFE0000FFE
FFE0000FFE
FFE0000FFE
03FFFFFF80
03FFFFFF80
03FFFFFF80
03FFFFFF80
03FFFFFF80
03FFFFFF80
ENDCHAR
STARTCHAR 0150
ENCODING 336
SWIDTH 506 0
DWIDTH 45 0
BBX 39 67 0 11
BITMAP
03FF800FFE
03FF800FFE
03FF800FFE
03FF800FFE
03FF800FFE
03FF800FFE
FFE003FF80
FFE003FF80
FFE003FF80
FFE003FF80
FFE003FF80
FFE003FF80
0000000000
0000000000
0000000000
0000000000
0000000000
03FFFFFF80
03FFFFFF80
03FFFFFF80
03FFFFFF80
03FFFFFF80
03FFFFFF80
FFE0000FFE
FFE0000FFE
FFE0000FFE
FFE0000FFE
FFE0000FFE
FFE0000FFE
FFE0000FFE
FFE0000FFE
FFE0000FFE
FFE0000FFE
FFE0000FFE
FFE0000FFE
FFE0000FFE
FFE0000FFE
FFE0000FFE
FFE0000FFE
FFE0000FFE
FFE0000FFE
FFE0000FFE
FFE0000FFE
FFE0000FFE
FFE0000FFE
FFE0000FFE
FFE0000FFE
FFE0000FFE
FFE0000FFE
FFE0000FFE
FFE0000FFE
FFE0000FFE
FFE0000FFE
FFE0000FFE
FFE0000FFE
FFE0000FFE
FFE0000FFE
FFE0000FFE
FFE0000FFE
FFE0000FFE
FFE0000FFE
03FFFFFF80
03FFFFFF80
03FFFFFF80
03FFFFFF80
03FFFFFF80
03FFFFFF80
ENDCHAR
STARTCHAR 0151
ENCODING 337
SWIDTH 506 0
DWIDTH 45 0
BBX 39 56 0 11
BITMAP
03FF800FFE
03FF800FFE
03FF800FFE
03FF800FFE
03FF800FFE
03FF800FFE
FFE003FF80
FFE003FF80
FFE003FF80
FFE003FF80
FFE003FF80
FFE003FF80
0000000000
0000000000
0000000000
0000000000
0000000000
03FFFFFF80
03FFFFFF80
03FFFFFF80
03FFFFFF80
03FFFFFF80
03FFFFFF80
FFE0000FFE
FFE0000FFE
FFE0000FFE
FFE0000FFE
FFE0000FFE
FFE0000FFE
FFE0000FFE
FFE0000FFE
FFE0000FFE
FFE0000FFE
FFE0000FFE
FFE0000FFE
FFE0000FFE
FFE0000FFE
FFE0000FFE
FFE0000FFE
FFE0000FFE
FFE0000FFE
FFE0000FFE
FFE0000FFE
FFE0000FFE
FFE0000FFE
FFE0000FFE
FFE0000FFE
FFE0000FFE
FFE0000FFE
FFE0000FFE
03FFFFFF80
03FFFFFF80
03FFFFFF80
03FFFFFF80
03FFFFFF80
03FFFFFF80
ENDCHAR
ENDFONT
